  0
SECTION
  2
HEADER
  9
$ACADVER
  1
AC1015
  9
$ACADMAINTVER
 70
     6
  9
$DWGCODEPAGE
  3
ANSI_1252
  9
$INSBASE
 10
0.0
 20
0.0
 30
0.0
  9
$EXTMIN
 10
171.7681938840146
 20
84.02164982065585
 30
0.0
  9
$EXTMAX
 10
1012.768193884014
 20
678.0216498206558
 30
0.0
  9
$LIMMIN
 10
0.0
 20
0.0
  9
$LIMMAX
 10
420.0
 20
297.0
  9
$ORTHOMODE
 70
     0
  9
$REGENMODE
 70
     1
  9
$FILLMODE
 70
     1
  9
$QTEXTMODE
 70
     0
  9
$MIRRTEXT
 70
     1
  9
$LTSCALE
 40
1.0
  9
$ATTMODE
 70
     1
  9
$TEXTSIZE
 40
2.5
  9
$TRACEWID
 40
1.0
  9
$TEXTSTYLE
  7
Standard
  9
$CLAYER
  8
0
  9
$CELTYPE
  6
ByLayer
  9
$CECOLOR
 62
   256
  9
$CELTSCALE
 40
1.0
  9
$DISPSILH
 70
     0
  9
$DIMSCALE
 40
1.0
  9
$DIMASZ
 40
2.5
  9
$DIMEXO
 40
0.625
  9
$DIMDLI
 40
3.75
  9
$DIMRND
 40
0.0
  9
$DIMDLE
 40
0.0
  9
$DIMEXE
 40
1.25
  9
$DIMTP
 40
0.0
  9
$DIMTM
 40
0.0
  9
$DIMTXT
 40
2.5
  9
$DIMCEN
 40
2.5
  9
$DIMTSZ
 40
0.0
  9
$DIMTOL
 70
     0
  9
$DIMLIM
 70
     0
  9
$DIMTIH
 70
     0
  9
$DIMTOH
 70
     0
  9
$DIMSE1
 70
     0
  9
$DIMSE2
 70
     0
  9
$DIMTAD
 70
     1
  9
$DIMZIN
 70
     8
  9
$DIMBLK
  1

  9
$DIMASO
 70
     1
  9
$DIMSHO
 70
     1
  9
$DIMPOST
  1

  9
$DIMAPOST
  1

  9
$DIMALT
 70
     0
  9
$DIMALTD
 70
     3
  9
$DIMALTF
 40
0.03937007874016
  9
$DIMLFAC
 40
1.0
  9
$DIMTOFL
 70
     1
  9
$DIMTVP
 40
0.0
  9
$DIMTIX
 70
     0
  9
$DIMSOXD
 70
     0
  9
$DIMSAH
 70
     0
  9
$DIMBLK1
  1

  9
$DIMBLK2
  1

  9
$DIMSTYLE
  2
ISO-25
  9
$DIMCLRD
 70
     0
  9
$DIMCLRE
 70
     0
  9
$DIMCLRT
 70
     0
  9
$DIMTFAC
 40
1.0
  9
$DIMGAP
 40
0.625
  9
$DIMJUST
 70
     0
  9
$DIMSD1
 70
     0
  9
$DIMSD2
 70
     0
  9
$DIMTOLJ
 70
     0
  9
$DIMTZIN
 70
     8
  9
$DIMALTZ
 70
     0
  9
$DIMALTTZ
 70
     0
  9
$DIMUPT
 70
     0
  9
$DIMDEC
 70
     2
  9
$DIMTDEC
 70
     2
  9
$DIMALTU
 70
     2
  9
$DIMALTTD
 70
     3
  9
$DIMTXSTY
  7
Standard
  9
$DIMAUNIT
 70
     0
  9
$DIMADEC
 70
     0
  9
$DIMALTRND
 40
0.0
  9
$DIMAZIN
 70
     0
  9
$DIMDSEP
 70
    44
  9
$DIMATFIT
 70
     3
  9
$DIMFRAC
 70
     0
  9
$DIMLDRBLK
  1

  9
$DIMLUNIT
 70
     2
  9
$DIMLWD
 70
    -2
  9
$DIMLWE
 70
    -2
  9
$DIMTMOVE
 70
     0
  9
$LUNITS
 70
     2
  9
$LUPREC
 70
     4
  9
$SKETCHINC
 40
1.0
  9
$FILLETRAD
 40
10.0
  9
$AUNITS
 70
     0
  9
$AUPREC
 70
     0
  9
$MENU
  1
.
  9
$ELEVATION
 40
0.0
  9
$PELEVATION
 40
0.0
  9
$THICKNESS
 40
0.0
  9
$LIMCHECK
 70
     0
  9
$CHAMFERA
 40
10.0
  9
$CHAMFERB
 40
10.0
  9
$CHAMFERC
 40
20.0
  9
$CHAMFERD
 40
0.0
  9
$SKPOLY
 70
     0
  9
$TDCREATE
 40
2453883.005133056
  9
$TDUCREATE
 40
2453882.921799722
  9
$TDUPDATE
 40
2453883.025570335
  9
$TDUUPDATE
 40
2453882.942237002
  9
$TDINDWG
 40
0.0204372801
  9
$TDUSRTIMER
 40
0.0204372801
  9
$USRTIMER
 70
     1
  9
$ANGBASE
 50
0.0
  9
$ANGDIR
 70
     0
  9
$PDMODE
 70
     0
  9
$PDSIZE
 40
0.0
  9
$PLINEWID
 40
0.0
  9
$SPLFRAME
 70
     0
  9
$SPLINETYPE
 70
     6
  9
$SPLINESEGS
 70
     8
  9
$HANDSEED
  5
2E4
  9
$SURFTAB1
 70
     6
  9
$SURFTAB2
 70
     6
  9
$SURFTYPE
 70
     6
  9
$SURFU
 70
     6
  9
$SURFV
 70
     6
  9
$UCSBASE
  2

  9
$UCSNAME
  2

  9
$UCSORG
 10
0.0
 20
0.0
 30
0.0
  9
$UCSXDIR
 10
1.0
 20
0.0
 30
0.0
  9
$UCSYDIR
 10
0.0
 20
1.0
 30
0.0
  9
$UCSORTHOREF
  2

  9
$UCSORTHOVIEW
 70
     0
  9
$UCSORGTOP
 10
0.0
 20
0.0
 30
0.0
  9
$UCSORGBOTTOM
 10
0.0
 20
0.0
 30
0.0
  9
$UCSORGLEFT
 10
0.0
 20
0.0
 30
0.0
  9
$UCSORGRIGHT
 10
0.0
 20
0.0
 30
0.0
  9
$UCSORGFRONT
 10
0.0
 20
0.0
 30
0.0
  9
$UCSORGBACK
 10
0.0
 20
0.0
 30
0.0
  9
$PUCSBASE
  2

  9
$PUCSNAME
  2

  9
$PUCSORG
 10
0.0
 20
0.0
 30
0.0
  9
$PUCSXDIR
 10
1.0
 20
0.0
 30
0.0
  9
$PUCSYDIR
 10
0.0
 20
1.0
 30
0.0
  9
$PUCSORTHOREF
  2

  9
$PUCSORTHOVIEW
 70
     0
  9
$PUCSORGTOP
 10
0.0
 20
0.0
 30
0.0
  9
$PUCSORGBOTTOM
 10
0.0
 20
0.0
 30
0.0
  9
$PUCSORGLEFT
 10
0.0
 20
0.0
 30
0.0
  9
$PUCSORGRIGHT
 10
0.0
 20
0.0
 30
0.0
  9
$PUCSORGFRONT
 10
0.0
 20
0.0
 30
0.0
  9
$PUCSORGBACK
 10
0.0
 20
0.0
 30
0.0
  9
$USERI1
 70
     0
  9
$USERI2
 70
     0
  9
$USERI3
 70
     0
  9
$USERI4
 70
     0
  9
$USERI5
 70
     0
  9
$USERR1
 40
0.0
  9
$USERR2
 40
0.0
  9
$USERR3
 40
0.0
  9
$USERR4
 40
0.0
  9
$USERR5
 40
0.0
  9
$WORLDVIEW
 70
     1
  9
$SHADEDGE
 70
     3
  9
$SHADEDIF
 70
    70
  9
$TILEMODE
 70
     1
  9
$MAXACTVP
 70
    64
  9
$PINSBASE
 10
0.0
 20
0.0
 30
0.0
  9
$PLIMCHECK
 70
     0
  9
$PEXTMIN
 10
1.000000000000000E+20
 20
1.000000000000000E+20
 30
1.000000000000000E+20
  9
$PEXTMAX
 10
-1.000000000000000E+20
 20
-1.000000000000000E+20
 30
-1.000000000000000E+20
  9
$PLIMMIN
 10
0.0
 20
0.0
  9
$PLIMMAX
 10
420.0
 20
297.0
  9
$UNITMODE
 70
     0
  9
$VISRETAIN
 70
     1
  9
$PLINEGEN
 70
     0
  9
$PSLTSCALE
 70
     1
  9
$TREEDEPTH
 70
  3020
  9
$CMLSTYLE
  2
Standard
  9
$CMLJUST
 70
     0
  9
$CMLSCALE
 40
20.0
  9
$PROXYGRAPHICS
 70
     1
  9
$MEASUREMENT
 70
     1
  9
$CELWEIGHT
370
    -1
  9
$ENDCAPS
280
     0
  9
$JOINSTYLE
280
     0
  9
$LWDISPLAY
290
     0
  9
$INSUNITS
 70
     4
  9
$HYPERLINKBASE
  1

  9
$STYLESHEET
  1

  9
$XEDIT
290
     1
  9
$CEPSNTYPE
380
     0
  9
$PSTYLEMODE
290
     1
  9
$FINGERPRINTGUID
  2
{B37F10D1-5D92-4496-BB6C-C6EED5401BD7}
  9
$VERSIONGUID
  2
{95EAF5F8-9A8B-486E-81A6-4A4F53B2E52B}
  9
$EXTNAMES
290
     1
  9
$PSVPSCALE
 40
0.0
  9
$OLESTARTUP
290
     0
  0
ENDSEC
  0
SECTION
  2
CLASSES
  0
CLASS
  1
ACDBDICTIONARYWDFLT
  2
AcDbDictionaryWithDefault
  3
AutoCAD 2000
 90
        0
280
     0
281
     0
  0
CLASS
  1
ACDBPLACEHOLDER
  2
AcDbPlaceHolder
  3
AutoCAD 2000
 90
        0
280
     0
281
     0
  0
CLASS
  1
LAYOUT
  2
AcDbLayout
  3
AutoCAD 2000
 90
        0
280
     0
281
     0
  0
ENDSEC
  0
SECTION
  2
TABLES
  0
TABLE
  2
VPORT
  5
8
330
0
100
AcDbSymbolTable
 70
     3
  0
VPORT
  5
2E3
330
8
100
AcDbSymbolTableRecord
100
AcDbViewportTableRecord
  2
*Active
 70
     0
 10
0.0
 20
0.0
 11
1.0
 21
1.0
 12
705.4424431666931
 22
316.2373633547574
 13
0.0
 23
0.0
 14
10.0
 24
10.0
 15
10.0
 25
10.0
 16
0.0
 26
0.0
 36
1.0
 17
0.0
 27
0.0
 37
0.0
 40
923.6967005987652
 41
1.762081784386617
 42
50.0
 43
0.0
 44
0.0
 50
0.0
 51
0.0
 71
     0
 72
   100
 73
     1
 74
     3
 75
     0
 76
     0
 77
     0
 78
     0
281
     0
 65
     1
110
0.0
120
0.0
130
0.0
111
1.0
121
0.0
131
0.0
112
0.0
122
1.0
132
0.0
 79
     0
146
0.0
  0
ENDTAB
  0
TABLE
  2
LTYPE
  5
5
330
0
100
AcDbSymbolTable
 70
     1
  0
LTYPE
  5
14
330
5
100
AcDbSymbolTableRecord
100
AcDbLinetypeTableRecord
  2
ByBlock
 70
     0
  3

 72
    65
 73
     0
 40
0.0
  0
LTYPE
  5
15
330
5
100
AcDbSymbolTableRecord
100
AcDbLinetypeTableRecord
  2
ByLayer
 70
     0
  3

 72
    65
 73
     0
 40
0.0
  0
LTYPE
  5
16
330
5
100
AcDbSymbolTableRecord
100
AcDbLinetypeTableRecord
  2
Continuous
 70
     0
  3
Solid line
 72
    65
 73
     0
 40
0.0
  0
ENDTAB
  0
TABLE
  2
LAYER
  5
2
330
0
100
AcDbSymbolTable
 70
     1
  0
LAYER
  5
10
330
2
100
AcDbSymbolTableRecord
100
AcDbLayerTableRecord
  2
0
 70
     0
 62
     7
  6
Continuous
370
    -3
390
F
  0
ENDTAB
  0
TABLE
  2
STYLE
  5
3
330
0
100
AcDbSymbolTable
 70
     1
  0
STYLE
  5
11
330
3
100
AcDbSymbolTableRecord
100
AcDbTextStyleTableRecord
  2
Standard
 70
     0
 40
0.0
 41
1.0
 50
0.0
 71
     0
 42
2.5
  3
txt
  4

  0
ENDTAB
  0
TABLE
  2
VIEW
  5
6
330
0
100
AcDbSymbolTable
 70
     0
  0
ENDTAB
  0
TABLE
  2
UCS
  5
7
330
0
100
AcDbSymbolTable
 70
     0
  0
ENDTAB
  0
TABLE
  2
APPID
  5
9
330
0
100
AcDbSymbolTable
 70
     1
  0
APPID
  5
12
330
9
100
AcDbSymbolTableRecord
100
AcDbRegAppTableRecord
  2
ACAD
 70
     0
  0
ENDTAB
  0
TABLE
  2
DIMSTYLE
  5
A
330
0
100
AcDbSymbolTable
 70
     1
100
AcDbDimStyleTable
 71
     0
  0
DIMSTYLE
105
27
330
A
100
AcDbSymbolTableRecord
100
AcDbDimStyleTableRecord
  2
ISO-25
 70
     0
 41
2.5
 42
0.625
 43
3.75
 44
1.25
 73
     0
 74
     0
 77
     1
 78
     8
140
2.5
141
2.5
143
0.03937007874016
147
0.625
171
     3
172
     1
271
     2
272
     2
274
     3
278
    44
283
     0
284
     8
340
11
  0
ENDTAB
  0
TABLE
  2
BLOCK_RECORD
  5
1
330
0
100
AcDbSymbolTable
 70
     2
  0
BLOCK_RECORD
  5
1F
330
1
100
AcDbSymbolTableRecord
100
AcDbBlockTableRecord
  2
*Model_Space
340
22
  0
BLOCK_RECORD
  5
1B
330
1
100
AcDbSymbolTableRecord
100
AcDbBlockTableRecord
  2
*Paper_Space
340
1E
  0
BLOCK_RECORD
  5
23
330
1
100
AcDbSymbolTableRecord
100
AcDbBlockTableRecord
  2
*Paper_Space0
340
26
  0
ENDTAB
  0
ENDSEC
  0
SECTION
  2
BLOCKS
  0
BLOCK
  5
20
330
1F
100
AcDbEntity
  8
0
100
AcDbBlockBegin
  2
*Model_Space
 70
     0
 10
0.0
 20
0.0
 30
0.0
  3
*Model_Space
  1

  0
ENDBLK
  5
21
330
1F
100
AcDbEntity
  8
0
100
AcDbBlockEnd
  0
BLOCK
  5
1C
330
1B
100
AcDbEntity
 67
     1
  8
0
100
AcDbBlockBegin
  2
*Paper_Space
 70
     0
 10
0.0
 20
0.0
 30
0.0
  3
*Paper_Space
  1

  0
ENDBLK
  5
1D
330
1B
100
AcDbEntity
 67
     1
  8
0
100
AcDbBlockEnd
  0
BLOCK
  5
24
330
23
100
AcDbEntity
  8
0
100
AcDbBlockBegin
  2
*Paper_Space0
 70
     0
 10
0.0
 20
0.0
 30
0.0
  3
*Paper_Space0
  1

  0
ENDBLK
  5
25
330
23
100
AcDbEntity
  8
0
100
AcDbBlockEnd
  0
ENDSEC
  0
SECTION
  2
ENTITIES
  0
LINE
  5
189
330
1F
100
AcDbEntity
  8
0
100
AcDbLine
 10
802.7681938840144
 20
202.0216498206558
 30
0.0
 11
802.7681938840144
 21
94.02164982065585
 31
0.0
  0
LINE
  5
18A
330
1F
100
AcDbEntity
  8
0
100
AcDbLine
 10
181.7681938840146
 20
94.02164982065597
 30
0.0
 11
181.7681938840146
 21
668.0216498206558
 31
0.0
  0
LINE
  5
18B
330
1F
100
AcDbEntity
  8
0
100
AcDbLine
 10
1002.768193884014
 20
668.0216498206558
 30
0.0
 11
1002.768193884014
 21
94.02164982065585
 31
0.0
  0
LINE
  5
18C
330
1F
100
AcDbEntity
  8
0
100
AcDbLine
 10
171.7681938840146
 20
84.02164982065597
 30
0.0
 11
171.7681938840146
 21
678.0216498206558
 31
0.0
  0
LINE
  5
18D
330
1F
100
AcDbEntity
  8
0
100
AcDbLine
 10
1012.768193884014
 20
678.0216498206558
 30
0.0
 11
1012.768193884014
 21
84.02164982065585
 31
0.0
  0
LINE
  5
18E
330
1F
100
AcDbEntity
  8
0
100
AcDbLine
 10
1002.768193884014
 20
94.02164982065585
 30
0.0
 11
181.7681938840146
 21
94.02164982065608
 31
0.0
  0
LINE
  5
18F
330
1F
100
AcDbEntity
  8
0
100
AcDbLine
 10
1012.768193884014
 20
84.02164982065585
 30
0.0
 11
171.7681938840146
 21
84.02164982065597
 31
0.0
  0
LINE
  5
190
330
1F
100
AcDbEntity
  8
0
100
AcDbLine
 10
479.1345774644803
 20
281.9266213632478
 30
0.0
 11
638.2946352199187
 21
296.3627451359185
 31
0.0
  0
LINE
  5
191
330
1F
100
AcDbEntity
  8
0
100
AcDbLine
 10
686.1043331774469
 20
524.830845688213
 30
0.0
 11
375.4243331774469
 21
519.7558456882131
 31
0.0
  0
LINE
  5
192
330
1F
100
AcDbEntity
  8
0
100
AcDbLine
 10
375.4243331774469
 20
576.125845688213
 30
0.0
 11
686.1043331774469
 21
571.0508456882131
 31
0.0
  0
LINE
  5
193
330
1F
100
AcDbEntity
  8
0
100
AcDbLine
 10
451.0068629398411
 20
489.2516052848815
 30
0.0
 11
803.9368629398412
 21
483.4816052848815
 31
0.0
  0
LINE
  5
194
330
1F
100
AcDbEntity
  8
0
100
AcDbLine
 10
451.0068629398411
 20
431.4916052848815
 30
0.0
 11
803.9368629398412
 21
437.2616052848814
 31
0.0
  0
LINE
  5
195
330
1F
100
AcDbEntity
  8
0
100
AcDbLine
 10
766.833605048768
 20
342.7811815056733
 30
0.0
 11
407.0989768531084
 21
336.8889289071861
 31
0.0
  0
LINE
  5
196
330
1F
100
AcDbEntity
  8
0
100
AcDbLine
 10
407.1481085899137
 20
333.8893312554263
 30
0.0
 11
766.8827367855535
 21
339.7815838539144
 31
0.0
  0
LINE
  5
197
330
1F
100
AcDbEntity
  8
0
100
AcDbLine
 10
766.833605048768
 20
388.9974810051793
 30
0.0
 11
407.0989768531084
 21
394.8897336036669
 31
0.0
  0
LINE
  5
198
330
1F
100
AcDbEntity
  8
0
100
AcDbLine
 10
407.1481085899137
 20
397.8893312554263
 30
0.0
 11
766.8827367855535
 21
391.9970786569387
 31
0.0
  0
LINE
  5
199
330
1F
100
AcDbEntity
  8
0
100
AcDbLine
 10
638.4893712734847
 20
299.3564181089469
 30
0.0
 11
478.4893712734847
 21
284.8564181089469
 31
0.0
  0
LINE
  5
19A
330
1F
100
AcDbEntity
  8
0
100
AcDbLine
 10
613.5246891488816
 20
271.6095816224327
 30
0.0
 11
624.1574205762904
 21
274.4507264007251
 31
0.0
  0
LINE
  5
19B
330
1F
100
AcDbEntity
  8
0
100
AcDbLine
 10
602.963546095925
 20
246.8564181089467
 30
0.0
 11
622.963546095925
 21
246.8564181089467
 31
0.0
  0
LINE
  5
19C
330
1F
100
AcDbEntity
  8
0
100
AcDbLine
 10
602.963546095925
 20
243.8564181089467
 30
0.0
 11
622.963546095925
 21
243.8564181089467
 31
0.0
  0
LINE
  5
19D
330
1F
100
AcDbEntity
  8
0
100
AcDbLine
 10
636.1740338782822
 20
298.4847842377847
 30
0.0
 11
586.634141736208
 21
248.9784572108131
 31
0.0
  0
LINE
  5
19E
330
1F
100
AcDbEntity
  8
0
100
AcDbLine
 10
588.7547430778445
 20
246.8564181089469
 30
0.0
 11
638.2946352199187
 21
296.3627451359185
 31
0.0
  0
ARC
  5
19F
330
1F
100
AcDbEntity
  8
0
100
AcDbCircle
 10
588.1431448584046
 20
148.8183677944895
 30
0.0
 40
171.5054886623451
100
AcDbArc
 50
69.39876778683696
 51
105.7847993309286
  0
LINE
  5
1A0
330
1F
100
AcDbEntity
  8
0
100
AcDbLine
 10
595.8517430710399
 20
219.8043409233811
 30
0.0
 11
948.4893712734846
 21
237.5216723459076
 31
0.0
  0
LINE
  5
1A1
330
1F
100
AcDbEntity
  8
0
100
AcDbLine
 10
948.4893712734846
 20
234.5216723459076
 30
0.0
 11
596.0023122257398
 21
216.8081218176327
 31
0.0
  0
LINE
  5
1A2
330
1F
100
AcDbEntity
  8
0
100
AcDbLine
 10
181.7681938840146
 20
668.0216498206558
 30
0.0
 11
1002.768193884014
 21
668.0216498206558
 31
0.0
  0
LINE
  5
1A3
330
1F
100
AcDbEntity
  8
0
100
AcDbLine
 10
171.7681938840146
 20
678.0216498206558
 30
0.0
 11
1012.768193884014
 21
678.0216498206558
 31
0.0
  0
CIRCLE
  5
1A4
330
1F
100
AcDbEntity
  8
0
100
AcDbCircle
 10
524.4970701598517
 20
464.4545944415584
 30
0.0
 40
8.0
  0
CIRCLE
  5
1A5
330
1F
100
AcDbEntity
  8
0
100
AcDbCircle
 10
248.1600928649454
 20
460.1765421747457
 30
0.0
 40
8.0
  0
MTEXT
  5
1A6
330
1F
100
AcDbEntity
  8
0
100
AcDbMText
 10
245.188215379781
 20
463.9003430686233
 30
0.0
 40
8.0
 41
21.9613
 71
     1
 72
     5
  1
3
 73
     1
 44
1.0
  0
LINE
  5
1A7
330
1F
100
AcDbEntity
  8
0
100
AcDbLine
 10
233.8571372632995
 20
446.7496364856826
 30
0.0
 11
233.8571372632995
 21
469.8796364856827
 31
0.0
  0
LINE
  5
1A8
330
1F
100
AcDbEntity
  8
0
100
AcDbLine
 10
277.4115372632995
 20
478.7046364856824
 30
0.0
 11
277.4115372632995
 21
437.9246364856824
 31
0.0
  0
LINE
  5
1A9
330
1F
100
AcDbEntity
  8
0
100
AcDbLine
 10
451.0068629398411
 20
489.2516052848815
 30
0.0
 11
451.0068629398411
 21
431.4916052848815
 31
0.0
  0
ARC
  5
1AA
330
1F
100
AcDbEntity
  8
0
100
AcDbCircle
 10
369.9489153117026
 20
730.7466250424523
 30
0.0
 40
608.220243639163
100
AcDbArc
 50
256.2283751618952
 51
270.7612867340301
  0
ARC
  5
1AB
330
1F
100
AcDbEntity
  8
0
100
AcDbCircle
 10
369.9489153117026
 20
-427.5939864579176
 30
0.0
 40
608.220243639163
100
AcDbArc
 50
89.23871326596993
 51
103.7716248381047
  0
ARC
  5
1AC
330
1F
100
AcDbEntity
  8
0
100
AcDbCircle
 10
303.4593144996938
 20
-338.0218021097295
 30
0.0
 40
608.220243639163
100
AcDbArc
 50
89.2531519630665
 51
99.74489048123045
  0
ARC
  5
1AD
330
1F
100
AcDbEntity
  8
0
100
AcDbCircle
 10
303.4593144996938
 20
820.0901182049596
 30
0.0
 40
608.220243639163
100
AcDbArc
 50
260.2569248079376
 51
270.7468480369334
  0
ARC
  5
1AE
330
1F
100
AcDbEntity
  8
0
100
AcDbCircle
 10
399.1710764842287
 20
945.0575018935122
 30
0.0
 40
608.220243639163
100
AcDbArc
 50
256.2283751618952
 51
270.7468480369334
  0
ARC
  5
1AF
330
1F
100
AcDbEntity
  8
0
100
AcDbCircle
 10
399.1710764842287
 20
-213.2788393826593
 30
0.0
 40
608.220243639163
100
AcDbArc
 50
89.2531519630665
 51
103.7716248381047
  0
ARC
  5
1B0
330
1F
100
AcDbEntity
  8
0
100
AcDbCircle
 10
399.2202082210421
 20
942.057904241752
 30
0.0
 40
608.220243639163
100
AcDbArc
 50
251.3164923676387
 51
270.7468480369334
  0
ARC
  5
1B1
330
1F
100
AcDbEntity
  8
0
100
AcDbCircle
 10
399.2202082210421
 20
-210.2792417308991
 30
0.0
 40
608.220243639163
100
AcDbArc
 50
89.2531519630665
 51
108.6835076323612
  0
LINE
  5
1B2
330
1F
100
AcDbEntity
  8
0
100
AcDbLine
 10
225.1605756129618
 20
140.0113192922673
 30
0.0
 11
225.1605756129618
 21
163.1413192922674
 31
0.0
  0
CIRCLE
  5
1B3
330
1F
100
AcDbEntity
  8
0
100
AcDbCircle
 10
282.6713561741885
 20
156.656141945601
 30
0.0
 40
8.0
  0
MTEXT
  5
1B4
330
1F
100
AcDbEntity
  8
0
100
AcDbMText
 10
279.8639803806632
 20
160.1534011805787
 30
0.0
 40
8.0
 41
48.5461
 71
     1
 72
     5
  1
5
 73
     1
 44
1.0
  0
LINE
  5
1B5
330
1F
100
AcDbEntity
  8
0
100
AcDbLine
 10
200.5109748010104
 20
261.422527353622
 30
0.0
 11
200.5109748010104
 21
220.6425273536223
 31
0.0
  0
CIRCLE
  5
1B6
330
1F
100
AcDbEntity
  8
0
100
AcDbCircle
 10
231.1896690300541
 20
244.0590962726954
 30
0.0
 40
8.0
  0
MTEXT
  5
1B7
330
1F
100
AcDbEntity
  8
0
100
AcDbMText
 10
227.8503328793408
 20
247.9281801821506
 30
0.0
 40
8.0
 41
57.7929
 71
     1
 72
     5
  1
4
 73
     1
 44
1.0
  0
LINE
  5
1B8
330
1F
100
AcDbEntity
  8
0
100
AcDbLine
 10
260.3827367855308
 20
378.8948357635448
 30
0.0
 11
260.3827367855308
 21
352.8838267473082
 31
0.0
  0
LINE
  5
1B9
330
1F
100
AcDbEntity
  8
0
100
AcDbLine
 10
254.3827367855308
 20
380.4440197381662
 30
0.0
 11
254.3827367855306
 21
351.3346427726864
 31
0.0
  0
ARC
  5
1BA
330
1F
100
AcDbEntity
  8
0
100
AcDbCircle
 10
317.7218717323839
 20
748.7604012199985
 30
0.0
 40
313.4386633824492
100
AcDbArc
 50
254.4806699475468
 51
262.6109096275982
  0
ARC
  5
1BB
330
1F
100
AcDbEntity
  8
0
100
AcDbCircle
 10
524.1669534217662
 20
-23.73268125917764
 30
0.0
 40
308.9587742142725
100
AcDbArc
 50
98.38101884045689
 51
106.5829047185626
  0
ARC
  5
1BC
330
1F
100
AcDbEntity
  8
0
100
AcDbCircle
 10
523.521747230785
 20
-20.80288451347621
 30
0.0
 40
308.9587742142725
100
AcDbArc
 50
98.38101884045689
 51
106.4581003434198
  0
MTEXT
  5
1BD
330
1F
100
AcDbEntity
  8
0
100
AcDbMText
 10
446.5697391909639
 20
262.8875501815026
 30
0.0
 40
8.0
 41
47.3862
 71
     1
 72
     5
  1
A-A
 73
     1
 44
1.0
  0
ARC
  5
1BE
330
1F
100
AcDbEntity
  8
0
100
AcDbCircle
 10
479.0601951388989
 20
613.7669354049993
 30
0.0
 40
366.910961327598
100
AcDbArc
 50
263.2586383933646
 51
269.910861721307
  0
ARC
  5
1BF
330
1F
100
AcDbEntity
  8
0
100
AcDbCircle
 10
479.0601951389184
 20
610.7669354049993
 30
0.0
 40
366.910961327598
100
AcDbArc
 50
263.2586383933646
 51
269.910861721307
  0
LINE
  5
1C0
330
1F
100
AcDbEntity
  8
0
100
AcDbLine
 10
378.0300756129618
 20
122.5763192922673
 30
0.0
 11
378.0300756129618
 21
151.5763192922673
 31
0.0
  0
LINE
  5
1C1
330
1F
100
AcDbEntity
  8
0
100
AcDbLine
 10
378.0300756129618
 20
180.5763192922673
 30
0.0
 11
378.0300756129618
 21
151.5763192922673
 31
0.0
  0
LINE
  5
1C2
330
1F
100
AcDbEntity
  8
0
100
AcDbLine
 10
361.1709748010103
 20
269.3313406515566
 30
0.0
 11
361.17097480101
 21
212.7369754436739
 31
0.0
  0
LINE
  5
1C3
330
1F
100
AcDbEntity
  8
0
100
AcDbLine
 10
361.17097480101
 20
212.7369754436739
 30
0.0
 11
311.3872148685736
 21
211.9215452186334
 31
0.0
  0
LINE
  5
1C4
330
1F
100
AcDbEntity
  8
0
100
AcDbLine
 10
361.1709748010103
 20
269.3313406515566
 30
0.0
 11
311.3872148685736
 21
270.1467708765966
 31
0.0
  0
ARC
  5
1C5
330
1F
100
AcDbEntity
  8
0
100
AcDbCircle
 10
523.5217472307847
 20
-20.80288451347621
 30
0.0
 40
308.9587742142725
100
AcDbArc
 50
106.4581003434198
 51
116.4328072257331
  0
ARC
  5
1C6
330
1F
100
AcDbEntity
  8
0
100
AcDbCircle
 10
479.0601951389183
 20
610.7669354049993
 30
0.0
 40
366.910961327598
100
AcDbArc
 50
255.305771058788
 51
263.2586383933646
  0
LINE
  5
1C7
330
1F
100
AcDbEntity
  8
0
100
AcDbLine
 10
435.9893712734615
 20
246.3927353387858
 30
0.0
 11
435.9893712734615
 21
275.496975971222
 31
0.0
  0
LINE
  5
1C8
330
1F
100
AcDbEntity
  8
0
100
AcDbLine
 10
441.9893712734618
 20
274.0967483750415
 30
0.0
 11
441.9893712734618
 21
248.7335019221474
 31
0.0
  0
LINE
  5
1C9
330
1F
100
AcDbEntity
  8
0
100
AcDbLine
 10
435.9893712734617
 20
246.3927353387861
 30
0.0
 11
435.9893712734617
 21
275.4969759712222
 31
0.0
  0
LINE
  5
1CA
330
1F
100
AcDbEntity
  8
0
100
AcDbLine
 10
441.9893712734618
 20
261.4151251485945
 30
0.0
 11
446.5697391909639
 21
261.4151251485945
 31
0.0
  0
CIRCLE
  5
1CB
330
1F
100
AcDbEntity
  8
0
100
AcDbCircle
 10
441.9893712734618
 20
261.4151251485945
 30
0.0
 40
0.5
  0
LINE
  5
1CC
330
1F
100
AcDbEntity
  8
0
100
AcDbLine
 10
522.3733942773799
 20
157.882172088891
 30
0.0
 11
522.3733942773799
 21
134.902172088891
 31
0.0
  0
LINE
  5
1CD
330
1F
100
AcDbEntity
  8
0
100
AcDbLine
 10
516.3733942773799
 20
140.9021720888907
 30
0.0
 11
516.3733942773799
 21
134.9021720888907
 31
0.0
  0
LINE
  5
1CE
330
1F
100
AcDbEntity
  8
0
100
AcDbLine
 10
505.2433942773798
 20
140.9021720888907
 30
0.0
 11
505.2433942773798
 21
134.9021720888907
 31
0.0
  0
LINE
  5
1CF
330
1F
100
AcDbEntity
  8
0
100
AcDbLine
 10
499.2433942773798
 20
134.902172088891
 30
0.0
 11
499.2433942773798
 21
157.8821720888912
 31
0.0
  0
LINE
  5
1D0
330
1F
100
AcDbEntity
  8
0
100
AcDbLine
 10
522.3733942773799
 20
134.902172088891
 30
0.0
 11
499.2433942773798
 21
134.902172088891
 31
0.0
  0
MTEXT
  5
1D1
330
1F
100
AcDbEntity
  8
0
100
AcDbMText
 10
477.9745387311254
 20
174.5221819397573
 30
0.0
 40
8.0
 41
47.3862
 71
     1
 72
     5
  1
A-A
 73
     1
 44
1.0
  0
LINE
  5
1D2
330
1F
100
AcDbEntity
  8
0
100
AcDbLine
 10
499.2433942773798
 20
157.8821720888912
 30
0.0
 11
522.3733942773799
 21
157.8821720888912
 31
0.0
  0
LINE
  5
1D3
330
1F
100
AcDbEntity
  8
0
100
AcDbLine
 10
505.2433942773798
 20
151.8821720888912
 30
0.0
 11
505.2433942773798
 21
157.8821720888912
 31
0.0
  0
LINE
  5
1D4
330
1F
100
AcDbEntity
  8
0
100
AcDbLine
 10
499.2433942773798
 20
151.8821720888912
 30
0.0
 11
505.2433942773798
 21
151.8821720888912
 31
0.0
  0
LINE
  5
1D5
330
1F
100
AcDbEntity
  8
0
100
AcDbLine
 10
499.2433942773798
 20
140.9021720888907
 30
0.0
 11
505.2433942773798
 21
140.9021720888907
 31
0.0
  0
LINE
  5
1D6
330
1F
100
AcDbEntity
  8
0
100
AcDbLine
 10
516.3733942773799
 20
151.8821720888912
 30
0.0
 11
516.3733942773799
 21
157.8821720888912
 31
0.0
  0
LINE
  5
1D7
330
1F
100
AcDbEntity
  8
0
100
AcDbLine
 10
522.3733942773799
 20
140.9021720888907
 30
0.0
 11
516.3733942773799
 21
140.9021720888907
 31
0.0
  0
LINE
  5
1D8
330
1F
100
AcDbEntity
  8
0
100
AcDbLine
 10
522.3733942773799
 20
151.8821720888912
 30
0.0
 11
516.3733942773799
 21
151.8821720888912
 31
0.0
  0
CIRCLE
  5
1D9
330
1F
100
AcDbEntity
  8
0
100
AcDbCircle
 10
583.8931242083349
 20
150.7589300558005
 30
0.0
 40
21.0
  0
LINE
  5
1DA
330
1F
100
AcDbEntity
  8
0
100
AcDbLine
 10
612.0781242083348
 20
185.7789300558005
 30
0.0
 11
612.8931242083349
 21
115.7389300558005
 31
0.0
  0
LINE
  5
1DB
330
1F
100
AcDbEntity
  8
0
100
AcDbLine
 10
555.7081242083349
 20
185.7789300558005
 30
0.0
 11
554.8931242083349
 21
115.7389300558005
 31
0.0
  0
LINE
  5
1DC
330
1F
100
AcDbEntity
  8
0
100
AcDbLine
 10
554.8931242083349
 20
115.7389300558005
 30
0.0
 11
583.8931242083349
 21
115.7389300558005
 31
0.0
  0
LINE
  5
1DD
330
1F
100
AcDbEntity
  8
0
100
AcDbLine
 10
560.9629367294278
 20
121.7385238930447
 30
0.0
 11
560.9629367294278
 21
115.7389300558005
 31
0.0
  0
LINE
  5
1DE
330
1F
100
AcDbEntity
  8
0
100
AcDbLine
 10
554.9629367294278
 20
121.7385238930447
 30
0.0
 11
560.9629367294278
 21
121.7385238930447
 31
0.0
  0
LINE
  5
1DF
330
1F
100
AcDbEntity
  8
0
100
AcDbLine
 10
606.823311687242
 20
121.7385238930445
 30
0.0
 11
606.823311687242
 21
115.7389300558005
 31
0.0
  0
LINE
  5
1E0
330
1F
100
AcDbEntity
  8
0
100
AcDbLine
 10
612.8931242083349
 20
115.7389300558005
 30
0.0
 11
583.8931242083349
 21
115.7389300558005
 31
0.0
  0
LINE
  5
1E1
330
1F
100
AcDbEntity
  8
0
100
AcDbLine
 10
612.823311687242
 20
121.7385238930445
 30
0.0
 11
606.823311687242
 21
121.7385238930445
 31
0.0
  0
LINE
  5
1E2
330
1F
100
AcDbEntity
  8
0
100
AcDbLine
 10
555.7081242083349
 20
185.7789300558005
 30
0.0
 11
612.0781242083348
 21
185.7789300558005
 31
0.0
  0
LINE
  5
1E3
330
1F
100
AcDbEntity
  8
0
100
AcDbLine
 10
555.6383116872421
 20
179.7793362185563
 30
0.0
 11
561.638311687242
 21
179.7793362185563
 31
0.0
  0
LINE
  5
1E4
330
1F
100
AcDbEntity
  8
0
100
AcDbLine
 10
561.638311687242
 20
179.7793362185563
 30
0.0
 11
561.638311687242
 21
185.7789300558005
 31
0.0
  0
LINE
  5
1E5
330
1F
100
AcDbEntity
  8
0
100
AcDbLine
 10
606.1479367294277
 20
179.7793362185563
 30
0.0
 11
606.1479367294277
 21
185.7789300558005
 31
0.0
  0
LINE
  5
1E6
330
1F
100
AcDbEntity
  8
0
100
AcDbLine
 10
612.1479367294277
 20
179.7793362185563
 30
0.0
 11
606.1479367294277
 21
179.7793362185563
 31
0.0
  0
LINE
  5
1E7
330
1F
100
AcDbEntity
  8
0
100
AcDbLine
 10
478.4893712734961
 20
246.8564181089469
 30
0.0
 11
588.7547430778445
 21
246.8564181089469
 31
0.0
  0
LINE
  5
1E8
330
1F
100
AcDbEntity
  8
0
100
AcDbLine
 10
588.7547430778445
 20
243.8564181089469
 30
0.0
 11
478.4893712734847
 21
243.8564181089469
 31
0.0
  0
CIRCLE
  5
1E9
330
1F
100
AcDbEntity
  8
0
100
AcDbCircle
 10
477.1639010162157
 20
233.1654010460578
 30
0.0
 40
8.0
  0
MTEXT
  5
1EA
330
1F
100
AcDbEntity
  8
0
100
AcDbMText
 10
474.5319528056493
 20
236.8560162719912
 30
0.0
 40
8.0
 41
48.5461
 71
     1
 72
     5
  1
5
 73
     1
 44
1.0
  0
CIRCLE
  5
1EB
330
1F
100
AcDbEntity
  8
0
100
AcDbCircle
 10
478.8381646248486
 20
245.0909447996536
 30
0.0
 40
0.5
  0
LINE
  5
1EC
330
1F
100
AcDbEntity
  8
0
100
AcDbLine
 10
478.8381646248486
 20
245.0909447996536
 30
0.0
 11
477.8713064798444
 21
239.6809102059068
 31
0.0
  0
CIRCLE
  5
1ED
330
1F
100
AcDbEntity
  8
0
100
AcDbCircle
 10
521.2547430778445
 20
265.3564181089469
 30
0.0
 40
5.0
  0
CIRCLE
  5
1EE
330
1F
100
AcDbEntity
  8
0
100
AcDbCircle
 10
521.2547430778445
 20
265.3564181089469
 30
0.0
 40
2.5
  0
CIRCLE
  5
1EF
330
1F
100
AcDbEntity
  8
0
100
AcDbCircle
 10
521.2547430778445
 20
265.3564181089469
 30
0.0
 40
1.5
  0
LINE
  5
1F0
330
1F
100
AcDbEntity
  8
0
100
AcDbLine
 10
588.7547430778445
 20
243.8564181089469
 30
0.0
 11
596.0023122257398
 21
216.8081218176327
 31
0.0
  0
MTEXT
  5
1F1
330
1F
100
AcDbEntity
  8
0
100
AcDbMText
 10
538.1028195872045
 20
235.800480086319
 30
0.0
 40
8.0
 41
50.4743
 71
     1
 72
     5
  1
vue 1
 73
     1
 44
1.0
  0
LINE
  5
1F2
330
1F
100
AcDbEntity
  8
0
100
AcDbLine
 10
592.3785276517921
 20
230.3322699632898
 30
0.0
 11
576.8191677949658
 21
230.3322699632898
 31
0.0
  0
MTEXT
  5
1F3
330
1F
100
AcDbEntity
  8
0
100
AcDbMText
 10
548.7758606641477
 20
209.4665115013439
 30
0.0
 40
8.0
 41
51.02879999999999
 71
     1
 72
     5
  1
B-B
 73
     1
 44
1.0
  0
CIRCLE
  5
1F4
330
1F
100
AcDbEntity
  8
0
100
AcDbCircle
 10
592.3785276517921
 20
230.3322699632898
 30
0.0
 40
0.5
  0
LINE
  5
1F5
330
1F
100
AcDbEntity
  8
0
100
AcDbLine
 10
596.0023122257398
 20
216.8081218176322
 30
0.0
 11
595.8517430710399
 21
219.8043409233811
 31
0.0
  0
LINE
  5
1F6
330
1F
100
AcDbEntity
  8
0
100
AcDbLine
 10
588.7547430778445
 20
243.8564181089469
 30
0.0
 11
588.7547430778445
 21
246.8564181089469
 31
0.0
  0
LINE
  5
1F7
330
1F
100
AcDbEntity
  8
0
100
AcDbLine
 10
588.7547430778445
 20
246.8564181089469
 30
0.0
 11
586.634141736208
 21
248.9784572108131
 31
0.0
  0
LINE
  5
1F8
330
1F
100
AcDbEntity
  8
0
100
AcDbLine
 10
602.963546095925
 20
246.8564181089469
 30
0.0
 11
602.963546095925
 21
243.8564181089469
 31
0.0
  0
LINE
  5
1F9
330
1F
100
AcDbEntity
  8
0
100
AcDbLine
 10
602.963546095925
 20
243.8564181089467
 30
0.0
 11
602.963546095925
 21
246.8564181089467
 31
0.0
  0
CIRCLE
  5
1FA
330
1F
100
AcDbEntity
  8
0
100
AcDbCircle
 10
613.5246891488816
 20
271.6095816224327
 30
0.0
 40
0.5
  0
CIRCLE
  5
1FB
330
1F
100
AcDbEntity
  8
0
100
AcDbCircle
 10
451.5507729652231
 20
291.6627187041266
 30
0.0
 40
8.0
  0
LINE
  5
1FC
330
1F
100
AcDbEntity
  8
0
100
AcDbLine
 10
452.819271575639
 20
284.9898486162881
 30
0.0
 11
457.1806385558971
 21
278.3240293641018
 31
0.0
  0
LINE
  5
1FD
330
1F
100
AcDbEntity
  8
0
100
AcDbLine
 10
338.1481085899135
 20
365.8893312554263
 30
0.0
 11
338.1481085899135
 21
412.8893312554265
 31
0.0
  0
LINE
  5
1FE
330
1F
100
AcDbEntity
  8
0
100
AcDbLine
 10
341.1481085899136
 20
412.8893312554265
 30
0.0
 11
341.1481085899133
 21
365.8893312554265
 31
0.0
  0
LINE
  5
1FF
330
1F
100
AcDbEntity
  8
0
100
AcDbLine
 10
407.1481085899136
 20
365.8893312554263
 30
0.0
 11
407.1481085899136
 21
397.8893312554263
 31
0.0
  0
LINE
  5
200
330
1F
100
AcDbEntity
  8
0
100
AcDbLine
 10
414.3956777378089
 20
397.7706201144986
 30
0.0
 11
414.3956777378089
 21
334.0080423963544
 31
0.0
  0
LINE
  5
201
330
1F
100
AcDbEntity
  8
0
100
AcDbLine
 10
407.1481085899137
 20
397.8893312554263
 30
0.0
 11
407.1481085899136
 21
333.8893312554263
 31
0.0
  0
LINE
  5
202
330
1F
100
AcDbEntity
  8
0
100
AcDbLine
 10
384.5963962868347
 20
285.8848318791157
 30
0.0
 11
372.7137250788312
 21
333.4155167111295
 31
0.0
  0
LINE
  5
203
330
1F
100
AcDbEntity
  8
0
100
AcDbLine
 10
384.5963962868347
 20
285.8848318791157
 30
0.0
 11
359.5963962868347
 21
285.8848318791157
 31
0.0
  0
LINE
  5
204
330
1F
100
AcDbEntity
  8
0
100
AcDbLine
 10
309.3141376342803
 20
339.5192411085073
 30
0.0
 11
359.5963962868347
 21
285.8848318791157
 31
0.0
  0
LINE
  5
205
330
1F
100
AcDbEntity
  8
0
100
AcDbLine
 10
338.1481085899135
 20
365.8893312554267
 30
0.0
 11
338.1481085899135
 21
318.8893312554265
 31
0.0
  0
LINE
  5
206
330
1F
100
AcDbEntity
  8
0
100
AcDbLine
 10
341.1481085899136
 20
318.8893312554265
 30
0.0
 11
341.1481085899133
 21
365.8893312554265
 31
0.0
  0
LINE
  5
207
330
1F
100
AcDbEntity
  8
0
100
AcDbLine
 10
339.6481085899135
 20
318.8893312554265
 30
0.0
 11
338.1481085899135
 21
318.8893312554265
 31
0.0
  0
LINE
  5
208
330
1F
100
AcDbEntity
  8
0
100
AcDbLine
 10
339.6481085899135
 20
318.8893312554265
 30
0.0
 11
341.1481085899136
 21
318.8893312554265
 31
0.0
  0
ARC
  5
209
330
1F
100
AcDbEntity
  8
0
100
AcDbCircle
 10
399.2202082210449
 20
941.0579042417511
 30
0.0
 40
608.220243639163
100
AcDbArc
 50
261.4994861776413
 51
267.5022357834079
  0
MTEXT
  5
20A
330
1F
100
AcDbEntity
  8
0
100
AcDbMText
 10
448.975215321228
 20
295.3422206594794
 30
0.0
 40
8.0
 41
21.9613
 71
     1
 72
     5
  1
3
 73
     1
 44
1.0
  0
LINE
  5
20B
330
1F
100
AcDbEntity
  8
0
100
AcDbLine
 10
384.5963962868347
 20
445.8938306317373
 30
0.0
 11
359.5963962868347
 21
445.8938306317373
 31
0.0
  0
LINE
  5
20C
330
1F
100
AcDbEntity
  8
0
100
AcDbLine
 10
384.5963962868347
 20
445.8938306317373
 30
0.0
 11
372.7137250788312
 21
398.3631457997235
 31
0.0
  0
LINE
  5
20D
330
1F
100
AcDbEntity
  8
0
100
AcDbLine
 10
309.3141376342803
 20
392.2594214023457
 30
0.0
 11
359.5963962868347
 21
445.8938306317373
 31
0.0
  0
ARC
  5
20E
330
1F
100
AcDbEntity
  8
0
100
AcDbCircle
 10
399.2202082210449
 20
-209.2792417308982
 30
0.0
 40
608.220243639163
100
AcDbArc
 50
92.497764216592
 51
98.50051382235873
  0
LINE
  5
20F
330
1F
100
AcDbEntity
  8
0
100
AcDbLine
 10
339.6481085899135
 20
412.8893312554265
 30
0.0
 11
341.1481085899136
 21
412.8893312554265
 31
0.0
  0
LINE
  5
210
330
1F
100
AcDbEntity
  8
0
100
AcDbLine
 10
339.6481085899135
 20
412.8893312554265
 30
0.0
 11
338.1481085899135
 21
412.8893312554265
 31
0.0
  0
LINE
  5
211
330
1F
100
AcDbEntity
  8
0
100
AcDbLine
 10
541.4893712734994
 20
313.8564181089496
 30
0.0
 11
478.4893712734999
 21
284.8564181089496
 31
0.0
  0
CIRCLE
  5
212
330
1F
100
AcDbEntity
  8
0
100
AcDbCircle
 10
457.1806385558971
 20
278.3240293641018
 30
0.0
 40
0.5
  0
LINE
  5
213
330
1F
100
AcDbEntity
  8
0
100
AcDbLine
 10
478.4893712734999
 20
284.8564181089487
 30
0.0
 11
479.1345774644803
 21
281.9266213632478
 31
0.0
  0
CIRCLE
  5
214
330
1F
100
AcDbEntity
  8
0
100
AcDbCircle
 10
560.6560490017941
 20
306.6194157101807
 30
0.0
 40
8.0
  0
LINE
  5
215
330
1F
100
AcDbEntity
  8
0
100
AcDbLine
 10
562.0739703471876
 20
301.412741537102
 30
0.0
 11
561.0652748877978
 21
290.6619177214651
 31
0.0
  0
LINE
  5
216
330
1F
100
AcDbEntity
  8
0
100
AcDbLine
 10
541.4893712735
 20
313.8564181089496
 30
0.0
 11
551.9096175177085
 21
291.5101279248311
 31
0.0
  0
CIRCLE
  5
217
330
1F
100
AcDbEntity
  8
0
100
AcDbCircle
 10
561.0652748877978
 20
290.6619177214651
 30
0.0
 40
0.5
  0
MTEXT
  5
218
330
1F
100
AcDbEntity
  8
0
100
AcDbMText
 10
557.7974433072827
 20
310.9934548115724
 30
0.0
 40
8.0
 41
57.7929
 71
     1
 72
     5
  1
4
 73
     1
 44
1.0
  0
MTEXT
  5
219
330
1F
100
AcDbEntity
  8
0
100
AcDbMText
 10
204.714893822776
 20
582.684468539607
 30
0.0
 40
6.5
 41
156.3092
 71
     1
 72
     5
  1
La bulle et l'arête dorsale sont en styroform
 73
     1
 44
1.0
  0
ARC
  5
21A
330
1F
100
AcDbEntity
  8
0
100
AcDbCircle
 10
317.7218717323839
 20
167.8688717513667
 30
0.0
 40
313.4386633824492
100
AcDbArc
 50
97.38909037240176
 51
105.5193300524531
  0
MTEXT
  5
21B
330
1F
100
AcDbEntity
  8
0
100
AcDbMText
 10
304.0066954945373
 20
639.4086452301534
 30
0.0
 40
6.5
 41
240.2849999999999
 71
     1
 72
     5
  1
Toutes les pièces sont à découper dans du dépron de 3mm, seules les baguettes d'angles sont en Dépron de 6mm
 73
     1
 44
1.0
  0
LINE
  5
21C
330
1F
100
AcDbEntity
  8
0
100
AcDbLine
 10
375.4243331774469
 20
576.125845688213
 30
0.0
 11
375.4243331774469
 21
519.7558456882131
 31
0.0
  0
CIRCLE
  5
21D
330
1F
100
AcDbEntity
  8
0
100
AcDbCircle
 10
481.7637625928232
 20
546.1396740936387
 30
0.0
 40
8.0
  0
MTEXT
  5
21E
330
1F
100
AcDbEntity
  8
0
100
AcDbMText
 10
478.6716915414322
 20
550.5201922069162
 30
0.0
 40
8.0
 41
40.4551
 71
     1
 72
     5
  1
2
 73
     1
 44
1.0
  0
MTEXT
  5
21F
330
1F
100
AcDbEntity
  8
0
100
AcDbMText
 10
523.7501842902307
 20
468.5200674941196
 30
0.0
 40
8.0
 41
60.1047
 71
     1
 72
     5
  1
1
 73
     1
 44
1.0
  0
LINE
  5
220
330
1F
100
AcDbEntity
  8
0
100
AcDbLine
 10
803.9368629398412
 20
483.4816052848815
 30
0.0
 11
803.9368629398412
 21
437.2616052848814
 31
0.0
  0
LINE
  5
221
330
1F
100
AcDbEntity
  8
0
100
AcDbLine
 10
960.2380271817274
 20
441.5337600951132
 30
0.0
 11
968.8905876904415
 21
614.5849702693957
 31
0.0
  0
LINE
  5
222
330
1F
100
AcDbEntity
  8
0
100
AcDbLine
 10
933.640622984085
 20
609.5856761422631
 30
0.0
 11
933.640622984085
 21
441.5337600951132
 31
0.0
  0
LINE
  5
223
330
1F
100
AcDbEntity
  8
0
100
AcDbLine
 10
674.7122020041676
 20
609.7664923647989
 30
0.0
 11
891.9839073599874
 21
454.572417110642
 31
0.0
  0
LINE
  5
224
330
1F
100
AcDbEntity
  8
0
100
AcDbLine
 10
960.2380271817274
 20
441.5337600951132
 30
0.0
 11
932.6705809203239
 21
441.5337600951132
 31
0.0
  0
ARC
  5
225
330
1F
100
AcDbEntity
  8
0
100
AcDbCircle
 10
954.0431177144128
 20
334.1911638713314
 30
0.0
 40
50.0
100
AcDbArc
 50
90.0
 51
124.5592164143038
  0
LINE
  5
226
330
1F
100
AcDbEntity
  8
0
100
AcDbLine
 10
894.7393712734847
 20
277.1021808204837
 30
0.0
 11
953.4893712734847
 21
276.1064181086195
 31
0.0
  0
LINE
  5
227
330
1F
100
AcDbEntity
  8
0
100
AcDbLine
 10
894.7393712734847
 20
236.6106553967552
 30
0.0
 11
953.4893712734847
 21
237.6064181086195
 31
0.0
  0
ARC
  5
228
330
1F
100
AcDbEntity
  8
0
100
AcDbCircle
 10
1242.700586195131
 20
4712.05072821547
 30
0.0
 40
4442.61231216308
100
AcDbArc
 50
262.3135015379347
 51
266.2028181075011
  0
LINE
  5
229
330
1F
100
AcDbEntity
  8
0
100
AcDbLine
 10
638.2946352199187
 20
296.3627451359185
 30
0.0
 11
948.4893712734844
 21
276.1911638713314
 31
0.0
  0
LINE
  5
22A
330
1F
100
AcDbEntity
  8
0
100
AcDbLine
 10
638.4893712734847
 20
299.3564181089469
 30
0.0
 11
948.4893712734846
 21
279.1911638713314
 31
0.0
  0
LINE
  5
22B
330
1F
100
AcDbEntity
  8
0
100
AcDbLine
 10
802.7681938840144
 20
202.0216498206558
 30
0.0
 11
1002.768193884014
 21
202.0216498206558
 31
0.0
  0
LINE
  5
22C
330
1F
100
AcDbEntity
  8
0
100
AcDbLine
 10
802.7681938840144
 20
190.0216498206558
 30
0.0
 11
1002.768193884014
 21
190.0216498206558
 31
0.0
  0
MTEXT
  5
22D
330
1F
100
AcDbEntity
  8
0
100
AcDbMText
 10
802.7681938840144
 20
164.0216498206558
 30
0.0
 40
6.5
 41
200.0
 71
     1
 72
     5
  1
 Longueur totale: 592.5mm
 73
     1
 44
1.0
  0
LINE
  5
22E
330
1F
100
AcDbEntity
  8
0
100
AcDbLine
 10
802.7681938840144
 20
178.0216498206558
 30
0.0
 11
1002.768193884014
 21
178.0216498206558
 31
0.0
  0
LINE
  5
22F
330
1F
100
AcDbEntity
  8
0
100
AcDbLine
 10
802.7681938840144
 20
166.0216498206558
 30
0.0
 11
1002.768193884014
 21
166.0216498206558
 31
0.0
  0
LINE
  5
230
330
1F
100
AcDbEntity
  8
0
100
AcDbLine
 10
802.7681938840144
 20
154.0216498206558
 30
0.0
 11
1002.768193884014
 21
154.0216498206558
 31
0.0
  0
LINE
  5
231
330
1F
100
AcDbEntity
  8
0
100
AcDbLine
 10
802.7681938840144
 20
142.0216498206558
 30
0.0
 11
1002.768193884014
 21
142.0216498206558
 31
0.0
  0
MTEXT
  5
232
330
1F
100
AcDbEntity
  8
0
100
AcDbMText
 10
802.7681938840144
 20
140.0216498206558
 30
0.0
 40
6.5
 41
200.0
 71
     1
 72
     5
  1
 Moteur FEIGAO 5300 ou 5800 trs
 73
     1
 44
1.0
  0
LINE
  5
233
330
1F
100
AcDbEntity
  8
0
100
AcDbLine
 10
802.7681938840144
 20
130.0216498206558
 30
0.0
 11
1002.768193884014
 21
130.0216498206558
 31
0.0
  0
LINE
  5
234
330
1F
100
AcDbEntity
  8
0
100
AcDbLine
 10
802.7681938840144
 20
118.0216498206558
 30
0.0
 11
1002.768193884014
 21
118.0216498206558
 31
0.0
  0
MTEXT
  5
235
330
1F
100
AcDbEntity
  8
0
100
AcDbMText
 10
802.7681938840144
 20
116.0216498206558
 30
0.0
 40
6.5
 41
200.0
 71
     1
 72
     5
  1
 Batterie 3S 450 à 680 mha
 73
     1
 44
1.0
  0
LINE
  5
236
330
1F
100
AcDbEntity
  8
0
100
AcDbLine
 10
802.7681938840144
 20
106.0216498206558
 30
0.0
 11
1002.768193884014
 21
106.0216498206558
 31
0.0
  0
LINE
  5
237
330
1F
100
AcDbEntity
  8
0
100
AcDbLine
 10
1002.768193884014
 20
190.0216498206558
 30
0.0
 11
802.7681938840144
 21
190.0216498206558
 31
0.0
  0
LINE
  5
238
330
1F
100
AcDbEntity
  8
0
100
AcDbLine
 10
894.4893712734847
 20
256.8564181086195
 30
0.0
 11
894.4893712734847
 21
277.8564181086195
 31
0.0
  0
LINE
  5
239
330
1F
100
AcDbEntity
  8
0
100
AcDbLine
 10
869.4893712734847
 20
256.8564181086195
 30
0.0
 11
869.4893712734847
 21
278.3564181086195
 31
0.0
  0
LINE
  5
23A
330
1F
100
AcDbEntity
  8
0
100
AcDbLine
 10
863.4893712734847
 20
256.8564181086195
 30
0.0
 11
863.4893712734847
 21
281.3564181086195
 31
0.0
  0
LINE
  5
23B
330
1F
100
AcDbEntity
  8
0
100
AcDbLine
 10
862.4893712734847
 20
256.8564181086195
 30
0.0
 11
862.4893712734847
 21
280.3564181086195
 31
0.0
  0
LINE
  5
23C
330
1F
100
AcDbEntity
  8
0
100
AcDbLine
 10
872.4893712734846
 20
281.1333501753694
 30
0.0
 11
872.4893712734846
 21
233.703256271095
 31
0.0
  0
LINE
  5
23D
330
1F
100
AcDbEntity
  8
0
100
AcDbLine
 10
869.4893712734847
 20
281.3284364768445
 30
0.0
 11
869.4893712734847
 21
233.5525293207735
 31
0.0
  0
MTEXT
  5
23E
330
1F
100
AcDbEntity
  8
0
100
AcDbMText
 10
627.1889988509251
 20
278.829602099643
 30
0.0
 40
8.0
 41
51.02879999999999
 71
     1
 72
     5
  1
B-B
 73
     1
 44
1.0
  0
MTEXT
  5
23F
330
1F
100
AcDbEntity
  8
0
100
AcDbMText
 10
716.2255105104746
 20
188.6031908301919
 30
0.0
 40
8.0
 41
56.3181
 71
     1
 72
     5
  1
C-C
 73
     1
 44
1.0
  0
LINE
  5
240
330
1F
100
AcDbEntity
  8
0
100
AcDbLine
 10
666.448644371416
 20
158.0130926649168
 30
0.0
 11
666.448644371416
 21
133.0130926649168
 31
0.0
  0
LINE
  5
241
330
1F
100
AcDbEntity
  8
0
100
AcDbLine
 10
669.448644371416
 20
158.0130926649168
 30
0.0
 11
669.448644371416
 21
133.0130926649168
 31
0.0
  0
LINE
  5
242
330
1F
100
AcDbEntity
  8
0
100
AcDbLine
 10
638.9486443714161
 20
133.0130926649168
 30
0.0
 11
638.9486443714161
 21
158.0130926649168
 31
0.0
  0
LINE
  5
243
330
1F
100
AcDbEntity
  8
0
100
AcDbLine
 10
635.948644371416
 20
130.0130926649168
 30
0.0
 11
635.948644371416
 21
171.7939843772366
 31
0.0
  0
LINE
  5
244
330
1F
100
AcDbEntity
  8
0
100
AcDbLine
 10
696.9486443714161
 20
158.0130926649168
 30
0.0
 11
696.9486443714161
 21
133.0130926649168
 31
0.0
  0
LINE
  5
245
330
1F
100
AcDbEntity
  8
0
100
AcDbLine
 10
699.9486443714161
 20
130.0130926649168
 30
0.0
 11
699.9486443714161
 21
173.4305132344589
 31
0.0
  0
LINE
  5
246
330
1F
100
AcDbEntity
  8
0
100
AcDbLine
 10
696.9486443714161
 20
133.0130926649168
 30
0.0
 11
638.9486443714161
 21
133.0130926649168
 31
0.0
  0
LINE
  5
247
330
1F
100
AcDbEntity
  8
0
100
AcDbLine
 10
638.9486443714161
 20
130.0130926649168
 30
0.0
 11
696.9486443714161
 21
130.0130926649168
 31
0.0
  0
LINE
  5
248
330
1F
100
AcDbEntity
  8
0
100
AcDbLine
 10
638.9486443714161
 20
133.0130926649168
 30
0.0
 11
638.9486443714161
 21
130.0130926649168
 31
0.0
  0
LINE
  5
249
330
1F
100
AcDbEntity
  8
0
100
AcDbLine
 10
638.9486443714161
 20
130.0130926649168
 30
0.0
 11
635.948644371416
 21
130.0130926649168
 31
0.0
  0
LINE
  5
24A
330
1F
100
AcDbEntity
  8
0
100
AcDbLine
 10
696.9486443714161
 20
130.0130926649168
 30
0.0
 11
699.9486443714161
 21
130.0130926649168
 31
0.0
  0
LINE
  5
24B
330
1F
100
AcDbEntity
  8
0
100
AcDbLine
 10
696.9486443714161
 20
133.0130926649168
 30
0.0
 11
696.9486443714161
 21
130.0130926649168
 31
0.0
  0
MTEXT
  5
24C
330
1F
100
AcDbEntity
  8
0
100
AcDbMText
 10
635.948644371416
 20
179.7939837686118
 30
0.0
 40
8.0
 41
50.4743
 71
     1
 72
     5
  1
vue 1
 73
     1
 44
1.0
  0
LINE
  5
24D
330
1F
100
AcDbEntity
  8
0
100
AcDbLine
 10
638.9486443714161
 20
158.0130926649168
 30
0.0
 11
696.9486443714161
 21
158.0130926649168
 31
0.0
  0
LINE
  5
24E
330
1F
100
AcDbEntity
  8
0
100
AcDbLine
 10
638.9486443714161
 20
158.0130926649168
 30
0.0
 11
635.948644371416
 21
158.0130926649168
 31
0.0
  0
LINE
  5
24F
330
1F
100
AcDbEntity
  8
0
100
AcDbLine
 10
667.9486443714161
 20
158.0130926649168
 30
0.0
 11
666.448644371416
 21
158.0130926649168
 31
0.0
  0
LINE
  5
250
330
1F
100
AcDbEntity
  8
0
100
AcDbLine
 10
667.9486443714161
 20
158.0130926649168
 30
0.0
 11
669.448644371416
 21
158.0130926649168
 31
0.0
  0
LINE
  5
251
330
1F
100
AcDbEntity
  8
0
100
AcDbLine
 10
696.9486443714161
 20
158.0130926649168
 30
0.0
 11
699.9486443714161
 21
158.0130926649168
 31
0.0
  0
CIRCLE
  5
252
330
1F
100
AcDbEntity
  8
0
100
AcDbCircle
 10
746.7323116246279
 20
151.1776686867098
 30
0.0
 40
21.49999999999999
  0
LINE
  5
253
330
1F
100
AcDbEntity
  8
0
100
AcDbLine
 10
722.382311624628
 20
175.4576686867097
 30
0.0
 11
722.382311624628
 21
128.0276686867097
 31
0.0
  0
LINE
  5
254
330
1F
100
AcDbEntity
  8
0
100
AcDbLine
 10
771.0823116246281
 20
128.0276686867097
 30
0.0
 11
771.0823116246281
 21
175.45766868671
 31
0.0
  0
LINE
  5
255
330
1F
100
AcDbEntity
  8
0
100
AcDbLine
 10
722.382311624628
 20
128.0276686867097
 30
0.0
 11
771.0823116246281
 21
128.0276686867097
 31
0.0
  0
LINE
  5
256
330
1F
100
AcDbEntity
  8
0
100
AcDbLine
 10
728.382311624628
 20
134.0276686867099
 30
0.0
 11
728.382311624628
 21
128.0276686867099
 31
0.0
  0
LINE
  5
257
330
1F
100
AcDbEntity
  8
0
100
AcDbLine
 10
722.382311624628
 20
134.0276686867099
 30
0.0
 11
728.382311624628
 21
134.0276686867099
 31
0.0
  0
LINE
  5
258
330
1F
100
AcDbEntity
  8
0
100
AcDbLine
 10
765.082311624628
 20
134.0276686867099
 30
0.0
 11
765.082311624628
 21
128.0276686867099
 31
0.0
  0
LINE
  5
259
330
1F
100
AcDbEntity
  8
0
100
AcDbLine
 10
771.0823116246281
 20
134.0276686867099
 30
0.0
 11
765.082311624628
 21
134.0276686867099
 31
0.0
  0
LINE
  5
25A
330
1F
100
AcDbEntity
  8
0
100
AcDbLine
 10
771.0823116246281
 20
175.45766868671
 30
0.0
 11
722.382311624628
 21
175.4576686867097
 31
0.0
  0
LINE
  5
25B
330
1F
100
AcDbEntity
  8
0
100
AcDbLine
 10
728.382311624628
 20
169.4576686867097
 30
0.0
 11
728.382311624628
 21
175.4576686867097
 31
0.0
  0
LINE
  5
25C
330
1F
100
AcDbEntity
  8
0
100
AcDbLine
 10
722.382311624628
 20
169.4576686867097
 30
0.0
 11
728.382311624628
 21
169.4576686867097
 31
0.0
  0
LINE
  5
25D
330
1F
100
AcDbEntity
  8
0
100
AcDbLine
 10
765.082311624628
 20
169.4576686867097
 30
0.0
 11
765.082311624628
 21
175.4576686867097
 31
0.0
  0
LINE
  5
25E
330
1F
100
AcDbEntity
  8
0
100
AcDbLine
 10
771.0823116246281
 20
169.4576686867097
 30
0.0
 11
765.082311624628
 21
169.4576686867097
 31
0.0
  0
CIRCLE
  5
25F
330
1F
100
AcDbEntity
  8
0
100
AcDbCircle
 10
681.727988549313
 20
212.6970091254432
 30
0.0
 40
8.0
  0
CIRCLE
  5
260
330
1F
100
AcDbEntity
  8
0
100
AcDbCircle
 10
693.4880151550364
 20
223.4765434665086
 30
0.0
 40
0.5
  0
LINE
  5
261
330
1F
100
AcDbEntity
  8
0
100
AcDbLine
 10
693.4880151550364
 20
223.4765434665086
 30
0.0
 11
686.2078668414828
 21
215.1988723554421
 31
0.0
  0
MTEXT
  5
262
330
1F
100
AcDbEntity
  8
0
100
AcDbMText
 10
680.6346546696182
 20
217.0860349818811
 30
0.0
 40
8.0
 41
60.1047
 71
     1
 72
     5
  1
1
 73
     1
 44
1.0
  0
LINE
  5
263
330
1F
100
AcDbEntity
  8
0
100
AcDbLine
 10
622.963546095925
 20
246.8564181089467
 30
0.0
 11
622.963546095925
 21
243.8564181089467
 31
0.0
  0
LINE
  5
264
330
1F
100
AcDbEntity
  8
0
100
AcDbLine
 10
702.963546095925
 20
246.8564181089467
 30
0.0
 11
727.963546095925
 21
246.8564181089467
 31
0.0
  0
LINE
  5
265
330
1F
100
AcDbEntity
  8
0
100
AcDbLine
 10
702.963546095925
 20
243.8564181089467
 30
0.0
 11
727.963546095925
 21
243.8564181089467
 31
0.0
  0
LINE
  5
266
330
1F
100
AcDbEntity
  8
0
100
AcDbLine
 10
702.963546095925
 20
243.8564181089467
 30
0.0
 11
702.963546095925
 21
246.8564181089467
 31
0.0
  0
LINE
  5
267
330
1F
100
AcDbEntity
  8
0
100
AcDbLine
 10
727.963546095925
 20
246.8564181089467
 30
0.0
 11
727.963546095925
 21
243.8564181089467
 31
0.0
  0
CIRCLE
  5
268
330
1F
100
AcDbEntity
  8
0
100
AcDbCircle
 10
750.213546095925
 20
245.3564181089467
 30
0.0
 40
1.5
  0
MTEXT
  5
269
330
1F
100
AcDbEntity
  8
0
100
AcDbMText
 10
802.7681938840144
 20
188.0216498206558
 30
0.0
 40
6.5
 41
200.0
 71
     1
 72
     5
  1
 Conception: MG FACTORY
 73
     1
 44
1.0
  0
MTEXT
  5
26A
330
1F
100
AcDbEntity
  8
0
100
AcDbMText
 10
802.7681938840144
 20
176.0216498206558
 30
0.0
 40
6.5
 41
200.0
 71
     1
 72
     5
  1
 Envergure: 400mm
 73
     1
 44
1.0
  0
MTEXT
  5
26B
330
1F
100
AcDbEntity
  8
0
100
AcDbMText
 10
802.7681938840144
 20
128.0216498206558
 30
0.0
 40
6.5
 41
200.0
 71
     1
 72
     5
  1
 2 ou 3 servos 6 grs
 73
     1
 44
1.0
  0
MTEXT
  5
26C
330
1F
100
AcDbEntity
  8
0
100
AcDbMText
 10
802.7681938840144
 20
104.0216498206558
 30
0.0
 40
6.5
 41
200.0
 71
     1
 72
     5
  1
 Poids de 110 à 150 grs
 73
     1
 44
1.0
  0
MTEXT
  5
26D
330
1F
100
AcDbEntity
  8
0
100
AcDbMText
 10
802.7681938840144
 20
152.0216498206558
 30
0.0
 40
6.5
 41
200.0
 71
     1
 72
     5
  1
 Turbine GWS 40mm
 73
     1
 44
1.0
  0
LINE
  5
26E
330
1F
100
AcDbEntity
  8
0
100
AcDbLine
 10
869.4893712734847
 20
257.4404828988089
 30
0.0
 11
853.40845799327
 21
268.9273871097965
 31
0.0
  0
ARC
  5
26F
330
1F
100
AcDbEntity
  8
0
100
AcDbCircle
 10
871.2644332392963
 20
206.2060463137503
 30
0.0
 40
29.20436646738944
100
AcDbArc
 50
93.48462562732393
 51
105.440018788726
  0
MTEXT
  5
270
330
1F
100
AcDbEntity
  8
0
100
AcDbMText
 10
802.7681938840144
 20
200.0216498206558
 30
0.0
 40
6.5
 41
200.0
 71
     1
 72
     5
  1
 JET TRAINER edf 40
 73
     1
 44
1.0
  0
LINE
  5
271
330
1F
100
AcDbEntity
  8
0
100
AcDbLine
 10
812.183546095925
 20
246.8564181089467
 30
0.0
 11
787.1835460959251
 21
246.8564181089467
 31
0.0
  0
LINE
  5
272
330
1F
100
AcDbEntity
  8
0
100
AcDbLine
 10
812.183546095925
 20
243.8564181089467
 30
0.0
 11
787.1835460959251
 21
243.8564181089467
 31
0.0
  0
LINE
  5
273
330
1F
100
AcDbEntity
  8
0
100
AcDbLine
 10
787.1835460959251
 20
246.8564181089467
 30
0.0
 11
787.1835460959251
 21
243.8564181089467
 31
0.0
  0
LINE
  5
274
330
1F
100
AcDbEntity
  8
0
100
AcDbLine
 10
812.183546095925
 20
243.8564181089467
 30
0.0
 11
812.183546095925
 21
246.8564181089467
 31
0.0
  0
ARC
  5
275
330
1F
100
AcDbEntity
  8
0
100
AcDbCircle
 10
866.9893712734847
 20
256.8564181086195
 30
0.0
 40
6.0
100
AcDbArc
 50
138.5903778907296
 51
221.4096221092703
  0
LINE
  5
276
330
1F
100
AcDbEntity
  8
0
100
AcDbLine
 10
863.4893712734847
 20
256.8564181086195
 30
0.0
 11
863.4893712734847
 21
232.3564181086195
 31
0.0
  0
LINE
  5
277
330
1F
100
AcDbEntity
  8
0
100
AcDbLine
 10
862.4893712734847
 20
256.8564181086195
 30
0.0
 11
862.4893712734847
 21
233.3564181086195
 31
0.0
  0
ARC
  5
278
330
1F
100
AcDbEntity
  8
0
100
AcDbCircle
 10
863.4893712734847
 20
233.3564181086195
 30
0.0
 40
1.0
100
AcDbArc
 50
180.0
 51
270.0
  0
LINE
  5
279
330
1F
100
AcDbEntity
  8
0
100
AcDbLine
 10
863.4893712734847
 20
232.3564181086195
 30
0.0
 11
863.4893712734847
 21
234.3564181086195
 31
0.0
  0
MTEXT
  5
27A
330
1F
100
AcDbEntity
  8
0
100
AcDbMText
 10
830.0341089404778
 20
273.2041225656238
 30
0.0
 40
8.0
 41
56.3181
 71
     1
 72
     5
  1
C-C
 73
     1
 44
1.0
  0
LINE
  5
27B
330
1F
100
AcDbEntity
  8
0
100
AcDbLine
 10
908.4893712734848
 20
250.8564181086195
 30
0.0
 11
894.4893712734847
 21
250.8564181086195
 31
0.0
  0
LINE
  5
27C
330
1F
100
AcDbEntity
  8
0
100
AcDbLine
 10
908.4893712734848
 20
262.8564181086195
 30
0.0
 11
894.4893712734847
 21
262.8564181086195
 31
0.0
  0
LINE
  5
27D
330
1F
100
AcDbEntity
  8
0
100
AcDbLine
 10
894.4893712734847
 20
256.8564181086195
 30
0.0
 11
894.4893712734847
 21
235.8564181086195
 31
0.0
  0
LINE
  5
27E
330
1F
100
AcDbEntity
  8
0
100
AcDbLine
 10
869.4893712734847
 20
256.8564181086195
 30
0.0
 11
869.4893712734847
 21
235.3564181086195
 31
0.0
  0
LINE
  5
27F
330
1F
100
AcDbEntity
  8
0
100
AcDbLine
 10
869.4893712734847
 20
235.3564181086195
 30
0.0
 11
894.4893712734847
 21
235.8564181086195
 31
0.0
  0
LINE
  5
280
330
1F
100
AcDbEntity
  8
0
100
AcDbLine
 10
897.1835460959251
 20
246.8564181089467
 30
0.0
 11
877.183546095925
 21
246.8564181089467
 31
0.0
  0
LINE
  5
281
330
1F
100
AcDbEntity
  8
0
100
AcDbLine
 10
897.303550345971
 20
243.8564181089469
 30
0.0
 11
877.183546095925
 21
243.8564181089467
 31
0.0
  0
LINE
  5
282
330
1F
100
AcDbEntity
  8
0
100
AcDbLine
 10
877.183546095925
 20
246.8564181089467
 30
0.0
 11
877.183546095925
 21
243.8564181089467
 31
0.0
  0
LINE
  5
283
330
1F
100
AcDbEntity
  8
0
100
AcDbLine
 10
894.7393712734847
 20
235.6114181086196
 30
0.0
 11
894.7393712734847
 21
236.6106553967552
 31
0.0
  0
LINE
  5
284
330
1F
100
AcDbEntity
  8
0
100
AcDbLine
 10
897.303550345971
 20
243.8564181089469
 30
0.0
 11
897.303550345971
 21
246.8564181089469
 31
0.0
  0
LINE
  5
285
330
1F
100
AcDbEntity
  8
0
100
AcDbLine
 10
897.1835460959251
 20
243.8564181089467
 30
0.0
 11
897.1835460959251
 21
246.8564181089467
 31
0.0
  0
LINE
  5
286
330
1F
100
AcDbEntity
  8
0
100
AcDbLine
 10
885.9893712734846
 20
235.6864181086194
 30
0.0
 11
885.9893712734846
 21
235.4364181086194
 31
0.0
  0
LINE
  5
287
330
1F
100
AcDbEntity
  8
0
100
AcDbLine
 10
885.9893712734846
 20
235.4364181086194
 30
0.0
 11
894.7393712734847
 21
235.6114181086196
 31
0.0
  0
CIRCLE
  5
288
330
1F
100
AcDbEntity
  8
0
100
AcDbCircle
 10
869.4893712734847
 20
257.4404828988089
 30
0.0
 40
0.5
  0
LINE
  5
289
330
1F
100
AcDbEntity
  8
0
100
AcDbLine
 10
907.9893712734847
 20
262.8564181086195
 30
0.0
 11
907.9893712734847
 21
250.8564181086195
 31
0.0
  0
LINE
  5
28A
330
1F
100
AcDbEntity
  8
0
100
AcDbLine
 10
908.4893712734848
 20
256.8564181086195
 30
0.0
 11
908.4893712734848
 21
250.8564181086195
 31
0.0
  0
LINE
  5
28B
330
1F
100
AcDbEntity
  8
0
100
AcDbLine
 10
908.4893712734848
 20
256.8564181086195
 30
0.0
 11
908.4893712734848
 21
262.8564181086195
 31
0.0
  0
LINE
  5
28C
330
1F
100
AcDbEntity
  8
0
100
AcDbLine
 10
908.4893712734848
 20
262.8564181086195
 30
0.0
 11
907.9893712734847
 21
262.8564181086195
 31
0.0
  0
MTEXT
  5
28D
330
1F
100
AcDbEntity
  8
0
100
AcDbMText
 10
738.07623591143
 20
429.4839413202051
 30
0.0
 40
6.5
 41
144.8469
 71
     1
 72
     5
  1
La tuyère est réalisée avec de la gaine thermorétractable
 73
     1
 44
1.0
  0
LINE
  5
28E
330
1F
100
AcDbEntity
  8
0
100
AcDbLine
 10
766.8827367855535
 20
391.9970786569387
 30
0.0
 11
766.8827367855538
 21
365.8893312554263
 31
0.0
  0
LINE
  5
28F
330
1F
100
AcDbEntity
  8
0
100
AcDbLine
 10
771.8827367855538
 20
365.8893312554263
 30
0.0
 11
771.8827367855538
 21
385.1393312554263
 31
0.0
  0
LINE
  5
290
330
1F
100
AcDbEntity
  8
0
100
AcDbLine
 10
726.3827367855538
 20
371.8893312554263
 30
0.0
 11
726.3827367855538
 21
359.8893312554263
 31
0.0
  0
LINE
  5
291
330
1F
100
AcDbEntity
  8
0
100
AcDbLine
 10
726.8827367855537
 20
365.8893312554263
 30
0.0
 11
726.8827367855537
 21
371.8893312554263
 31
0.0
  0
LINE
  5
292
330
1F
100
AcDbEntity
  8
0
100
AcDbLine
 10
712.8827367855538
 20
365.8893312554263
 30
0.0
 11
712.8827367855538
 21
386.8893312554263
 31
0.0
  0
ARC
  5
293
330
1F
100
AcDbEntity
  8
0
100
AcDbCircle
 10
685.3827367855537
 20
365.8893312554263
 30
0.0
 40
6.0
100
AcDbArc
 50
138.5903778907296
 51
221.4096221092703
  0
LINE
  5
294
330
1F
100
AcDbEntity
  8
0
100
AcDbLine
 10
680.8827367855537
 20
365.8893312554263
 30
0.0
 11
680.8827367855537
 21
389.3893312554263
 31
0.0
  0
LINE
  5
295
330
1F
100
AcDbEntity
  8
0
100
AcDbLine
 10
681.8827367855537
 20
365.8893312554263
 30
0.0
 11
681.8827367855537
 21
390.3893312554263
 31
0.0
  0
LINE
  5
296
330
1F
100
AcDbEntity
  8
0
100
AcDbLine
 10
687.8827367855538
 20
365.8893312554263
 30
0.0
 11
687.8827367855538
 21
387.3893312554263
 31
0.0
  0
LINE
  5
297
330
1F
100
AcDbEntity
  8
0
100
AcDbLine
 10
690.8827367855537
 20
390.2415138722013
 30
0.0
 11
690.8827367855537
 21
341.5371486386514
 31
0.0
  0
LINE
  5
298
330
1F
100
AcDbEntity
  8
0
100
AcDbLine
 10
687.8827367855538
 20
390.2906521992066
 30
0.0
 11
687.8827367855538
 21
341.4880103116459
 31
0.0
  0
CIRCLE
  5
299
330
1F
100
AcDbEntity
  8
0
100
AcDbCircle
 10
698.9884698277069
 20
312.3937666837408
 30
0.0
 40
8.0
  0
MTEXT
  5
29A
330
1F
100
AcDbEntity
  8
0
100
AcDbMText
 10
696.2984575579916
 20
316.7597008047986
 30
0.0
 40
8.0
 41
40.4551
 71
     1
 72
     5
  1
2
 73
     1
 44
1.0
  0
LINE
  5
29B
330
1F
100
AcDbEntity
  8
0
100
AcDbLine
 10
687.8827367855538
 20
344.3893312554263
 30
0.0
 11
712.8827367855538
 21
344.8893312554263
 31
0.0
  0
LINE
  5
29C
330
1F
100
AcDbEntity
  8
0
100
AcDbLine
 10
648.4893712734999
 20
309.3564181089488
 30
0.0
 11
638.4893712734999
 21
299.3564181089496
 31
0.0
  0
LINE
  5
29D
330
1F
100
AcDbEntity
  8
0
100
AcDbLine
 10
638.2946352199187
 20
296.3627451359185
 30
0.0
 11
636.1740338782822
 21
298.4847842377847
 31
0.0
  0
LINE
  5
29E
330
1F
100
AcDbEntity
  8
0
100
AcDbLine
 10
638.4893712734845
 20
299.3564181089469
 30
0.0
 11
638.2946352199187
 21
296.3627451359185
 31
0.0
  0
LINE
  5
29F
330
1F
100
AcDbEntity
  8
0
100
AcDbLine
 10
697.7556928362969
 20
307.2565715844074
 30
0.0
 11
692.483858277606
 21
294.2129731418598
 31
0.0
  0
CIRCLE
  5
2A0
330
1F
100
AcDbEntity
  8
0
100
AcDbCircle
 10
692.483858277606
 20
294.2129731418598
 30
0.0
 40
0.5
  0
LINE
  5
2A1
330
1F
100
AcDbEntity
  8
0
100
AcDbLine
 10
680.8827367855537
 20
365.8893312554263
 30
0.0
 11
680.8827367855537
 21
342.3893312554263
 31
0.0
  0
LINE
  5
2A2
330
1F
100
AcDbEntity
  8
0
100
AcDbLine
 10
681.8827367855537
 20
365.8893312554263
 30
0.0
 11
681.8827367855537
 21
341.3893312554263
 31
0.0
  0
LINE
  5
2A3
330
1F
100
AcDbEntity
  8
0
100
AcDbLine
 10
687.8827367855538
 20
365.8893312554263
 30
0.0
 11
687.8827367855538
 21
344.3893312554263
 31
0.0
  0
LINE
  5
2A4
330
1F
100
AcDbEntity
  8
0
100
AcDbLine
 10
681.8827367855537
 20
341.3893312554263
 30
0.0
 11
681.8827367855537
 21
343.3893312554263
 31
0.0
  0
ARC
  5
2A5
330
1F
100
AcDbEntity
  8
0
100
AcDbCircle
 10
681.8827367855537
 20
342.3893312554263
 30
0.0
 40
1.0
100
AcDbArc
 50
180.0
 51
270.0
  0
ARC
  5
2A6
330
1F
100
AcDbEntity
  8
0
100
AcDbCircle
 10
689.6577987513653
 20
315.2389594605569
 30
0.0
 40
29.20436646738944
100
AcDbArc
 50
93.48462562732393
 51
105.440018788726
  0
LINE
  5
2A7
330
1F
100
AcDbEntity
  8
0
100
AcDbLine
 10
713.1327367855537
 20
345.6435685435621
 30
0.0
 11
771.8827367855538
 21
346.6393312554263
 31
0.0
  0
LINE
  5
2A8
330
1F
100
AcDbEntity
  8
0
100
AcDbLine
 10
713.1327367855537
 20
344.6443312554264
 30
0.0
 11
713.1327367855537
 21
345.6435685435621
 31
0.0
  0
LINE
  5
2A9
330
1F
100
AcDbEntity
  8
0
100
AcDbLine
 10
712.8827367855538
 20
365.8893312554263
 30
0.0
 11
712.8827367855538
 21
344.8893312554263
 31
0.0
  0
LINE
  5
2AA
330
1F
100
AcDbEntity
  8
0
100
AcDbLine
 10
704.3827367855538
 20
344.7193312554262
 30
0.0
 11
704.3827367855538
 21
344.4693312554262
 31
0.0
  0
LINE
  5
2AB
330
1F
100
AcDbEntity
  8
0
100
AcDbLine
 10
704.3827367855538
 20
344.4693312554262
 30
0.0
 11
713.1327367855537
 21
344.6443312554264
 31
0.0
  0
LINE
  5
2AC
330
1F
100
AcDbEntity
  8
0
100
AcDbLine
 10
726.8827367855537
 20
359.8893312554263
 30
0.0
 11
712.8827367855538
 21
359.8893312554263
 31
0.0
  0
LINE
  5
2AD
330
1F
100
AcDbEntity
  8
0
100
AcDbLine
 10
726.8827367855537
 20
365.8893312554263
 30
0.0
 11
726.8827367855537
 21
359.8893312554263
 31
0.0
  0
LINE
  5
2AE
330
1F
100
AcDbEntity
  8
0
100
AcDbLine
 10
766.8827367855535
 20
339.7815838539144
 30
0.0
 11
766.8827367855538
 21
365.8893312554263
 31
0.0
  0
LINE
  5
2AF
330
1F
100
AcDbEntity
  8
0
100
AcDbLine
 10
771.8827367855538
 20
365.8893312554263
 30
0.0
 11
771.8827367855538
 21
346.6393312554263
 31
0.0
  0
LINE
  5
2B0
330
1F
100
AcDbEntity
  8
0
100
AcDbLine
 10
687.8827367855538
 20
387.3893312554263
 30
0.0
 11
712.8827367855538
 21
386.8893312554263
 31
0.0
  0
ARC
  5
2B1
330
1F
100
AcDbEntity
  8
0
100
AcDbCircle
 10
681.8827367855537
 20
389.3893312554263
 30
0.0
 40
1.0
100
AcDbArc
 50
90.0
 51
180.0
  0
LINE
  5
2B2
330
1F
100
AcDbEntity
  8
0
100
AcDbLine
 10
681.8827367855537
 20
390.3893312554263
 30
0.0
 11
681.8827367855537
 21
388.3893312554263
 31
0.0
  0
ARC
  5
2B3
330
1F
100
AcDbEntity
  8
0
100
AcDbCircle
 10
689.6577987513653
 20
416.5397030502953
 30
0.0
 40
29.20436646738944
100
AcDbArc
 50
254.5599812112739
 51
266.5153743726761
  0
LINE
  5
2B4
330
1F
100
AcDbEntity
  8
0
100
AcDbLine
 10
713.1327367855537
 20
386.1350939672906
 30
0.0
 11
771.8827367855538
 21
385.1393312554263
 31
0.0
  0
LINE
  5
2B5
330
1F
100
AcDbEntity
  8
0
100
AcDbLine
 10
726.8827367855537
 20
371.8893312554263
 30
0.0
 11
712.8827367855538
 21
371.8893312554263
 31
0.0
  0
LINE
  5
2B6
330
1F
100
AcDbEntity
  8
0
100
AcDbLine
 10
713.1327367855537
 20
387.1343312554262
 30
0.0
 11
713.1327367855537
 21
386.1350939672906
 31
0.0
  0
LINE
  5
2B7
330
1F
100
AcDbEntity
  8
0
100
AcDbLine
 10
704.3827367855538
 20
387.0593312554264
 30
0.0
 11
704.3827367855538
 21
387.3093312554264
 31
0.0
  0
LINE
  5
2B8
330
1F
100
AcDbEntity
  8
0
100
AcDbLine
 10
704.3827367855538
 20
387.3093312554264
 30
0.0
 11
713.1327367855537
 21
387.1343312554262
 31
0.0
  0
LINE
  5
2B9
330
1F
100
AcDbEntity
  8
0
100
AcDbLine
 10
726.8827367855537
 20
371.8893312554263
 30
0.0
 11
726.3827367855538
 21
371.8893312554263
 31
0.0
  0
LINE
  5
2BA
330
1F
100
AcDbEntity
  8
0
100
AcDbLine
 10
766.8827367855538
 20
391.9970786569387
 30
0.0
 11
766.833605048768
 21
388.9974810051793
 31
0.0
  0
LINE
  5
2BB
330
1F
100
AcDbEntity
  8
0
100
AcDbLine
 10
925.6802333985051
 20
375.3681816516717
 30
0.0
 11
803.4893712734847
 21
291.2026574410361
 31
0.0
  0
ARC
  5
2BC
330
1F
100
AcDbEntity
  8
0
100
AcDbCircle
 10
871.2644332392963
 20
307.5067899034887
 30
0.0
 40
29.20436646738944
100
AcDbArc
 50
254.5599812112739
 51
266.5153743726761
  0
LINE
  5
2BD
330
1F
100
AcDbEntity
  8
0
100
AcDbLine
 10
863.4893712734847
 20
281.3564181086195
 30
0.0
 11
863.4893712734847
 21
279.3564181086195
 31
0.0
  0
ARC
  5
2BE
330
1F
100
AcDbEntity
  8
0
100
AcDbCircle
 10
863.4893712734847
 20
280.3564181086195
 30
0.0
 40
1.0
100
AcDbArc
 50
90.0
 51
180.0
  0
LINE
  5
2BF
330
1F
100
AcDbEntity
  8
0
100
AcDbLine
 10
869.4893712734847
 20
278.3564181086195
 30
0.0
 11
894.4893712734847
 21
277.8564181086195
 31
0.0
  0
LINE
  5
2C0
330
1F
100
AcDbEntity
  8
0
100
AcDbLine
 10
894.7393712734847
 20
278.1014181086194
 30
0.0
 11
894.7393712734847
 21
277.1021808204837
 31
0.0
  0
LINE
  5
2C1
330
1F
100
AcDbEntity
  8
0
100
AcDbLine
 10
885.9893712734846
 20
278.0264181086196
 30
0.0
 11
885.9893712734846
 21
278.2764181086196
 31
0.0
  0
LINE
  5
2C2
330
1F
100
AcDbEntity
  8
0
100
AcDbLine
 10
885.9893712734846
 20
278.2764181086196
 30
0.0
 11
894.7393712734847
 21
278.1014181086194
 31
0.0
  0
ARC
  5
2C3
330
1F
100
AcDbEntity
  8
0
100
AcDbCircle
 10
932.6705809203243
 20
511.5337600951132
 30
0.0
 40
70.0
100
AcDbArc
 50
234.46232220802
 51
270.0
  0
LINE
  5
2C4
330
1F
100
AcDbEntity
  8
0
100
AcDbLine
 10
948.4893712734846
 20
278.8564181086195
 30
0.0
 11
948.4893712734844
 21
276.1911638713314
 31
0.0
  0
LINE
  5
2C5
330
1F
100
AcDbEntity
  8
0
100
AcDbLine
 10
953.4893712734847
 20
256.8564181086195
 30
0.0
 11
953.4893712734847
 21
237.6064181086195
 31
0.0
  0
LINE
  5
2C6
330
1F
100
AcDbEntity
  8
0
100
AcDbLine
 10
948.4893712734846
 20
237.5216723459076
 30
0.0
 11
948.4893712734846
 21
234.8564181086195
 31
0.0
  0
LINE
  5
2C7
330
1F
100
AcDbEntity
  8
0
100
AcDbLine
 10
953.4893712734847
 20
256.8564181086195
 30
0.0
 11
953.4893712734847
 21
276.1064181086195
 31
0.0
  0
LINE
  5
2C8
330
1F
100
AcDbEntity
  8
0
100
AcDbLine
 10
978.4893712734847
 20
384.1911638713316
 30
0.0
 11
948.4893712734846
 21
279.1911638713314
 31
0.0
  0
LINE
  5
2C9
330
1F
100
AcDbEntity
  8
0
100
AcDbLine
 10
954.0431177144128
 20
384.1911638713316
 30
0.0
 11
978.4893712734847
 21
384.1911638713316
 31
0.0
  0
LINE
  5
2CA
330
1F
100
AcDbEntity
  8
0
100
AcDbLine
 10
951.8366470421439
 20
649.4933540271084
 30
0.0
 11
943.9292193885334
 21
634.1301251301773
 31
0.0
  0
MTEXT
  5
2CB
330
1F
100
AcDbEntity
  8
0
100
AcDbMText
 10
760.5704469358947
 20
646.0240445433308
 30
0.0
 40
8.0
 41
212.6708999999999
 71
     1
 72
     5
  1
Clef d'aile: tube carbone O 3
 73
     1
 44
1.0
  0
LINE
  5
2CC
330
1F
100
AcDbEntity
  8
0
100
AcDbLine
 10
968.640622984085
 20
609.5856761422631
 30
0.0
 11
933.640622984085
 21
609.5856761422631
 31
0.0
  0
LINE
  5
2CD
330
1F
100
AcDbEntity
  8
0
100
AcDbLine
 10
948.8954246926839
 20
614.2574606500919
 30
0.0
 11
883.9041422378903
 21
613.1929396868358
 31
0.0
  0
LINE
  5
2CE
330
1F
100
AcDbEntity
  8
0
100
AcDbLine
 10
774.6496586593928
 20
614.4038145754142
 30
0.0
 11
799.6463057573903
 21
614.8132457151277
 31
0.0
  0
LINE
  5
2CF
330
1F
100
AcDbEntity
  8
0
100
AcDbLine
 10
686.1043331774469
 20
571.0508456882131
 30
0.0
 11
686.1043331774469
 21
524.830845688213
 31
0.0
  0
LINE
  5
2D0
330
1F
100
AcDbEntity
  8
0
100
AcDbLine
 10
694.7095196825658
 20
610.0940372765697
 30
0.0
 11
774.6987903961582
 21
611.4042169236544
 31
0.0
  0
LINE
  5
2D1
330
1F
100
AcDbEntity
  8
0
100
AcDbLine
 10
674.6630702674021
 20
612.7660900165591
 30
0.0
 11
694.6603879458002
 21
613.0936349283301
 31
0.0
  0
LINE
  5
2D2
330
1F
100
AcDbEntity
  8
0
100
AcDbLine
 10
674.7122020041676
 20
609.7664923647989
 30
0.0
 11
674.6630702674021
 21
612.7660900165591
 31
0.0
  0
LINE
  5
2D3
330
1F
100
AcDbEntity
  8
0
100
AcDbLine
 10
694.6603879458002
 20
613.0936349283301
 30
0.0
 11
694.7095196825658
 21
610.0940372765697
 31
0.0
  0
LINE
  5
2D4
330
1F
100
AcDbEntity
  8
0
100
AcDbLine
 10
774.6987903961582
 20
611.4042169236544
 30
0.0
 11
774.6496586593928
 21
614.4038145754142
 31
0.0
  0
LINE
  5
2D5
330
1F
100
AcDbEntity
  8
0
100
AcDbLine
 10
821.9623582394438
 20
612.1783678076971
 30
0.0
 11
821.9623582394438
 21
522.178367807697
 31
0.0
  0
LINE
  5
2D6
330
1F
100
AcDbEntity
  8
0
100
AcDbLine
 10
824.9623582394438
 20
522.178367807697
 30
0.0
 11
824.9623582394438
 21
612.2275061347026
 31
0.0
  0
LINE
  5
2D7
330
1F
100
AcDbEntity
  8
0
100
AcDbLine
 10
821.9623582394438
 20
522.178367807697
 30
0.0
 11
824.9623582394438
 21
522.178367807697
 31
0.0
  0
LINE
  5
2D8
330
1F
100
AcDbEntity
  8
0
100
AcDbLine
 10
883.8550105011247
 20
616.1925373385956
 30
0.0
 11
858.8583634031271
 21
615.7831061988816
 31
0.0
  0
LINE
  5
2D9
330
1F
100
AcDbEntity
  8
0
100
AcDbLine
 10
822.9304579037867
 20
632.5542882237859
 30
0.0
 11
823.4781455864881
 21
601.9083829952059
 31
0.0
  0
LINE
  5
2DA
330
1F
100
AcDbEntity
  8
0
100
AcDbLine
 10
799.6954374941558
 20
611.8136480633682
 30
0.0
 11
821.9623582394435
 21
612.1783678076971
 31
0.0
  0
LINE
  5
2DB
330
1F
100
AcDbEntity
  8
0
100
AcDbLine
 10
799.6463057573903
 20
614.8132457151277
 30
0.0
 11
799.6954374941558
 21
611.8136480633682
 31
0.0
  0
CIRCLE
  5
2DC
330
1F
100
AcDbEntity
  8
0
100
AcDbCircle
 10
823.4799943138874
 20
601.8760973281459
 30
0.0
 40
0.5
  0
LINE
  5
2DD
330
1F
100
AcDbEntity
  8
0
100
AcDbLine
 10
824.9623582394436
 20
612.2275061347026
 30
0.0
 11
858.9074951398927
 21
612.7835085471223
 31
0.0
  0
LINE
  5
2DE
330
1F
100
AcDbEntity
  8
0
100
AcDbLine
 10
858.8583634031271
 20
615.7831061988816
 30
0.0
 11
858.9074951398927
 21
612.7835085471223
 31
0.0
  0
LINE
  5
2DF
330
1F
100
AcDbEntity
  8
0
100
AcDbLine
 10
883.9041422378903
 20
613.1929396868358
 30
0.0
 11
883.8550105011247
 21
616.1925373385956
 31
0.0
  0
LINE
  5
2E0
330
1F
100
AcDbEntity
  8
0
100
AcDbLine
 10
968.8436106343164
 20
617.5846032136226
 30
0.0
 11
948.8462929559185
 21
617.2570583018518
 31
0.0
  0
LINE
  5
2E1
330
1F
100
AcDbEntity
  8
0
100
AcDbLine
 10
948.8462929559185
 20
617.2570583018518
 30
0.0
 11
948.8954246926839
 21
614.2574606500919
 31
0.0
  0
LINE
  5
2E2
330
1F
100
AcDbEntity
  8
0
100
AcDbLine
 10
968.892742371082
 20
614.5850055618629
 30
0.0
 11
968.8436106343164
 21
617.5846032136226
 31
0.0
  0
ENDSEC
  0
SECTION
  2
OBJECTS
  0
DICTIONARY
  5
C
330
0
100
AcDbDictionary
281
     1
  3
ACAD_GROUP
350
D
  3
ACAD_PLOTSTYLENAME
350
E
  3
ACAD_MLINESTYLE
350
17
  3
ACAD_PLOTSETTINGS
350
19
  3
ACAD_LAYOUT
350
1A
  0
DICTIONARY
  5
D
102
{ACAD_REACTORS
330
C
102
}
330
C
100
AcDbDictionary
281
     1
  0
ACDBDICTIONARYWDFLT
  5
E
102
{ACAD_REACTORS
330
C
102
}
330
C
100
AcDbDictionary
281
     1
  3
Normal
350
F
100
AcDbDictionaryWithDefault
340
F
  0
DICTIONARY
  5
17
102
{ACAD_REACTORS
330
C
102
}
330
C
100
AcDbDictionary
281
     1
  3
Standard
350
18
  0
DICTIONARY
  5
19
102
{ACAD_REACTORS
330
C
102
}
330
C
100
AcDbDictionary
281
     1
  0
DICTIONARY
  5
1A
102
{ACAD_REACTORS
330
C
102
}
330
C
100
AcDbDictionary
281
     1
  3
Présentation1
350
1E
  3
Model
350
22
  3
Présentation2
350
26
  0
ACDBPLACEHOLDER
  5
F
102
{ACAD_REACTORS
330
E
102
}
330
E
  0
MLINESTYLE
  5
18
102
{ACAD_REACTORS
330
17
102
}
330
17
100
AcDbMlineStyle
  2
STANDARD
 70
     0
  3

 62
   256
 51
90.0
 52
90.0
 71
     2
 49
0.5
 62
   256
  6
BYLAYER
 49
-0.5
 62
   256
  6
BYLAYER
  0
LAYOUT
  5
1E
102
{ACAD_REACTORS
330
1A
102
}
330
1A
100
AcDbPlotSettings
  1

  2
C:\PROGRAM FILES\ACAD2000\plotters\DWF Classic.pc3
  4

  6

 40
0.0
 41
0.0
 42
0.0
 43
0.0
 44
0.0
 45
0.0
 46
0.0
 47
0.0
 48
0.0
 49
0.0
140
0.0
141
0.0
142
1.0
143
1.0
 70
   688
 72
     0
 73
     0
 74
     5
  7

 75
    16
147
1.0
148
0.0
149
0.0
100
AcDbLayout
  1
Présentation1
 70
     1
 71
     1
 10
0.0
 20
0.0
 11
420.0
 21
297.0
 12
0.0
 22
0.0
 32
0.0
 14
1.000000000000000E+20
 24
1.000000000000000E+20
 34
1.000000000000000E+20
 15
-1.000000000000000E+20
 25
-1.000000000000000E+20
 35
-1.000000000000000E+20
146
0.0
 13
0.0
 23
0.0
 33
0.0
 16
1.0
 26
0.0
 36
0.0
 17
0.0
 27
1.0
 37
0.0
 76
     0
330
1B
  0
LAYOUT
  5
22
102
{ACAD_REACTORS
330
1A
102
}
330
1A
100
AcDbPlotSettings
  1

  2
C:\PROGRAM FILES\ACAD2000\plotters\DWF Classic.pc3
  4

  6

 40
0.0
 41
0.0
 42
0.0
 43
0.0
 44
0.0
 45
0.0
 46
0.0
 47
0.0
 48
0.0
 49
0.0
140
0.0
141
0.0
142
1.0
143
1.0
 70
  1712
 72
     0
 73
     0
 74
     0
  7

 75
     0
147
1.0
148
0.0
149
0.0
100
AcDbLayout
  1
Model
 70
     1
 71
     0
 10
0.0
 20
0.0
 11
12.0
 21
9.0
 12
0.0
 22
0.0
 32
0.0
 14
0.0
 24
0.0
 34
0.0
 15
0.0
 25
0.0
 35
0.0
146
0.0
 13
0.0
 23
0.0
 33
0.0
 16
1.0
 26
0.0
 36
0.0
 17
0.0
 27
1.0
 37
0.0
 76
     0
330
1F
  0
LAYOUT
  5
26
102
{ACAD_REACTORS
330
1A
102
}
330
1A
100
AcDbPlotSettings
  1

  2
C:\PROGRAM FILES\ACAD2000\plotters\DWF Classic.pc3
  4

  6

 40
0.0
 41
0.0
 42
0.0
 43
0.0
 44
0.0
 45
0.0
 46
0.0
 47
0.0
 48
0.0
 49
0.0
140
0.0
141
0.0
142
1.0
143
1.0
 70
   688
 72
     0
 73
     0
 74
     5
  7

 75
    16
147
1.0
148
0.0
149
0.0
100
AcDbLayout
  1
Présentation2
 70
     1
 71
     2
 10
0.0
 20
0.0
 11
12.0
 21
9.0
 12
0.0
 22
0.0
 32
0.0
 14
0.0
 24
0.0
 34
0.0
 15
0.0
 25
0.0
 35
0.0
146
0.0
 13
0.0
 23
0.0
 33
0.0
 16
1.0
 26
0.0
 36
0.0
 17
0.0
 27
1.0
 37
0.0
 76
     0
330
23
  0
ENDSEC
  0
EOF
