  0
SECTION
  2
HEADER
  9
$ACADVER
  1
AC1014
  9
$ACADMAINTVER
 70
     0
  9
$DWGCODEPAGE
  3
ANSI_932
  9
$INSBASE
 10
0.0
 20
0.0
 30
0.0
  9
$EXTMIN
 10
6.0
 20
8.0
 30
0.0
  9
$EXTMAX
 10
282.996983
 20
200.0
 30
0.0
  9
$LIMMIN
 10
0.0
 20
0.0
  9
$LIMMAX
 10
286.77
 20
201.42
  9
$ORTHOMODE
 70
     1
  9
$REGENMODE
 70
     1
  9
$FILLMODE
 70
     1
  9
$QTEXTMODE
 70
     0
  9
$MIRRTEXT
 70
     1
  9
$DRAGMODE
 70
     2
  9
$LTSCALE
 40
23.333333
  9
$OSMODE
 70
   549
  9
$ATTMODE
 70
     1
  9
$TEXTSIZE
 40
4.666667
  9
$TRACEWID
 40
0.05
  9
$TEXTSTYLE
  7
STANDARD
  9
$CLAYER
  8
0
  9
$CELTYPE
  6
BYLAYER
  9
$CECOLOR
 62
   256
  9
$CELTSCALE
 40
1.0
  9
$DELOBJ
 70
     1
  9
$DISPSILH
 70
     0
  9
$DIMSCALE
 40
12.0
  9
$DIMASZ
 40
0.18
  9
$DIMEXO
 40
0.0625
  9
$DIMDLI
 40
0.38
  9
$DIMRND
 40
0.0
  9
$DIMDLE
 40
0.0
  9
$DIMEXE
 40
0.18
  9
$DIMTP
 40
0.0
  9
$DIMTM
 40
0.0
  9
$DIMTXT
 40
0.18
  9
$DIMCEN
 40
0.09
  9
$DIMTSZ
 40
0.0
  9
$DIMTOL
 70
     0
  9
$DIMLIM
 70
     0
  9
$DIMTIH
 70
     0
  9
$DIMTOH
 70
     0
  9
$DIMSE1
 70
     0
  9
$DIMSE2
 70
     0
  9
$DIMTAD
 70
     0
  9
$DIMZIN
 70
     0
  9
$DIMBLK
  1

  9
$DIMASO
 70
     1
  9
$DIMSHO
 70
     1
  9
$DIMPOST
  1

  9
$DIMAPOST
  1

  9
$DIMALT
 70
     0
  9
$DIMALTD
 70
     2
  9
$DIMALTF
 40
25.4
  9
$DIMLFAC
 40
1.0
  9
$DIMTOFL
 70
     0
  9
$DIMTVP
 40
0.0
  9
$DIMTIX
 70
     0
  9
$DIMSOXD
 70
     0
  9
$DIMSAH
 70
     0
  9
$DIMBLK1
  1

  9
$DIMBLK2
  1

  9
$DIMSTYLE
  2
STANDARD_WS
  9
$DIMCLRD
 70
     0
  9
$DIMCLRE
 70
     0
  9
$DIMCLRT
 70
     0
  9
$DIMTFAC
 40
1.0
  9
$DIMGAP
 40
0.09
  9
$DIMJUST
 70
     0
  9
$DIMSD1
 70
     0
  9
$DIMSD2
 70
     0
  9
$DIMTOLJ
 70
     1
  9
$DIMTZIN
 70
     0
  9
$DIMALTZ
 70
     0
  9
$DIMALTTZ
 70
     0
  9
$DIMFIT
 70
     3
  9
$DIMUPT
 70
     0
  9
$DIMUNIT
 70
     2
  9
$DIMDEC
 70
     0
  9
$DIMTDEC
 70
     4
  9
$DIMALTU
 70
     2
  9
$DIMALTTD
 70
     2
  9
$DIMTXSTY
  7
STANDARD
  9
$DIMAUNIT
 70
     0
  9
$LUNITS
 70
     2
  9
$LUPREC
 70
     4
  9
$SKETCHINC
 40
0.1
  9
$FILLETRAD
 40
0.5
  9
$AUNITS
 70
     0
  9
$AUPREC
 70
     0
  9
$MENU
  1
acad
  9
$ELEVATION
 40
0.0
  9
$PELEVATION
 40
0.0
  9
$THICKNESS
 40
0.0
  9
$LIMCHECK
 70
     0
  9
$BLIPMODE
 70
     0
  9
$CHAMFERA
 40
11.666667
  9
$CHAMFERB
 40
11.666667
  9
$CHAMFERC
 40
23.333333
  9
$CHAMFERD
 40
0.0
  9
$SKPOLY
 70
     0
  9
$TDCREATE
 40
2450890.769659259
  9
$TDUPDATE
 40
2454180.410183738
  9
$TDINDWG
 40
0.5863453704
  9
$TDUSRTIMER
 40
0.5863453704
  9
$USRTIMER
 70
     1
  9
$ANGBASE
 50
0.0
  9
$ANGDIR
 70
     0
  9
$PDMODE
 70
     0
  9
$PDSIZE
 40
0.0
  9
$PLINEWID
 40
0.0
  9
$COORDS
 70
     1
  9
$SPLFRAME
 70
     0
  9
$SPLINETYPE
 70
     6
  9
$SPLINESEGS
 70
     8
  9
$ATTDIA
 70
     0
  9
$ATTREQ
 70
     1
  9
$HANDLING
 70
     1
  9
$HANDSEED
  5
B15
  9
$SURFTAB1
 70
     6
  9
$SURFTAB2
 70
     6
  9
$SURFTYPE
 70
     6
  9
$SURFU
 70
     6
  9
$SURFV
 70
     6
  9
$UCSNAME
  2

  9
$UCSORG
 10
0.0
 20
0.0
 30
0.0
  9
$UCSXDIR
 10
1.0
 20
0.0
 30
0.0
  9
$UCSYDIR
 10
0.0
 20
1.0
 30
0.0
  9
$PUCSNAME
  2

  9
$PUCSORG
 10
0.0
 20
0.0
 30
0.0
  9
$PUCSXDIR
 10
1.0
 20
0.0
 30
0.0
  9
$PUCSYDIR
 10
0.0
 20
1.0
 30
0.0
  9
$USERI1
 70
     0
  9
$USERI2
 70
     0
  9
$USERI3
 70
     0
  9
$USERI4
 70
     0
  9
$USERI5
 70
     0
  9
$USERR1
 40
0.0
  9
$USERR2
 40
0.0
  9
$USERR3
 40
0.0
  9
$USERR4
 40
0.0
  9
$USERR5
 40
0.0
  9
$WORLDVIEW
 70
     1
  9
$SHADEDGE
 70
     3
  9
$SHADEDIF
 70
    70
  9
$TILEMODE
 70
     1
  9
$MAXACTVP
 70
    48
  9
$PINSBASE
 10
0.0
 20
0.0
 30
0.0
  9
$PLIMCHECK
 70
     0
  9
$PEXTMIN
 10
1.000000E+20
 20
1.000000E+20
 30
1.000000E+20
  9
$PEXTMAX
 10
-1.000000E+20
 20
-1.000000E+20
 30
-1.000000E+20
  9
$PLIMMIN
 10
0.0
 20
0.0
  9
$PLIMMAX
 10
12.0
 20
9.0
  9
$UNITMODE
 70
     0
  9
$VISRETAIN
 70
     1
  9
$PLINEGEN
 70
     0
  9
$PSLTSCALE
 70
     1
  9
$TREEDEPTH
 70
  3020
  9
$PICKSTYLE
 70
     1
  9
$CMLSTYLE
  2
STANDARD
  9
$CMLJUST
 70
     0
  9
$CMLSCALE
 40
1.0
  9
$PROXYGRAPHICS
 70
     1
  9
$MEASUREMENT
 70
     0
  0
ENDSEC
  0
SECTION
  2
CLASSES
  0
CLASS
  1
DICTIONARYVAR
  2
AcDbDictionaryVar
  3
"AutoCAD"
 90
        0
280
     0
281
     0
  0
CLASS
  1
HATCH
  2
AcDbHatch
  3
"ACAD_SEDONA"
 90
        0
280
     0
281
     1
  0
ENDSEC
  0
SECTION
  2
TABLES
  0
TABLE
  2
VPORT
  5
8
100
AcDbSymbolTable
 70
     1
  0
VPORT
  5
B0F
100
AcDbSymbolTableRecord
100
AcDbViewportTableRecord
  2
*ACTIVE
 70
     0
 10
0.0
 20
0.0
 11
1.0
 21
1.0
 12
144.50082
 22
103.998566
 13
0.0
 23
0.0
 14
1.0
 24
1.0
 15
10.0
 25
10.0
 16
0.0
 26
0.0
 36
1.0
 17
0.0
 27
0.0
 37
0.0
 40
193.448285
 41
1.504938
 42
50.0
 43
0.0
 44
0.0
 50
0.0
 51
0.0
 71
     0
 72
   100
 73
     1
 74
     1
 75
     0
 76
     1
 77
     0
 78
     0
  0
ENDTAB
  0
TABLE
  2
LTYPE
  5
5
100
AcDbSymbolTable
 70
     1
  0
LTYPE
  5
12
100
AcDbSymbolTableRecord
100
AcDbLinetypeTableRecord
  2
BYBLOCK
 70
     0
  3

 72
    65
 73
     0
 40
0.0
  0
LTYPE
  5
13
100
AcDbSymbolTableRecord
100
AcDbLinetypeTableRecord
  2
BYLAYER
 70
     0
  3

 72
    65
 73
     0
 40
0.0
  0
LTYPE
  5
14
100
AcDbSymbolTableRecord
100
AcDbLinetypeTableRecord
  2
CONTINUOUS
 70
     0
  3
Solid line
 72
    65
 73
     0
 40
0.0
  0
ENDTAB
  0
TABLE
  2
LAYER
  5
2
100
AcDbSymbolTable
 70
     5
  0
LAYER
  5
E
100
AcDbSymbolTableRecord
100
AcDbLayerTableRecord
  2
0
 70
     0
 62
     7
  6
CONTINUOUS
  0
LAYER
  5
D0
100
AcDbSymbolTableRecord
100
AcDbLayerTableRecord
  2
DEFPOINTS
 70
     0
 62
     7
  6
CONTINUOUS
  0
LAYER
  5
608
100
AcDbSymbolTableRecord
100
AcDbLayerTableRecord
  2
FRAME
 70
     0
 62
     7
  6
CONTINUOUS
  0
LAYER
  5
609
100
AcDbSymbolTableRecord
100
AcDbLayerTableRecord
  2
DIMENSION
 70
     0
 62
     7
  6
CONTINUOUS
  0
LAYER
  5
652
100
AcDbSymbolTableRecord
100
AcDbLayerTableRecord
  2
TABLE
 70
     0
 62
     7
  6
CONTINUOUS
  0
ENDTAB
  0
TABLE
  2
STYLE
  5
3
100
AcDbSymbolTable
 70
     1
  0
STYLE
  5
F
100
AcDbSymbolTableRecord
100
AcDbTextStyleTableRecord
  2
STANDARD
 70
     0
 40
0.0
 41
1.0
 50
0.0
 71
     0
 42
4.666667
  3
txt
  4

  0
ENDTAB
  0
TABLE
  2
VIEW
  5
6
100
AcDbSymbolTable
 70
     0
  0
ENDTAB
  0
TABLE
  2
UCS
  5
7
100
AcDbSymbolTable
 70
     0
  0
ENDTAB
  0
TABLE
  2
APPID
  5
9
100
AcDbSymbolTable
 70
     4
  0
APPID
  5
10
100
AcDbSymbolTableRecord
100
AcDbRegAppTableRecord
  2
ACAD
 70
     0
  0
APPID
  5
24
100
AcDbSymbolTableRecord
100
AcDbRegAppTableRecord
  2
CONTENTTABDATA
 70
     0
  0
APPID
  5
25
100
AcDbSymbolTableRecord
100
AcDbRegAppTableRecord
  2
CONTENTCURRENTTAB
 70
     0
  0
APPID
  5
146
100
AcDbSymbolTableRecord
100
AcDbRegAppTableRecord
  2
DRAWINGVARIABLESXDATA
 70
     0
  0
ENDTAB
  0
TABLE
  2
DIMSTYLE
  5
A
100
AcDbSymbolTable
 70
     2
  0
DIMSTYLE
105
1D
100
AcDbSymbolTableRecord
100
AcDbDimStyleTableRecord
  2
STANDARD
 70
     0
  3

  4

  5

  6

  7

 40
1.0
 41
0.18
 42
0.0625
 43
0.38
 44
0.18
 45
0.0
 46
0.0
 47
0.0
 48
0.0
140
0.18
141
0.09
142
0.0
143
25.4
144
1.0
145
0.0
146
1.0
147
0.09
 71
     0
 72
     0
 73
     1
 74
     1
 75
     0
 76
     0
 77
     0
 78
     0
170
     0
171
     2
172
     0
173
     0
174
     0
175
     0
176
     0
177
     0
178
     0
270
     2
271
     4
272
     4
273
     2
274
     2
340
F
275
     0
280
     0
281
     0
282
     0
283
     1
284
     0
285
     0
286
     0
287
     3
288
     0
  0
DIMSTYLE
105
2D
102
{ACAD_REACTORS
330
92C
330
93A
330
948
330
956
330
964
102
}
100
AcDbSymbolTableRecord
100
AcDbDimStyleTableRecord
  2
STANDARD_WS
 70
     0
  3

  4

  5

  6

  7

 40
23.333333
 41
0.18
 42
0.0625
 43
0.38
 44
0.18
 45
0.0
 46
0.0
 47
0.0
 48
0.0
140
0.18
141
0.09
142
0.0
143
25.4
144
1.0
145
0.0
146
1.0
147
0.09
 71
     0
 72
     0
 73
     1
 74
     1
 75
     0
 76
     0
 77
     0
 78
     0
170
     0
171
     2
172
     0
173
     0
174
     0
175
     0
176
     0
177
     0
178
     0
270
     2
271
     4
272
     4
273
     2
274
     2
340
F
275
     0
280
     0
281
     0
282
     0
283
     1
284
     0
285
     0
286
     0
287
     3
288
     0
  0
ENDTAB
  0
TABLE
  2
BLOCK_RECORD
  5
1
100
AcDbSymbolTable
 70
     8
  0
BLOCK_RECORD
  5
18
100
AcDbSymbolTableRecord
100
AcDbBlockTableRecord
  2
*MODEL_SPACE
  0
BLOCK_RECORD
  5
15
100
AcDbSymbolTableRecord
100
AcDbBlockTableRecord
  2
*PAPER_SPACE
  0
BLOCK_RECORD
  5
8D7
100
AcDbSymbolTableRecord
100
AcDbBlockTableRecord
  2
A$C7B224919
  0
BLOCK_RECORD
  5
8ED
100
AcDbSymbolTableRecord
100
AcDbBlockTableRecord
  2
A$C0978713F
  0
BLOCK_RECORD
  5
8FE
100
AcDbSymbolTableRecord
100
AcDbBlockTableRecord
  2
A$C6DE4426D
  0
BLOCK_RECORD
  5
91F
100
AcDbSymbolTableRecord
100
AcDbBlockTableRecord
  2
*D3
  0
BLOCK_RECORD
  5
92D
100
AcDbSymbolTableRecord
100
AcDbBlockTableRecord
  2
*D4
  0
BLOCK_RECORD
  5
93B
100
AcDbSymbolTableRecord
100
AcDbBlockTableRecord
  2
*D5
  0
BLOCK_RECORD
  5
949
100
AcDbSymbolTableRecord
100
AcDbBlockTableRecord
  2
*D6
  0
BLOCK_RECORD
  5
957
100
AcDbSymbolTableRecord
100
AcDbBlockTableRecord
  2
*D7
  0
ENDTAB
  0
ENDSEC
  0
SECTION
  2
BLOCKS
  0
BLOCK
  5
19
100
AcDbEntity
  8
0
100
AcDbBlockBegin
  2
*MODEL_SPACE
 70
     0
 10
0.0
 20
0.0
 30
0.0
  3
*MODEL_SPACE
  1

  0
ENDBLK
  5
1A
100
AcDbEntity
  8
0
100
AcDbBlockEnd
  0
BLOCK
  5
16
100
AcDbEntity
 67
     1
  8
0
100
AcDbBlockBegin
  2
*PAPER_SPACE
 70
     0
 10
0.0
 20
0.0
 30
0.0
  3
*PAPER_SPACE
  1

  0
ENDBLK
  5
17
100
AcDbEntity
 67
     1
  8
0
100
AcDbBlockEnd
  0
BLOCK
  5
8EB
100
AcDbEntity
  8
0
100
AcDbBlockBegin
  2
A$C7B224919
 70
     0
 10
0.0
 20
0.0
 30
0.0
  3
A$C7B224919
  1

  0
ARC
  5
8D8
100
AcDbEntity
  8
0
100
AcDbCircle
 10
0.864689
 20
2.9
 30
0.0
 40
0.3
100
AcDbArc
 50
0.000116
 51
90.0
  0
ARC
  5
8D9
100
AcDbEntity
  8
0
100
AcDbCircle
 10
3.364691
 20
1.600006
 30
0.0
 40
3.4
100
AcDbArc
 50
155.206261
 51
204.793986
  0
LINE
  5
8DA
100
AcDbEntity
  8
0
100
AcDbLine
 10
0.364691
 20
1.87
 30
0.0
 11
0.364692
 21
1.33
 31
0.0
  0
LINE
  5
8DB
100
AcDbEntity
  8
0
100
AcDbLine
 10
0.281816
 20
1.87
 30
0.0
 11
0.364691
 21
1.87
 31
0.0
  0
ARC
  5
8DC
100
AcDbEntity
  8
0
100
AcDbCircle
 10
0.281816
 20
1.97
 30
0.0
 40
0.1
100
AcDbArc
 50
170.98079
 51
270.0
  0
LINE
  5
8DD
100
AcDbEntity
  8
0
100
AcDbLine
 10
0.281817
 20
1.33
 30
0.0
 11
0.364692
 21
1.33
 31
0.0
  0
ARC
  5
8DE
100
AcDbEntity
  8
0
100
AcDbCircle
 10
0.281817
 20
1.23
 30
0.0
 40
0.1
100
AcDbArc
 50
90.0
 51
189.019435
  0
LINE
  5
8DF
100
AcDbEntity
  8
0
100
AcDbLine
 10
0.246329
 20
2.384324
 30
0.0
 11
0.183052
 21
1.985677
 31
0.0
  0
ARC
  5
8E0
100
AcDbEntity
  8
0
100
AcDbCircle
 10
0.147565
 20
2.4
 30
0.0
 40
0.1
100
AcDbArc
 50
350.98079
 51
90.0
  0
LINE
  5
8E1
100
AcDbEntity
  8
0
100
AcDbLine
 10
0.085971
 20
2.5
 30
0.0
 11
0.147565
 21
2.5
 31
0.0
  0
ARC
  5
8E2
100
AcDbEntity
  8
0
100
AcDbCircle
 10
0.864694
 20
0.3
 30
0.0
 40
0.3
100
AcDbArc
 50
270.0
 51
0.000116
  0
LINE
  5
8E3
100
AcDbEntity
  8
0
100
AcDbLine
 10
0.550445
 20
0.0
 30
0.0
 11
0.864694
 21
0.0
 31
0.0
  0
ARC
  5
8E4
100
AcDbEntity
  8
0
100
AcDbCircle
 10
0.550445
 20
0.3
 30
0.0
 40
0.3
100
AcDbArc
 50
204.793986
 51
270.0
  0
ARC
  5
8E5
100
AcDbEntity
  8
0
100
AcDbCircle
 10
0.147568
 20
0.8
 30
0.0
 40
0.1
100
AcDbArc
 50
270.0
 51
9.019435
  0
LINE
  5
8E6
100
AcDbEntity
  8
0
100
AcDbLine
 10
0.085974
 20
0.7
 30
0.0
 11
0.147568
 21
0.7
 31
0.0
  0
LINE
  5
8E7
100
AcDbEntity
  8
0
100
AcDbLine
 10
1.164689
 20
2.900001
 30
0.0
 11
1.164694
 21
0.300001
 31
0.0
  0
LINE
  5
8E8
100
AcDbEntity
  8
0
100
AcDbLine
 10
0.183054
 20
1.214323
 30
0.0
 11
0.246332
 21
0.815677
 31
0.0
  0
LINE
  5
8E9
100
AcDbEntity
  8
0
100
AcDbLine
 10
0.550439
 20
3.2
 30
0.0
 11
0.864689
 21
3.2
 31
0.0
  0
ARC
  5
8EA
100
AcDbEntity
  8
0
100
AcDbCircle
 10
0.550439
 20
2.9
 30
0.0
 40
0.3
100
AcDbArc
 50
90.0
 51
155.206261
  0
ENDBLK
  5
8EC
100
AcDbEntity
  8
0
100
AcDbBlockEnd
  0
BLOCK
  5
8EF
100
AcDbEntity
  8
0
100
AcDbBlockBegin
  2
A$C0978713F
 70
     0
 10
0.0
 20
0.0
 30
0.0
  3
A$C0978713F
  1

  0
INSERT
  5
8EE
100
AcDbEntity
  8
0
100
AcDbBlockReference
  2
A$C7B224919
 10
0.033894
 20
0.0
 30
0.0
  0
ENDBLK
  5
8F0
100
AcDbEntity
  8
0
100
AcDbBlockEnd
  0
BLOCK
  5
90F
100
AcDbEntity
  8
0
100
AcDbBlockBegin
  2
A$C6DE4426D
 70
     0
 10
0.0
 20
0.0
 30
0.0
  3
A$C6DE4426D
  1

  0
ARC
  5
8FF
100
AcDbEntity
  8
0
100
AcDbCircle
 10
0.085022
 20
1.644867
 30
0.0
 40
1.5
100
AcDbArc
 50
284.999711
 51
314.999667
  0
ARC
  5
900
100
AcDbEntity
  8
0
100
AcDbCircle
 10
2.326334
 20
0.067798
 30
0.0
 40
1.5
100
AcDbArc
 50
59.999778
 51
134.999667
  0
ARC
  5
901
100
AcDbEntity
  8
0
100
AcDbCircle
 10
2.326334
 20
0.067798
 30
0.0
 40
1.2
100
AcDbArc
 50
59.999778
 51
134.999667
  0
ARC
  5
902
100
AcDbEntity
  8
0
100
AcDbCircle
 10
0.085022
 20
1.644867
 30
0.0
 40
1.2
100
AcDbArc
 50
284.999711
 51
314.999667
  0
LINE
  5
903
100
AcDbEntity
  8
0
100
AcDbLine
 10
0.0
 20
0.379756
 30
0.0
 11
0.077644
 21
0.089978
 31
0.0
  0
LINE
  5
904
100
AcDbEntity
  8
0
100
AcDbLine
 10
0.395599
 20
0.485755
 30
0.0
 11
0.0
 21
0.379756
 31
0.0
  0
LINE
  5
905
100
AcDbEntity
  8
0
100
AcDbLine
 10
0.473243
 20
0.195977
 30
0.0
 11
0.077644
 21
0.089978
 31
0.0
  0
LINE
  5
906
100
AcDbEntity
  8
0
100
AcDbLine
 10
1.47781
 20
0.916331
 30
0.0
 11
1.145676
 21
0.584201
 31
0.0
  0
LINE
  5
907
100
AcDbEntity
  8
0
100
AcDbLine
 10
1.26568
 20
1.128465
 30
0.0
 11
0.933545
 21
0.796334
 31
0.0
  0
LINE
  5
908
100
AcDbEntity
  8
0
100
AcDbLine
 10
5.513625
 20
0.0
 30
0.0
 11
9.924051
 21
0.0
 31
0.0
  0
LINE
  5
909
100
AcDbEntity
  8
0
100
AcDbLine
 10
5.513625
 20
0.3
 30
0.0
 11
9.924053
 21
0.3
 31
0.0
  0
ARC
  5
90A
100
AcDbEntity
  8
0
100
AcDbCircle
 10
5.513625
 20
2.5
 30
0.0
 40
2.5
100
AcDbArc
 50
239.999778
 51
270.0
  0
ARC
  5
90B
100
AcDbEntity
  8
0
100
AcDbCircle
 10
5.513625
 20
2.5
 30
0.0
 40
2.2
100
AcDbArc
 50
239.999778
 51
270.0
  0
LINE
  5
90C
100
AcDbEntity
  8
0
100
AcDbLine
 10
4.263616
 20
0.334941
 30
0.0
 11
2.926338
 21
1.107026
 31
0.0
  0
LINE
  5
90D
100
AcDbEntity
  8
0
100
AcDbLine
 10
4.413617
 20
0.594748
 30
0.0
 11
3.076339
 21
1.366833
 31
0.0
  0
LINE
  5
90E
100
AcDbEntity
  8
0
100
AcDbLine
 10
9.924053
 20
0.30001
 30
0.0
 11
9.924051
 21
0.00001
 31
0.0
  0
ENDBLK
  5
910
100
AcDbEntity
  8
0
100
AcDbBlockEnd
  0
BLOCK
  5
AC0
100
AcDbEntity
  8
0
100
AcDbBlockBegin
  2
*D3
 70
     1
 10
0.0
 20
0.0
 30
0.0
  3
*D3
  1

  0
LINE
  5
AC1
100
AcDbEntity
  8
0
  6
BYBLOCK
 62
     0
100
AcDbLine
 10
221.801413
 20
160.300003
 30
0.0
 11
235.711413
 21
160.300003
 31
0.0
  0
LINE
  5
AC2
100
AcDbEntity
  8
0
  6
BYBLOCK
 62
     0
100
AcDbLine
 10
221.801413
 20
111.800003
 30
0.0
 11
235.711413
 21
111.800003
 31
0.0
  0
LINE
  5
AC3
100
AcDbEntity
  8
0
  6
BYBLOCK
 62
     0
100
AcDbLine
 10
233.551413
 20
158.140003
 30
0.0
 11
233.551413
 21
139.308412
 31
0.0
  0
LINE
  5
AC4
100
AcDbEntity
  8
0
  6
BYBLOCK
 62
     0
100
AcDbLine
 10
233.551413
 20
113.960003
 30
0.0
 11
233.551413
 21
132.791594
 31
0.0
  0
SOLID
  5
AC5
100
AcDbEntity
  8
0
  6
BYBLOCK
 62
     0
100
AcDbTrace
 10
233.191413
 20
158.140003
 30
0.0
 11
233.911413
 21
158.140003
 31
0.0
 12
233.551413
 22
160.300003
 32
0.0
 13
233.551413
 23
160.300003
 33
0.0
  0
SOLID
  5
AC6
100
AcDbEntity
  8
0
  6
BYBLOCK
 62
     0
100
AcDbTrace
 10
233.191413
 20
113.960003
 30
0.0
 11
233.911413
 21
113.960003
 31
0.0
 12
233.551413
 22
111.800003
 32
0.0
 13
233.551413
 23
111.800003
 33
0.0
  0
MTEXT
  5
AC7
100
AcDbEntity
  8
0
  6
BYBLOCK
 62
     0
100
AcDbMText
 10
233.551413
 20
136.050003
 30
0.0
 40
2.16
 41
0.0
 71
     5
 72
     1
  1
\A1;\fÇlÇr ÇoÉSÉVÉbÉN|b0|i0|c128|p50;É”Ç`
 11
0.0
 21
1.0
 31
0.0
  0
POINT
  5
AC8
100
AcDbEntity
  8
DEFPOINTS
  6
BYBLOCK
 62
     0
100
AcDbPoint
 10
221.051413
 20
160.300003
 30
0.0
  0
POINT
  5
AC9
100
AcDbEntity
  8
DEFPOINTS
  6
BYBLOCK
 62
     0
100
AcDbPoint
 10
221.051413
 20
111.800003
 30
0.0
  0
POINT
  5
ACA
100
AcDbEntity
  8
DEFPOINTS
  6
BYBLOCK
 62
     0
100
AcDbPoint
 10
233.551413
 20
111.800003
 30
0.0
  0
ENDBLK
  5
ACB
100
AcDbEntity
  8
0
100
AcDbBlockEnd
  0
BLOCK
  5
A9F
100
AcDbEntity
  8
0
100
AcDbBlockBegin
  2
*D4
 70
     1
 10
0.0
 20
0.0
 30
0.0
  3
*D4
  1

  0
LINE
  5
AA0
100
AcDbEntity
  8
0
  6
BYBLOCK
 62
     0
100
AcDbLine
 10
189.801413
 20
174.550003
 30
0.0
 11
245.711413
 21
174.550003
 31
0.0
  0
LINE
  5
AA1
100
AcDbEntity
  8
0
  6
BYBLOCK
 62
     0
100
AcDbLine
 10
189.801413
 20
97.550003
 30
0.0
 11
245.711413
 21
97.550003
 31
0.0
  0
LINE
  5
AA2
100
AcDbEntity
  8
0
  6
BYBLOCK
 62
     0
100
AcDbLine
 10
243.551413
 20
172.390003
 30
0.0
 11
243.551413
 21
139.664321
 31
0.0
  0
LINE
  5
AA3
100
AcDbEntity
  8
0
  6
BYBLOCK
 62
     0
100
AcDbLine
 10
243.551413
 20
99.710003
 30
0.0
 11
243.551413
 21
132.435685
 31
0.0
  0
SOLID
  5
AA4
100
AcDbEntity
  8
0
  6
BYBLOCK
 62
     0
100
AcDbTrace
 10
243.191413
 20
172.390003
 30
0.0
 11
243.911413
 21
172.390003
 31
0.0
 12
243.551413
 22
174.550003
 32
0.0
 13
243.551413
 23
174.550003
 33
0.0
  0
SOLID
  5
AA5
100
AcDbEntity
  8
0
  6
BYBLOCK
 62
     0
100
AcDbTrace
 10
243.191413
 20
99.710003
 30
0.0
 11
243.911413
 21
99.710003
 31
0.0
 12
243.551413
 22
97.550003
 32
0.0
 13
243.551413
 23
97.550003
 33
0.0
  0
MTEXT
  5
AA6
100
AcDbEntity
  8
0
  6
BYBLOCK
 62
     0
100
AcDbMText
 10
243.551413
 20
136.050003
 30
0.0
 40
2.16
 41
0.0
 71
     5
 72
     1
  1
\A1;\fÇlÇr ÇoÉSÉVÉbÉN|b0|i0|c128|p50;Å†Ça
 11
0.0
 21
1.0
 31
0.0
  0
POINT
  5
AA7
100
AcDbEntity
  8
DEFPOINTS
  6
BYBLOCK
 62
     0
100
AcDbPoint
 10
189.051413
 20
174.550003
 30
0.0
  0
POINT
  5
AA8
100
AcDbEntity
  8
DEFPOINTS
  6
BYBLOCK
 62
     0
100
AcDbPoint
 10
189.051413
 20
97.550003
 30
0.0
  0
POINT
  5
AA9
100
AcDbEntity
  8
DEFPOINTS
  6
BYBLOCK
 62
     0
100
AcDbPoint
 10
243.551413
 20
97.550003
 30
0.0
  0
ENDBLK
  5
AAA
100
AcDbEntity
  8
0
100
AcDbBlockEnd
  0
BLOCK
  5
A93
100
AcDbEntity
  8
0
100
AcDbBlockBegin
  2
*D5
 70
     1
 10
0.0
 20
0.0
 30
0.0
  3
*D5
  1

  0
LINE
  5
A94
100
AcDbEntity
  8
0
  6
BYBLOCK
 62
     0
100
AcDbLine
 10
189.051413
 20
97.300003
 30
0.0
 11
189.051413
 21
83.390003
 31
0.0
  0
LINE
  5
A95
100
AcDbEntity
  8
0
  6
BYBLOCK
 62
     0
100
AcDbLine
 10
194.051413
 20
96.800003
 30
0.0
 11
194.051413
 21
83.390003
 31
0.0
  0
LINE
  5
A96
100
AcDbEntity
  8
0
  6
BYBLOCK
 62
     0
100
AcDbLine
 10
186.891413
 20
85.550003
 30
0.0
 11
184.731413
 21
85.550003
 31
0.0
  0
LINE
  5
A97
100
AcDbEntity
  8
0
  6
BYBLOCK
 62
     0
100
AcDbLine
 10
196.211413
 20
85.550003
 30
0.0
 11
198.371413
 21
85.550003
 31
0.0
  0
SOLID
  5
A98
100
AcDbEntity
  8
0
  6
BYBLOCK
 62
     0
100
AcDbTrace
 10
186.891413
 20
85.910003
 30
0.0
 11
186.891413
 21
85.190003
 31
0.0
 12
189.051413
 22
85.550003
 32
0.0
 13
189.051413
 23
85.550003
 33
0.0
  0
SOLID
  5
A99
100
AcDbEntity
  8
0
  6
BYBLOCK
 62
     0
100
AcDbTrace
 10
196.211413
 20
85.910003
 30
0.0
 11
196.211413
 21
85.190003
 31
0.0
 12
194.051413
 22
85.550003
 32
0.0
 13
194.051413
 23
85.550003
 33
0.0
  0
MTEXT
  5
A9A
100
AcDbEntity
  8
0
  6
BYBLOCK
 62
     0
100
AcDbMText
 10
191.551413
 20
85.550003
 30
0.0
 40
2.16
 41
0.0
 71
     5
 72
     1
  1
\A1;\fÇlÇr ÇoÉSÉVÉbÉN|b0|i0|c128|p50;Çd
  0
POINT
  5
A9B
100
AcDbEntity
  8
DEFPOINTS
  6
BYBLOCK
 62
     0
100
AcDbPoint
 10
189.051413
 20
98.050003
 30
0.0
  0
POINT
  5
A9C
100
AcDbEntity
  8
DEFPOINTS
  6
BYBLOCK
 62
     0
100
AcDbPoint
 10
194.051413
 20
97.550003
 30
0.0
  0
POINT
  5
A9D
100
AcDbEntity
  8
DEFPOINTS
  6
BYBLOCK
 62
     0
100
AcDbPoint
 10
194.051413
 20
85.550003
 30
0.0
  0
ENDBLK
  5
A9E
100
AcDbEntity
  8
0
100
AcDbBlockEnd
  0
BLOCK
  5
A87
100
AcDbEntity
  8
0
100
AcDbBlockBegin
  2
*D6
 70
     1
 10
0.0
 20
0.0
 30
0.0
  3
*D6
  1

  0
LINE
  5
A88
100
AcDbEntity
  8
0
  6
BYBLOCK
 62
     0
100
AcDbLine
 10
184.051413
 20
97.300003
 30
0.0
 11
184.051413
 21
73.390003
 31
0.0
  0
LINE
  5
A89
100
AcDbEntity
  8
0
  6
BYBLOCK
 62
     0
100
AcDbLine
 10
194.051413
 20
99.300003
 30
0.0
 11
194.051413
 21
73.390003
 31
0.0
  0
LINE
  5
A8A
100
AcDbEntity
  8
0
  6
BYBLOCK
 62
     0
100
AcDbLine
 10
186.211413
 20
75.550003
 30
0.0
 11
187.291413
 21
75.550003
 31
0.0
  0
LINE
  5
A8B
100
AcDbEntity
  8
0
  6
BYBLOCK
 62
     0
100
AcDbLine
 10
191.891413
 20
75.550003
 30
0.0
 11
190.811413
 21
75.550003
 31
0.0
  0
SOLID
  5
A8C
100
AcDbEntity
  8
0
  6
BYBLOCK
 62
     0
100
AcDbTrace
 10
186.211413
 20
75.910003
 30
0.0
 11
186.211413
 21
75.190003
 31
0.0
 12
184.051413
 22
75.550003
 32
0.0
 13
184.051413
 23
75.550003
 33
0.0
  0
SOLID
  5
A8D
100
AcDbEntity
  8
0
  6
BYBLOCK
 62
     0
100
AcDbTrace
 10
191.891413
 20
75.910003
 30
0.0
 11
191.891413
 21
75.190003
 31
0.0
 12
194.051413
 22
75.550003
 32
0.0
 13
194.051413
 23
75.550003
 33
0.0
  0
MTEXT
  5
A8E
100
AcDbEntity
  8
0
  6
BYBLOCK
 62
     0
100
AcDbMText
 10
189.211801
 20
75.550003
 30
0.0
 40
2.16
 41
0.0
 71
     5
 72
     1
  1
\A1;\fÇlÇr ÇoÉSÉVÉbÉN|b0|i0|c128|p50;Çb
  0
POINT
  5
A8F
100
AcDbEntity
  8
DEFPOINTS
  6
BYBLOCK
 62
     0
100
AcDbPoint
 10
184.051413
 20
98.050003
 30
0.0
  0
POINT
  5
A90
100
AcDbEntity
  8
DEFPOINTS
  6
BYBLOCK
 62
     0
100
AcDbPoint
 10
194.051413
 20
100.050003
 30
0.0
  0
POINT
  5
A91
100
AcDbEntity
  8
DEFPOINTS
  6
BYBLOCK
 62
     0
100
AcDbPoint
 10
194.051413
 20
75.550003
 30
0.0
  0
ENDBLK
  5
A92
100
AcDbEntity
  8
0
100
AcDbBlockEnd
  0
BLOCK
  5
A7B
100
AcDbEntity
  8
0
100
AcDbBlockBegin
  2
*D7
 70
     1
 10
0.0
 20
0.0
 30
0.0
  3
*D7
  1

  0
LINE
  5
A7C
100
AcDbEntity
  8
0
  6
BYBLOCK
 62
     0
100
AcDbLine
 10
194.051413
 20
99.300003
 30
0.0
 11
194.051413
 21
73.390003
 31
0.0
  0
LINE
  5
A7D
100
AcDbEntity
  8
0
  6
BYBLOCK
 62
     0
100
AcDbLine
 10
221.551413
 20
111.550003
 30
0.0
 11
221.551413
 21
73.390003
 31
0.0
  0
LINE
  5
A7E
100
AcDbEntity
  8
0
  6
BYBLOCK
 62
     0
100
AcDbLine
 10
196.211413
 20
75.550003
 30
0.0
 11
205.739595
 21
75.550003
 31
0.0
  0
LINE
  5
A7F
100
AcDbEntity
  8
0
  6
BYBLOCK
 62
     0
100
AcDbLine
 10
219.391413
 20
75.550003
 30
0.0
 11
209.863231
 21
75.550003
 31
0.0
  0
SOLID
  5
A80
100
AcDbEntity
  8
0
  6
BYBLOCK
 62
     0
100
AcDbTrace
 10
196.211413
 20
75.910003
 30
0.0
 11
196.211413
 21
75.190003
 31
0.0
 12
194.051413
 22
75.550003
 32
0.0
 13
194.051413
 23
75.550003
 33
0.0
  0
SOLID
  5
A81
100
AcDbEntity
  8
0
  6
BYBLOCK
 62
     0
100
AcDbTrace
 10
219.391413
 20
75.910003
 30
0.0
 11
219.391413
 21
75.190003
 31
0.0
 12
221.551413
 22
75.550003
 32
0.0
 13
221.551413
 23
75.550003
 33
0.0
  0
MTEXT
  5
A82
100
AcDbEntity
  8
0
  6
BYBLOCK
 62
     0
100
AcDbMText
 10
207.801413
 20
75.550003
 30
0.0
 40
2.16
 41
0.0
 71
     5
 72
     1
  1
\A1;\fÇlÇr ÇoÉSÉVÉbÉN|b0|i0|c128|p50;Çc
  0
POINT
  5
A83
100
AcDbEntity
  8
DEFPOINTS
  6
BYBLOCK
 62
     0
100
AcDbPoint
 10
194.051413
 20
100.050003
 30
0.0
  0
POINT
  5
A84
100
AcDbEntity
  8
DEFPOINTS
  6
BYBLOCK
 62
     0
100
AcDbPoint
 10
221.551413
 20
112.300003
 30
0.0
  0
POINT
  5
A85
100
AcDbEntity
  8
DEFPOINTS
  6
BYBLOCK
 62
     0
100
AcDbPoint
 10
221.551413
 20
75.550003
 30
0.0
  0
ENDBLK
  5
A86
100
AcDbEntity
  8
0
100
AcDbBlockEnd
  0
ENDSEC
  0
SECTION
  2
ENTITIES
  0
LINE
  5
30
100
AcDbEntity
  8
FRAME
100
AcDbLine
 10
282.996983
 20
190.0
 30
0.0
 11
6.0
 21
190.0
 31
0.0
  0
LINE
  5
35
100
AcDbEntity
  8
FRAME
100
AcDbLine
 10
107.0
 20
200.0
 30
0.0
 11
6.0
 21
200.0
 31
0.0
  0
LINE
  5
36
100
AcDbEntity
  8
FRAME
100
AcDbLine
 10
107.0
 20
190.0
 30
0.0
 11
107.0
 21
200.0
 31
0.0
  0
LINE
  5
39
100
AcDbEntity
  8
FRAME
100
AcDbLine
 10
282.996983
 20
8.0
 30
0.0
 11
282.996983
 21
190.0
 31
0.0
  0
LINE
  5
3A
100
AcDbEntity
  8
FRAME
100
AcDbLine
 10
172.996983
 20
8.0
 30
0.0
 11
172.996983
 21
63.62047
 31
0.0
  0
LINE
  5
3B
100
AcDbEntity
  8
FRAME
100
AcDbLine
 10
6.0
 20
8.0
 30
0.0
 11
282.996983
 21
8.0
 31
0.0
  0
LINE
  5
3C
100
AcDbEntity
  8
FRAME
100
AcDbLine
 10
172.996983
 20
23.62047
 30
0.0
 11
282.996983
 21
23.62047
 31
0.0
  0
LINE
  5
3D
100
AcDbEntity
  8
FRAME
100
AcDbLine
 10
172.996983
 20
33.62047
 30
0.0
 11
212.996983
 21
33.62047
 31
0.0
  0
LINE
  5
49
100
AcDbEntity
  8
FRAME
100
AcDbLine
 10
202.996983
 20
23.62047
 30
0.0
 11
202.996983
 21
37.62047
 31
0.0
  0
LINE
  5
4A
100
AcDbEntity
  8
FRAME
100
AcDbLine
 10
212.996983
 20
23.62047
 30
0.0
 11
212.996983
 21
37.62047
 31
0.0
  0
LINE
  5
58
100
AcDbEntity
  8
FRAME
100
AcDbLine
 10
6.0
 20
200.0
 30
0.0
 11
6.0
 21
8.0
 31
0.0
  0
LINE
  5
59
100
AcDbEntity
  8
FRAME
100
AcDbLine
 10
172.996983
 20
37.62047
 30
0.0
 11
282.996983
 21
37.62047
 31
0.0
  0
LINE
  5
5B
100
AcDbEntity
  8
FRAME
100
AcDbLine
 10
236.996983
 20
23.62047
 30
0.0
 11
236.996983
 21
37.62047
 31
0.0
  0
LINE
  5
5C
100
AcDbEntity
  8
FRAME
100
AcDbLine
 10
212.996983
 20
30.62047
 30
0.0
 11
236.996983
 21
30.62047
 31
0.0
  0
LINE
  5
5D
100
AcDbEntity
  8
FRAME
100
AcDbLine
 10
216.996983
 20
23.62047
 30
0.0
 11
216.996983
 21
37.62047
 31
0.0
  0
LINE
  5
5E
100
AcDbEntity
  8
FRAME
100
AcDbLine
 10
240.996983
 20
23.62047
 30
0.0
 11
240.996983
 21
37.62047
 31
0.0
  0
LINE
  5
5F
100
AcDbEntity
  8
FRAME
100
AcDbLine
 10
172.996983
 20
51.62047
 30
0.0
 11
282.996983
 21
51.62047
 31
0.0
  0
LINE
  5
60
100
AcDbEntity
  8
FRAME
100
AcDbLine
 10
31.0
 20
200.0
 30
0.0
 11
31.0
 21
190.0
 31
0.0
  0
LINE
  5
66
100
AcDbEntity
  8
FRAME
100
AcDbLine
 10
176.996983
 20
37.62047
 30
0.0
 11
176.996983
 21
51.62047
 31
0.0
  0
LINE
  5
67
100
AcDbEntity
  8
FRAME
100
AcDbLine
 10
172.996983
 20
57.62047
 30
0.0
 11
282.996983
 21
57.62047
 31
0.0
  0
LINE
  5
68
100
AcDbEntity
  8
FRAME
100
AcDbLine
 10
172.996983
 20
63.62047
 30
0.0
 11
282.996983
 21
63.62047
 31
0.0
  0
LINE
  5
6A
100
AcDbEntity
  8
FRAME
100
AcDbLine
 10
250.996983
 20
37.62047
 30
0.0
 11
250.996983
 21
51.62047
 31
0.0
  0
LINE
  5
6B
100
AcDbEntity
  8
FRAME
100
AcDbLine
 10
246.996983
 20
37.62047
 30
0.0
 11
246.996983
 21
51.62047
 31
0.0
  0
MTEXT
  5
74
100
AcDbEntity
  8
0
100
AcDbMText
 10
177.996983
 20
30.245612
 30
0.0
 40
4.666667
 41
10.0
 71
     5
 72
     5
  1

  0
MTEXT
  5
75
100
AcDbEntity
  8
0
100
AcDbMText
 10
172.996983
 20
32.245612
 30
0.0
 40
4.666667
 41
110.0
 71
     1
 72
     5
  1

  0
MTEXT
  5
79
100
AcDbEntity
  8
FRAME
100
AcDbMText
 10
177.996983
 20
35.62047
 30
0.0
 40
2.5
 41
10.0
 71
     5
 72
     5
  1
\fÇlÇr ÇoÉSÉVÉbÉN|b0|i0|c128|p2;è≥îF
  0
MTEXT
  5
7A
100
AcDbEntity
  8
FRAME
100
AcDbMText
 10
187.996983
 20
35.62047
 30
0.0
 40
2.5
 41
10.0
 71
     5
 72
     5
  1
\fÇlÇr ÇoÉSÉVÉbÉN|b0|i0|c128|p2;åüê}
  0
MTEXT
  5
7B
100
AcDbEntity
  8
FRAME
100
AcDbMText
 10
197.996983
 20
35.62047
 30
0.0
 40
2.5
 41
10.0
 71
     5
 72
     5
  1
\fÇlÇr ÇoÉSÉVÉbÉN|b0|i0|c128|p2;êªê}
  0
MTEXT
  5
7C
100
AcDbEntity
  8
FRAME
100
AcDbMText
 10
207.996983
 20
35.62047
 30
0.0
 40
2.5
 41
10.0
 71
     5
 72
     5
  1
\fÇlÇr ÇoÉSÉVÉbÉN|b0|i0|c128|p2;ê›åv
  0
MTEXT
  5
7E
100
AcDbEntity
  8
FRAME
100
AcDbMText
 10
214.996983
 20
34.12047
 30
0.0
 40
2.0
 41
4.0
 71
     5
 72
     5
  1
\fÇlÇr ÇoÉSÉVÉbÉN|b0|i0|c128|p2;é⁄ìx
  0
MTEXT
  5
7F
100
AcDbEntity
  8
0
100
AcDbMText
 10
214.996983
 20
21.745612
 30
0.0
 40
2.0
 41
4.0
 71
     5
 72
     5
  1

  0
MTEXT
  5
85
100
AcDbEntity
  8
FRAME
100
AcDbMText
 10
214.996983
 20
27.12047
 30
0.0
 40
1.3
 41
4.0
 71
     5
 72
     5
  1
\fÇlÇr ÇoÉSÉVÉbÉN|b0|i0|c128|p2;çÏê¨ì˙
  0
MTEXT
  5
88
100
AcDbEntity
  8
FRAME
100
AcDbMText
 10
238.996983
 20
30.62047
 30
0.0
 40
2.0
 41
4.0
 71
     5
 72
     5
  1
\fÇlÇr ÇoÉSÉVÉbÉN|b0|i0|c128|p2;ê}î‘
  0
MTEXT
  5
8B
100
AcDbEntity
  8
FRAME
100
AcDbMText
 10
174.996983
 20
44.62047
 30
0.0
 40
1.8
 41
4.0
 71
     5
 72
     5
  1
\fÇlÇr ÇoÉSÉVÉbÉN|b0|i0|c128|p2;ê}ñ ñºèÃ
  0
MTEXT
  5
8C
100
AcDbEntity
  8
FRAME
100
AcDbMText
 10
248.996983
 20
44.62047
 30
0.0
 40
2.0
 41
4.0
 71
     5
 72
     5
  1
\fÇlÇr ÇoÉSÉVÉbÉN|b0|i0|c128|p2;å^éÆ
  0
LINE
  5
8E
100
AcDbEntity
  8
FRAME
100
AcDbLine
 10
187.996983
 20
51.62047
 30
0.0
 11
187.996983
 21
63.62047
 31
0.0
  0
MTEXT
  5
8F
100
AcDbEntity
  8
FRAME
100
AcDbMText
 10
180.496983
 20
60.62047
 30
0.0
 40
2.0
 41
15.0
 71
     5
 72
     5
  1
\fÇlÇr ÇoÉSÉVÉbÉN|b0|i0|c128|p2;çﬁÅ@Å@éø
  0
MTEXT
  5
90
100
AcDbEntity
  8
FRAME
100
AcDbMText
 10
180.496983
 20
54.62047
 30
0.0
 40
2.0
 41
15.0
 71
     5
 72
     5
  1
\fÇlÇr ÇoÉSÉVÉbÉN|b0|i0|c128|p2;ï\ñ édè„
  0
MTEXT
  5
92
100
AcDbEntity
  8
FRAME
100
AcDbMText
 10
18.5
 20
195.0
 30
0.0
 40
4.666667
 41
25.0
 71
     5
 72
     5
  1
\fÇlÇr ÇoÉSÉVÉbÉN|b0|i0|c128|p2;ÇsÇhÇsÇkÇd
  0
LINE
  5
9D
100
AcDbEntity
  8
FRAME
100
AcDbLine
 10
182.996983
 20
23.62047
 30
0.0
 11
182.996983
 21
37.62047
 31
0.0
  0
LINE
  5
9E
100
AcDbEntity
  8
FRAME
100
AcDbLine
 10
192.996983
 20
23.62047
 30
0.0
 11
192.996983
 21
37.62047
 31
0.0
  0
MTEXT
  5
102
100
AcDbEntity
  8
FRAME
100
AcDbMText
 10
192.245312
 20
11.499473
 30
0.0
 40
1.8
 41
16.2
 71
     5
 72
     5
  1
\fÇcÇeÇoì¡ëæÉSÉVÉbÉNëÃ|b0|i0|c128|p50;ÇrÇdÇhÇgÇn
  0
MTEXT
  5
10E
100
AcDbEntity
  8
FRAME
100
AcDbMText
 10
237.223662
 20
15.824156
 30
0.0
 40
5.4
 41
72.0
 71
     5
 72
     5
  1
\fÇcÇeÇoì¡ëæÉSÉVÉbÉNëÃ|b0|i0|c128|p50;êºñMçHã∆äîéÆâÔé–
  0
MTEXT
  5
12B
100
AcDbEntity
  8
FRAME
100
AcDbMText
 10
226.996983
 20
33.997589
 30
0.0
 40
2.5
 41
20.0
 71
     5
 72
     5
  1
\fÇlÇr ÇoÉSÉVÉbÉN|b0|i0|c128|p2;ÇeÇqÇdÇd
  0
MTEXT
  5
12C
100
AcDbEntity
  8
FRAME
100
AcDbMText
 10
197.996983
 20
28.62047
 30
0.0
 40
2.5
 41
10.0
 71
     5
 72
     5
  1
\fÇlÇr ÇoÉSÉVÉbÉN|b0|i0|c128|p50;ÇgÅDÇ`
  0
MTEXT
  5
12F
100
AcDbEntity
  8
FRAME
100
AcDbMText
 10
261.996983
 20
30.62047
 30
0.0
 40
4.0
 41
42.0
 71
     5
 72
     5
  1
\fÇlÇr ÇoÉSÉVÉbÉN|b0|i0|c128|p2;ÇaÇ`ÇOÇPÇVÇOÇOÇOÇr
  0
ELLIPSE
  5
153
102
{ACAD_REACTORS
330
1BB
102
}
100
AcDbEntity
  8
FRAME
100
AcDbEllipse
 10
192.484419
 20
17.607238
 30
0.0
 11
-5.638155724715456
 21
-2.052120859954016
 31
0.0
210
0.0
220
0.0
230
1.0
 40
0.333333
 41
5.235987755982987
 42
10.47197551196597
  0
SPLINE
  5
15F
102
{ACAD_REACTORS
330
1BB
102
}
100
AcDbEntity
  8
FRAME
100
AcDbSpline
210
0.0
220
0.0
230
-1.0
 70
     8
 71
     3
 72
    11
 73
     7
 74
     5
 42
0.0000001
 43
0.0000001
 44
0.0000000001
 40
0.0
 40
0.0
 40
0.0
 40
0.0
 40
1.941120602237595
 40
6.684537092490166
 40
11.42795358274273
 40
13.3690741849803
 40
13.3690741849803
 40
13.3690741849803
 40
13.3690741849803
 10
189.0729453562952
 20
18.20877311405639
 30
0.0
 10
188.5978551836232
 20
17.57932321346211
 30
0.0
 10
186.9618116127896
 20
15.41171899374671
 30
0.0
 10
193.0268451322051
 20
16.1169359614464
 30
0.0
 10
198.1262350860617
 20
19.47523682076066
 30
0.0
 10
195.4796438647869
 20
20.08408945191575
 30
0.0
 10
194.7111010810107
 20
20.2608939740104
 30
0.0
 11
189.0729453562952
 21
18.20877311405639
 31
0.0
 11
188.0847926189056
 21
16.53799384676207
 31
0.0
 11
192.8264396274306
 21
16.66754556054873
 31
0.0
 11
196.5420262059787
 21
19.61617513669311
 31
0.0
 11
194.7111010810107
 21
20.2608939740104
 31
0.0
  0
SPLINE
  5
1A9
102
{ACAD_REACTORS
330
1BA
102
}
100
AcDbEntity
  8
FRAME
100
AcDbSpline
210
0.0
220
0.0
230
-1.0
 70
     8
 71
     3
 72
     9
 73
     5
 74
     0
 42
0.0000001
 43
0.0000001
 40
0.0
 40
0.0
 40
0.0
 40
0.0
 40
3.047950130825618
 40
6.636969701883785
 40
6.636969701883785
 40
6.636969701883785
 40
6.636969701883785
 10
193.484419484105
 20
21.90723818133465
 30
0.0
 10
192.3879736440032
 20
21.06824271907572
 30
0.0
 10
190.0004418576676
 20
19.24131405422837
 30
0.0
 10
193.7264193707421
 20
18.44324577117711
 30
0.0
 10
194.65417141616
 20
17.81158778008253
 30
0.0
  0
SPLINE
  5
1AC
102
{ACAD_REACTORS
330
1BA
102
}
100
AcDbEntity
  8
FRAME
100
AcDbSpline
210
0.0
220
0.0
230
1.0
 70
     8
 71
     3
 72
     9
 73
     5
 74
     0
 42
0.0000001
 43
0.0000001
 40
0.0
 40
0.0
 40
0.0
 40
0.0
 40
4.482186966203023
 40
8.349212586186361
 40
8.349212586186361
 40
8.349212586186361
 40
8.349212586186361
 10
193.484419484105
 20
21.9072381813347
 30
0.0
 10
191.4949653652735
 20
20.88099838991897
 30
0.0
 10
187.7891013542816
 20
18.96936591060904
 30
0.0
 10
192.648092367353
 20
18.02484874422835
 30
0.0
 10
193.3973918699581
 20
17.21270117547264
 30
0.0
  0
SPLINE
  5
1B4
102
{ACAD_REACTORS
330
1BA
102
}
100
AcDbEntity
  8
FRAME
100
AcDbSpline
210
0.0
220
0.0
230
1.0
 70
     8
 71
     3
 72
     8
 73
     4
 74
     0
 42
0.0000001
 43
0.0000001
 40
7.159044094357456
 40
7.159044094357456
 40
7.159044094357456
 40
7.159044094357456
 40
8.116280353376584
 40
8.116280353376584
 40
8.116280353376584
 40
8.116280353376584
 10
193.3973918699581
 20
17.21270117547269
 30
0.0
 10
193.842823440301
 20
17.39898683133073
 30
0.0
 10
194.2695406454155
 20
17.60253080996249
 30
0.0
 10
194.65417141616
 20
17.81158778008252
 30
0.0
  0
SPLINE
  5
1B5
102
{ACAD_REACTORS
330
1B9
102
}
100
AcDbEntity
  8
FRAME
100
AcDbSpline
210
0.0
220
0.0
230
1.0
 70
     8
 71
     3
 72
     8
 73
     4
 74
     0
 42
0.0000001
 43
0.0000001
 40
7.855609445707599
 40
7.855609445707599
 40
7.855609445707599
 40
7.855609445707599
 40
8.117341573592717
 40
8.117341573592717
 40
8.117341573592717
 40
8.117341573592717
 10
193.2803148942994
 20
15.44945854526913
 30
0.0
 10
193.7802470973798
 20
15.63182095780612
 30
0.0
 10
194.2721789025554
 20
15.83587021640362
 30
0.0
 10
194.7400446351936
 20
16.05529890317147
 30
0.0
  0
SPLINE
  5
1B6
102
{ACAD_REACTORS
330
1B9
102
}
100
AcDbEntity
  8
FRAME
100
AcDbSpline
210
0.0
220
0.0
230
1.0
 70
     8
 71
     3
 72
     8
 73
     4
 74
     0
 42
0.0000001
 43
0.0000001
 40
10.59725422084951
 40
10.59725422084951
 40
10.59725422084951
 40
10.59725422084951
 40
12.80749795106908
 40
12.80749795106908
 40
12.80749795106908
 40
12.80749795106908
 10
193.2803148942997
 20
15.44945854526963
 30
0.0
 10
192.8658439588602
 20
14.78015545528034
 30
0.0
 10
192.1751317214826
 20
14.0436968183075
 30
0.0
 10
191.484419484105
 20
13.30723818133467
 30
0.0
  0
SPLINE
  5
1B7
102
{ACAD_REACTORS
330
1B9
102
}
100
AcDbEntity
  8
FRAME
100
AcDbSpline
210
0.0
220
0.0
230
1.0
 70
     8
 71
     3
 72
     8
 73
     4
 74
     0
 42
0.0000001
 43
0.0000001
 40
9.284469187997936
 40
9.284469187997936
 40
9.284469187997936
 40
9.284469187997936
 40
12.50539389700191
 40
12.50539389700191
 40
12.50539389700191
 40
12.50539389700191
 10
194.7400446351936
 20
16.05529890317147
 30
0.0
 10
194.0911890180133
 20
15.21866979104992
 30
0.0
 10
192.7878042510592
 20
14.26295398619229
 30
0.0
 10
191.484419484105
 20
13.30723818133465
 30
0.0
  0
HATCH
  5
1B9
100
AcDbEntity
  8
FRAME
100
AcDbHatch
 10
0.0
 20
0.0
 30
0.0
210
0.0
220
0.0
230
1.0
  2
ANSI37
 70
     0
 71
     1
 91
        1
 92
        1
 93
        3
 72
     4
 94
        3
 73
     0
 74
     0
 95
        8
 96
        4
 40
10.597254
 40
10.597254
 40
10.597254
 40
10.597254
 40
12.807498
 40
12.807498
 40
12.807498
 40
12.807498
 10
193.280315
 20
15.449459
 10
192.865844
 20
14.780155
 10
192.175132
 20
14.043697
 10
191.484419
 20
13.307238
 72
     4
 94
        3
 73
     0
 74
     0
 95
        8
 96
        4
 40
9.284469
 40
9.284469
 40
9.284469
 40
9.284469
 40
12.505394
 40
12.505394
 40
12.505394
 40
12.505394
 10
191.484419
 20
13.307238
 10
192.787804
 20
14.262954
 10
194.091189
 20
15.21867
 10
194.740045
 20
16.055299
 72
     4
 94
        3
 73
     0
 74
     0
 95
        8
 96
        4
 40
7.855609
 40
7.855609
 40
7.855609
 40
7.855609
 40
8.117342
 40
8.117342
 40
8.117342
 40
8.117342
 10
194.740045
 20
16.055299
 10
194.272179
 20
15.83587
 10
193.780247
 20
15.631821
 10
193.280315
 20
15.449459
 97
        3
330
1B6
330
1B7
330
1B5
 75
     0
 76
     1
 52
0.0
 41
1.0
 77
     0
 78
     2
 53
45.0
 43
0.0
 44
-26.558342
 45
-0.0883883476483184
 46
0.0883883476483185
 79
     0
 53
135.0
 43
0.0
 44
-26.558342
 45
-0.0883883476483185
 46
-0.0883883476483184
 79
     0
 98
        1
 10
0.0
 20
-26.558342
  0
HATCH
  5
1BA
100
AcDbEntity
  8
FRAME
100
AcDbHatch
 10
0.0
 20
0.0
 30
0.0
210
0.0
220
0.0
230
1.0
  2
ANSI37
 70
     0
 71
     1
 91
        1
 92
        1
 93
        3
 72
     4
 94
        3
 73
     0
 74
     0
 95
        9
 96
        5
 40
0.0
 40
0.0
 40
0.0
 40
0.0
 40
4.482187
 40
8.349213
 40
8.349213
 40
8.349213
 40
8.349213
 10
193.484419
 20
21.907238
 10
191.494965
 20
20.880998
 10
187.789101
 20
18.969366
 10
192.648092
 20
18.024849
 10
193.397392
 20
17.212701
 72
     4
 94
        3
 73
     0
 74
     0
 95
        8
 96
        4
 40
7.159044
 40
7.159044
 40
7.159044
 40
7.159044
 40
8.11628
 40
8.11628
 40
8.11628
 40
8.11628
 10
193.397392
 20
17.212701
 10
193.842823
 20
17.398987
 10
194.269541
 20
17.602531
 10
194.654171
 20
17.811588
 72
     4
 94
        3
 73
     0
 74
     0
 95
        9
 96
        5
 40
0.0
 40
0.0
 40
0.0
 40
0.0
 40
3.58902
 40
6.63697
 40
6.63697
 40
6.63697
 40
6.63697
 10
194.654171
 20
17.811588
 10
193.726419
 20
18.443246
 10
190.000442
 20
19.241314
 10
192.387974
 20
21.068243
 10
193.484419
 20
21.907238
 97
        3
330
1AC
330
1B4
330
1A9
 75
     0
 76
     1
 52
0.0
 41
1.0
 77
     0
 78
     2
 53
45.0
 43
0.0
 44
-26.558342
 45
-0.0883883476483184
 46
0.0883883476483185
 79
     0
 53
135.0
 43
0.0
 44
-26.558342
 45
-0.0883883476483185
 46
-0.0883883476483184
 79
     0
 98
        1
 10
0.0
 20
-26.558342
  0
HATCH
  5
1BB
100
AcDbEntity
  8
FRAME
100
AcDbHatch
 10
0.0
 20
0.0
 30
0.0
210
0.0
220
0.0
230
1.0
  2
ANSI37
 70
     0
 71
     1
 91
        1
 92
        1
 93
        2
 72
     3
 10
192.484419
 20
17.607238
 11
-5.638156
 21
-2.052121
 40
0.333333
 50
330.0
 51
210.0
 73
     1
 72
     4
 94
        3
 73
     0
 74
     0
 95
       11
 96
        7
 40
0.0
 40
0.0
 40
0.0
 40
0.0
 40
1.941121
 40
6.684537
 40
11.427954
 40
13.369074
 40
13.369074
 40
13.369074
 40
13.369074
 10
194.711101
 20
20.260894
 10
195.479644
 20
20.084089
 10
198.126235
 20
19.475237
 10
193.026845
 20
16.116936
 10
186.961812
 20
15.411719
 10
188.597855
 20
17.579323
 10
189.072945
 20
18.208773
 97
        2
330
153
330
15F
 75
     0
 76
     1
 52
0.0
 41
1.0
 77
     0
 78
     2
 53
45.0
 43
0.0
 44
-26.558342
 45
-0.0883883476483184
 46
0.0883883476483185
 79
     0
 53
135.0
 43
0.0
 44
-26.558342
 45
-0.0883883476483185
 46
-0.0883883476483184
 79
     0
 98
        1
 10
0.0
 20
-26.558342
  0
MTEXT
  5
1C3
100
AcDbEntity
  8
FRAME
100
AcDbMText
 10
187.996983
 20
60.62047
 30
0.0
 40
2.3
 41
95.0
 71
     4
 72
     5
  1
\fÇlÇr ÇoÉSÉVÉbÉN|b0|i0|c128|p50;Å@ÇrÇtÇr ÇRÇOÇS ÅCÇOÅDÇTÇî
  0
MTEXT
  5
1C4
100
AcDbEntity
  8
FRAME
100
AcDbMText
 10
187.996983
 20
54.62047
 30
0.0
 40
2.3
 41
95.0
 71
     4
 72
     5
  1
\fÇlÇr ÇoÉSÉVÉbÉN|b0|i0|c128|p50;Å@ÉVÉãÉoÅ[èƒïtìhëïédè„ÉQ
  0
MTEXT
  5
1C5
100
AcDbEntity
  8
FRAME
100
AcDbMText
 10
211.996983
 20
44.62047
 30
0.0
 40
3.0
 41
70.0
 71
     5
 72
     5
  1
\fÇlÇr ÇoÉSÉVÉbÉN|b0|i0|c128|p50;ÉXÉeÉìÉåÉXêªäpÉKÉâÉäå^ÉxÉìÉgÉLÉÉÉbÉv\PÅiÇaÇkîFíËïiÅj
  0
MTEXT
  5
1C6
100
AcDbEntity
  8
FRAME
100
AcDbMText
 10
266.996983
 20
44.62047
 30
0.0
 40
4.0
 41
32.0
 71
     5
 72
     5
  1
\fÇlÇr ÇoÉSÉVÉbÉN|b0|i0|c128|p50;ÇjÇwÅ|ÇrÇaÇk
  0
LINE
  5
1C8
100
AcDbEntity
  8
TABLE
100
AcDbLine
 10
9.0
 20
36.0
 30
0.0
 11
9.0
 21
11.0
 31
0.0
  0
LINE
  5
1CD
100
AcDbEntity
  8
TABLE
100
AcDbLine
 10
9.0
 20
11.0
 30
0.0
 11
130.0
 21
11.0
 31
0.0
  0
LINE
  5
1CE
100
AcDbEntity
  8
TABLE
100
AcDbLine
 10
9.0
 20
29.0
 30
0.0
 11
130.0
 21
29.0
 31
0.0
  0
LINE
  5
1D0
100
AcDbEntity
  8
TABLE
100
AcDbLine
 10
9.0
 20
30.0
 30
0.0
 11
130.0
 21
30.0
 31
0.0
  0
LINE
  5
1D2
100
AcDbEntity
  8
TABLE
100
AcDbLine
 10
35.0
 20
36.0
 30
0.0
 11
35.0
 21
11.0
 31
0.0
  0
LINE
  5
1D3
100
AcDbEntity
  8
TABLE
100
AcDbLine
 10
47.0
 20
36.0
 30
0.0
 11
47.0
 21
11.0
 31
0.0
  0
LINE
  5
1D4
100
AcDbEntity
  8
TABLE
100
AcDbLine
 10
59.0
 20
36.0
 30
0.0
 11
59.0
 21
11.0
 31
0.0
  0
LINE
  5
1D5
100
AcDbEntity
  8
TABLE
100
AcDbLine
 10
71.0
 20
36.0
 30
0.0
 11
71.0
 21
11.0
 31
0.0
  0
LINE
  5
1D6
100
AcDbEntity
  8
TABLE
100
AcDbLine
 10
95.0
 20
36.0
 30
0.0
 11
95.0
 21
11.0
 31
0.0
  0
LINE
  5
1D7
100
AcDbEntity
  8
TABLE
100
AcDbLine
 10
115.0
 20
36.0
 30
0.0
 11
115.0
 21
11.0
 31
0.0
  0
LINE
  5
1D8
100
AcDbEntity
  8
TABLE
100
AcDbLine
 10
130.0
 20
36.0
 30
0.0
 11
130.0
 21
11.0
 31
0.0
  0
MTEXT
  5
357
100
AcDbEntity
  8
TABLE
100
AcDbMText
 10
22.0
 20
33.0
 30
0.0
 40
2.5
 41
26.0
 71
     5
 72
     5
  1
\fÇlÇr ÇoÉSÉVÉbÉN|b0|i0|c128|p50;ÇrÇhÇyÇd
  0
MTEXT
  5
35F
100
AcDbEntity
  8
TABLE
100
AcDbMText
 10
41.0
 20
33.0
 30
0.0
 40
2.5
 41
12.0
 71
     5
 72
     5
  1
\fÇlÇr ÇoÉSÉVÉbÉN|b0|i0|c128|p50;Ç`
  0
MTEXT
  5
360
100
AcDbEntity
  8
TABLE
100
AcDbMText
 10
53.0
 20
33.0
 30
0.0
 40
2.5
 41
12.0
 71
     5
 72
     5
  1
\fÇlÇr ÇoÉSÉVÉbÉN|b0|i0|c128|p50;Ça
  0
MTEXT
  5
361
100
AcDbEntity
  8
TABLE
100
AcDbMText
 10
65.0
 20
33.0
 30
0.0
 40
2.5
 41
12.0
 71
     5
 72
     5
  1
\fÇlÇr ÇoÉSÉVÉbÉN|b0|i0|c128|p50;Çb
  0
MTEXT
  5
362
100
AcDbEntity
  8
TABLE
100
AcDbMText
 10
77.0
 20
33.0
 30
0.0
 40
2.5
 41
12.0
 71
     5
 72
     5
  1
\fÇlÇr ÇoÉSÉVÉbÉN|b0|i0|c128|p50;Çc
  0
MTEXT
  5
363
100
AcDbEntity
  8
TABLE
100
AcDbMText
 10
105.0
 20
33.0
 30
0.0
 40
2.5
 41
20.0
 71
     5
 72
     5
  1
\fÇlÇr ÇoÉSÉVÉbÉN|b0|i0|c128|p50;DUCT SIZE
  0
MTEXT
  5
364
100
AcDbEntity
  8
TABLE
100
AcDbMText
 10
122.5
 20
33.0
 30
0.0
 40
2.5
 41
15.0
 71
     5
 72
     5
  1
\fÇlÇr ÇoÉSÉVÉbÉN|b0|i0|c128|p50;Q'TTY
  0
MTEXT
  5
47E
100
AcDbEntity
  8
TABLE
100
AcDbMText
 10
105.0
 20
14.0
 30
0.0
 40
2.5
 41
20.0
 71
     5
 72
     5
  1
\fÇlÇr ÇoÉSÉVÉbÉN|b0|i0|c128|p50;# 6(É”150)
  0
MTEXT
  5
47F
100
AcDbEntity
  8
TABLE
100
AcDbMText
 10
105.0
 20
20.0
 30
0.0
 40
2.5
 41
20.0
 71
     5
 72
     5
  1
\fÇlÇr ÇoÉSÉVÉbÉN|b0|i0|c128|p50;# 5(É”125)
  0
MTEXT
  5
480
100
AcDbEntity
  8
TABLE
100
AcDbMText
 10
105.0
 20
26.0
 30
0.0
 40
2.5
 41
20.0
 71
     5
 72
     5
  1
\fÇlÇr ÇoÉSÉVÉbÉN|b0|i0|c128|p50;# 4(É”100)
  0
LINE
  5
723
100
AcDbEntity
  8
0
100
AcDbLine
 10
111.149558
 20
174.550003
 30
0.0
 11
42.149558
 21
174.550003
 31
0.0
  0
LINE
  5
724
100
AcDbEntity
  8
0
100
AcDbLine
 10
111.149558
 20
97.550003
 30
0.0
 11
42.149558
 21
97.550003
 31
0.0
  0
LINE
  5
725
100
AcDbEntity
  8
0
100
AcDbLine
 10
38.149558
 20
170.550003
 30
0.0
 11
38.149558
 21
101.550003
 31
0.0
  0
LINE
  5
726
100
AcDbEntity
  8
0
100
AcDbLine
 10
115.149558
 20
170.550003
 30
0.0
 11
115.149558
 21
101.550003
 31
0.0
  0
ARC
  5
72C
100
AcDbEntity
  8
0
100
AcDbCircle
 10
42.149558
 20
170.550003
 30
0.0
 40
4.0
100
AcDbArc
 50
90.0
 51
180.0
  0
ARC
  5
72D
100
AcDbEntity
  8
0
100
AcDbCircle
 10
42.149558
 20
101.550003
 30
0.0
 40
4.0
100
AcDbArc
 50
180.0
 51
270.0
  0
ARC
  5
72E
100
AcDbEntity
  8
0
100
AcDbCircle
 10
111.149558
 20
101.550003
 30
0.0
 40
4.0
100
AcDbArc
 50
270.0
 51
0.0
  0
ARC
  5
72F
100
AcDbEntity
  8
0
100
AcDbCircle
 10
111.149558
 20
170.550003
 30
0.0
 40
4.0
100
AcDbArc
 50
0.0
 51
90.0
  0
LINE
  5
730
100
AcDbEntity
  8
0
 62
     4
100
AcDbLine
 10
76.649558
 20
169.550003
 30
0.0
 11
56.749558
 21
169.550003
 31
0.0
  0
LINE
  5
731
100
AcDbEntity
  8
0
100
AcDbLine
 10
43.149558
 20
155.950003
 30
0.0
 11
43.149558
 21
150.650003
 31
0.0
  0
LINE
  5
733
100
AcDbEntity
  8
0
100
AcDbLine
 10
184.551413
 20
102.550003
 30
0.0
 11
184.051413
 21
102.550003
 31
0.0
  0
LINE
  5
754
100
AcDbEntity
  8
0
100
AcDbLine
 10
184.551413
 20
109.350003
 30
0.0
 11
184.051413
 21
109.350003
 31
0.0
  0
LINE
  5
755
100
AcDbEntity
  8
0
100
AcDbLine
 10
184.551413
 20
116.150003
 30
0.0
 11
184.051413
 21
116.150003
 31
0.0
  0
LINE
  5
756
100
AcDbEntity
  8
0
100
AcDbLine
 10
184.551413
 20
122.950003
 30
0.0
 11
184.051413
 21
122.950003
 31
0.0
  0
LINE
  5
757
100
AcDbEntity
  8
0
100
AcDbLine
 10
184.551413
 20
129.750003
 30
0.0
 11
184.051413
 21
129.750003
 31
0.0
  0
LINE
  5
758
100
AcDbEntity
  8
0
100
AcDbLine
 10
184.551413
 20
136.550003
 30
0.0
 11
184.051413
 21
136.550003
 31
0.0
  0
LINE
  5
759
100
AcDbEntity
  8
0
100
AcDbLine
 10
184.551413
 20
143.350003
 30
0.0
 11
184.051413
 21
143.350003
 31
0.0
  0
LINE
  5
75A
100
AcDbEntity
  8
0
100
AcDbLine
 10
184.551413
 20
150.150003
 30
0.0
 11
184.051413
 21
150.150003
 31
0.0
  0
LINE
  5
75B
100
AcDbEntity
  8
0
100
AcDbLine
 10
184.551413
 20
156.950003
 30
0.0
 11
184.051413
 21
156.950003
 31
0.0
  0
LINE
  5
75C
100
AcDbEntity
  8
0
100
AcDbLine
 10
184.551413
 20
163.750003
 30
0.0
 11
184.051413
 21
163.750003
 31
0.0
  0
LINE
  5
75D
100
AcDbEntity
  8
0
100
AcDbLine
 10
184.051413
 20
174.050003
 30
0.0
 11
184.051413
 21
169.550003
 31
0.0
  0
LINE
  5
75E
100
AcDbEntity
  8
0
100
AcDbLine
 10
194.051413
 20
172.050003
 30
0.0
 11
194.051413
 21
160.300003
 31
0.0
  0
LINE
  5
75F
100
AcDbEntity
  8
0
100
AcDbLine
 10
221.551413
 20
159.800003
 30
0.0
 11
221.551413
 21
112.300003
 31
0.0
  0
LINE
  5
760
100
AcDbEntity
  8
0
100
AcDbLine
 10
221.051413
 20
160.300003
 30
0.0
 11
194.551413
 21
160.300003
 31
0.0
  0
LINE
  5
761
100
AcDbEntity
  8
0
100
AcDbLine
 10
221.051413
 20
111.800003
 30
0.0
 11
194.551413
 21
111.800003
 31
0.0
  0
LINE
  5
763
100
AcDbEntity
  8
0
100
AcDbLine
 10
189.051413
 20
174.550003
 30
0.0
 11
184.551413
 21
174.550003
 31
0.0
  0
LINE
  5
764
100
AcDbEntity
  8
0
100
AcDbLine
 10
189.051413
 20
97.550003
 30
0.0
 11
184.551413
 21
97.550003
 31
0.0
  0
LINE
  5
765
100
AcDbEntity
  8
0
100
AcDbLine
 10
221.051413
 20
159.800003
 30
0.0
 11
194.551413
 21
159.800003
 31
0.0
  0
LINE
  5
766
100
AcDbEntity
  8
0
100
AcDbLine
 10
221.051413
 20
112.300003
 30
0.0
 11
194.551413
 21
112.300003
 31
0.0
  0
LINE
  5
767
100
AcDbEntity
  8
0
100
AcDbLine
 10
221.051413
 20
159.800003
 30
0.0
 11
221.051413
 21
112.300003
 31
0.0
  0
LINE
  5
769
100
AcDbEntity
  8
0
100
AcDbLine
 10
221.551413
 20
158.800003
 30
0.0
 11
221.051413
 21
158.800003
 31
0.0
  0
LINE
  5
76B
100
AcDbEntity
  8
0
100
AcDbLine
 10
221.551413
 20
113.300003
 30
0.0
 11
221.051413
 21
113.300003
 31
0.0
  0
ARC
  5
76C
100
AcDbEntity
  8
0
100
AcDbCircle
 10
221.051413
 20
159.800003
 30
0.0
 40
0.5
100
AcDbArc
 50
0.0
 51
90.0
  0
ARC
  5
76D
100
AcDbEntity
  8
0
100
AcDbCircle
 10
221.051413
 20
112.300003
 30
0.0
 40
0.5
100
AcDbArc
 50
270.0
 51
0.0
  0
LINE
  5
76E
100
AcDbEntity
  8
0
100
AcDbLine
 10
194.551413
 20
165.300003
 30
0.0
 11
194.551413
 21
160.300003
 31
0.0
  0
LINE
  5
771
100
AcDbEntity
  8
0
100
AcDbLine
 10
194.551413
 20
165.300003
 30
0.0
 11
194.051413
 21
165.300003
 31
0.0
  0
LINE
  5
772
100
AcDbEntity
  8
0
100
AcDbLine
 10
194.551413
 20
106.800003
 30
0.0
 11
194.051413
 21
106.800003
 31
0.0
  0
LINE
  5
773
100
AcDbEntity
  8
0
100
AcDbLine
 10
194.551413
 20
111.800003
 30
0.0
 11
194.551413
 21
106.800003
 31
0.0
  0
LINE
  5
775
100
AcDbEntity
  8
0
 62
     3
100
AcDbLine
 10
194.051413
 20
160.300003
 30
0.0
 11
194.051413
 21
111.800003
 31
0.0
  0
ARC
  5
776
100
AcDbEntity
  8
0
100
AcDbCircle
 10
194.551413
 20
160.300003
 30
0.0
 40
0.5
100
AcDbArc
 50
180.0
 51
270.0
  0
LINE
  5
778
100
AcDbEntity
  8
0
100
AcDbLine
 10
194.051413
 20
111.800003
 30
0.0
 11
194.051413
 21
100.050003
 31
0.0
  0
ARC
  5
779
100
AcDbEntity
  8
0
100
AcDbCircle
 10
194.551413
 20
111.800003
 30
0.0
 40
0.5
100
AcDbArc
 50
90.0
 51
180.0
  0
LINE
  5
77A
100
AcDbEntity
  8
0
100
AcDbLine
 10
184.551413
 20
174.050003
 30
0.0
 11
184.551413
 21
98.050003
 31
0.0
  0
LINE
  5
77B
100
AcDbEntity
  8
0
100
AcDbLine
 10
189.051413
 20
174.050003
 30
0.0
 11
184.551413
 21
174.050003
 31
0.0
  0
LINE
  5
77C
100
AcDbEntity
  8
0
100
AcDbLine
 10
189.051413
 20
98.050003
 30
0.0
 11
184.551413
 21
98.050003
 31
0.0
  0
ARC
  5
77D
100
AcDbEntity
  8
0
100
AcDbCircle
 10
184.551413
 20
174.050003
 30
0.0
 40
0.5
100
AcDbArc
 50
90.0
 51
180.0
  0
ARC
  5
77E
100
AcDbEntity
  8
0
100
AcDbCircle
 10
184.551413
 20
98.050003
 30
0.0
 40
0.5
100
AcDbArc
 50
180.0
 51
270.0
  0
LINE
  5
77F
100
AcDbEntity
  8
0
100
AcDbLine
 10
189.051413
 20
173.550003
 30
0.0
 11
189.051413
 21
172.550003
 31
0.0
  0
LINE
  5
780
100
AcDbEntity
  8
0
100
AcDbLine
 10
193.551413
 20
172.550003
 30
0.0
 11
189.051413
 21
172.550003
 31
0.0
  0
LINE
  5
781
100
AcDbEntity
  8
0
100
AcDbLine
 10
193.551413
 20
99.550003
 30
0.0
 11
189.051413
 21
99.550003
 31
0.0
  0
LINE
  5
782
100
AcDbEntity
  8
0
100
AcDbLine
 10
188.551413
 20
173.550003
 30
0.0
 11
188.551413
 21
172.550003
 31
0.0
  0
LINE
  5
783
100
AcDbEntity
  8
0
100
AcDbLine
 10
188.551413
 20
173.550003
 30
0.0
 11
185.051413
 21
173.550003
 31
0.0
  0
LINE
  5
784
100
AcDbEntity
  8
0
100
AcDbLine
 10
193.551413
 20
172.050003
 30
0.0
 11
189.051413
 21
172.050003
 31
0.0
  0
ARC
  5
785
100
AcDbEntity
  8
0
100
AcDbCircle
 10
188.551413
 20
173.550003
 30
0.0
 40
0.5
100
AcDbArc
 50
0.0
 51
90.0
  0
LINE
  5
786
100
AcDbEntity
  8
0
100
AcDbLine
 10
189.051413
 20
174.550003
 30
0.0
 11
189.051413
 21
174.050003
 31
0.0
  0
LINE
  5
787
100
AcDbEntity
  8
0
100
AcDbLine
 10
185.051413
 20
174.050003
 30
0.0
 11
185.051413
 21
173.550003
 31
0.0
  0
ARC
  5
788
100
AcDbEntity
  8
0
100
AcDbCircle
 10
189.051413
 20
172.550003
 30
0.0
 40
0.5
100
AcDbArc
 50
180.0
 51
270.0
  0
LINE
  5
789
100
AcDbEntity
  8
0
100
AcDbLine
 10
193.551413
 20
172.050003
 30
0.0
 11
193.551413
 21
160.300003
 31
0.0
  0
ARC
  5
78A
100
AcDbEntity
  8
0
100
AcDbCircle
 10
193.551413
 20
172.050003
 30
0.0
 40
0.5
100
AcDbArc
 50
360.0
 51
90.0
  0
LINE
  5
78B
100
AcDbEntity
  8
0
100
AcDbLine
 10
189.051413
 20
99.550003
 30
0.0
 11
189.051413
 21
98.550003
 31
0.0
  0
LINE
  5
78C
100
AcDbEntity
  8
0
100
AcDbLine
 10
188.551413
 20
98.550003
 30
0.0
 11
185.051413
 21
98.550003
 31
0.0
  0
LINE
  5
78D
100
AcDbEntity
  8
0
100
AcDbLine
 10
188.551413
 20
99.550003
 30
0.0
 11
188.551413
 21
98.550003
 31
0.0
  0
LINE
  5
78E
100
AcDbEntity
  8
0
100
AcDbLine
 10
193.551413
 20
100.050003
 30
0.0
 11
189.051413
 21
100.050003
 31
0.0
  0
LINE
  5
78F
100
AcDbEntity
  8
0
100
AcDbLine
 10
185.051413
 20
98.550003
 30
0.0
 11
185.051413
 21
98.050003
 31
0.0
  0
ARC
  5
790
100
AcDbEntity
  8
0
100
AcDbCircle
 10
188.551413
 20
98.550003
 30
0.0
 40
0.5
100
AcDbArc
 50
270.0
 51
0.0
  0
LINE
  5
791
100
AcDbEntity
  8
0
100
AcDbLine
 10
189.051413
 20
98.050003
 30
0.0
 11
189.051413
 21
97.550003
 31
0.0
  0
ARC
  5
792
100
AcDbEntity
  8
0
100
AcDbCircle
 10
189.051413
 20
99.550003
 30
0.0
 40
0.5
100
AcDbArc
 50
90.0
 51
180.0
  0
ARC
  5
793
100
AcDbEntity
  8
0
100
AcDbCircle
 10
193.551413
 20
100.050003
 30
0.0
 40
0.5
100
AcDbArc
 50
270.0
 51
0.0
  0
LINE
  5
794
100
AcDbEntity
  8
0
100
AcDbLine
 10
194.051413
 20
160.300003
 30
0.0
 11
193.551413
 21
160.300003
 31
0.0
  0
LINE
  5
795
100
AcDbEntity
  8
0
100
AcDbLine
 10
194.051413
 20
111.800003
 30
0.0
 11
193.551413
 21
111.800003
 31
0.0
  0
LINE
  5
797
100
AcDbEntity
  8
0
100
AcDbLine
 10
184.051413
 20
169.550003
 30
0.0
 11
180.657298
 21
166.155893
 31
0.0
  0
LINE
  5
79A
100
AcDbEntity
  8
0
100
AcDbLine
 10
184.404966
 20
169.196449
 30
0.0
 11
181.010851
 21
165.802339
 31
0.0
  0
LINE
  5
79B
100
AcDbEntity
  8
0
100
AcDbLine
 10
180.657298
 20
166.155893
 30
0.0
 11
181.010851
 21
165.802339
 31
0.0
  0
LINE
  5
79C
100
AcDbEntity
  8
0
100
AcDbLine
 10
184.051413
 20
168.842897
 30
0.0
 11
184.051413
 21
162.750003
 31
0.0
  0
LINE
  5
79D
100
AcDbEntity
  8
0
100
AcDbLine
 10
184.051413
 20
162.750003
 30
0.0
 11
180.657298
 21
159.355893
 31
0.0
  0
LINE
  5
7A1
100
AcDbEntity
  8
0
100
AcDbLine
 10
184.404966
 20
162.396449
 30
0.0
 11
181.010851
 21
159.002339
 31
0.0
  0
LINE
  5
7A2
100
AcDbEntity
  8
0
100
AcDbLine
 10
180.657298
 20
159.355893
 30
0.0
 11
181.010851
 21
159.002339
 31
0.0
  0
LINE
  5
7A3
100
AcDbEntity
  8
0
100
AcDbLine
 10
184.051413
 20
162.042897
 30
0.0
 11
184.051413
 21
155.950003
 31
0.0
  0
LINE
  5
7A6
100
AcDbEntity
  8
0
100
AcDbLine
 10
184.051413
 20
155.950003
 30
0.0
 11
180.657298
 21
152.555893
 31
0.0
  0
LINE
  5
7AA
100
AcDbEntity
  8
0
100
AcDbLine
 10
180.657298
 20
152.555893
 30
0.0
 11
181.010851
 21
152.202339
 31
0.0
  0
LINE
  5
7AB
100
AcDbEntity
  8
0
100
AcDbLine
 10
184.404966
 20
155.596449
 30
0.0
 11
181.010851
 21
152.202339
 31
0.0
  0
LINE
  5
7AD
100
AcDbEntity
  8
0
100
AcDbLine
 10
184.051413
 20
155.242897
 30
0.0
 11
184.051413
 21
149.150003
 31
0.0
  0
LINE
  5
7B0
100
AcDbEntity
  8
0
100
AcDbLine
 10
184.051413
 20
149.150003
 30
0.0
 11
180.657298
 21
145.755893
 31
0.0
  0
LINE
  5
7B4
100
AcDbEntity
  8
0
100
AcDbLine
 10
180.657298
 20
145.755893
 30
0.0
 11
181.010851
 21
145.402339
 31
0.0
  0
LINE
  5
7B5
100
AcDbEntity
  8
0
100
AcDbLine
 10
184.404966
 20
148.796449
 30
0.0
 11
181.010851
 21
145.402339
 31
0.0
  0
LINE
  5
7B7
100
AcDbEntity
  8
0
100
AcDbLine
 10
184.051413
 20
148.442897
 30
0.0
 11
184.051413
 21
142.350003
 31
0.0
  0
LINE
  5
7BA
100
AcDbEntity
  8
0
100
AcDbLine
 10
184.051413
 20
142.350003
 30
0.0
 11
180.657298
 21
138.955893
 31
0.0
  0
LINE
  5
7BB
100
AcDbEntity
  8
0
100
AcDbLine
 10
184.404966
 20
141.996449
 30
0.0
 11
181.010851
 21
138.602339
 31
0.0
  0
LINE
  5
7BF
100
AcDbEntity
  8
0
100
AcDbLine
 10
180.657298
 20
138.955893
 30
0.0
 11
181.010851
 21
138.602339
 31
0.0
  0
LINE
  5
7C0
100
AcDbEntity
  8
0
100
AcDbLine
 10
184.051413
 20
141.642897
 30
0.0
 11
184.051413
 21
135.550003
 31
0.0
  0
LINE
  5
7C3
100
AcDbEntity
  8
0
100
AcDbLine
 10
184.051413
 20
135.550003
 30
0.0
 11
180.657298
 21
132.155893
 31
0.0
  0
LINE
  5
7C4
100
AcDbEntity
  8
0
100
AcDbLine
 10
184.404966
 20
135.196449
 30
0.0
 11
181.010851
 21
131.802339
 31
0.0
  0
LINE
  5
7C8
100
AcDbEntity
  8
0
100
AcDbLine
 10
180.657298
 20
132.155893
 30
0.0
 11
181.010851
 21
131.802339
 31
0.0
  0
LINE
  5
7C9
100
AcDbEntity
  8
0
100
AcDbLine
 10
184.051413
 20
134.842897
 30
0.0
 11
184.051413
 21
128.750003
 31
0.0
  0
LINE
  5
7CC
100
AcDbEntity
  8
0
100
AcDbLine
 10
184.051413
 20
128.750003
 30
0.0
 11
180.657298
 21
125.355893
 31
0.0
  0
LINE
  5
7CD
100
AcDbEntity
  8
0
100
AcDbLine
 10
184.404966
 20
128.396449
 30
0.0
 11
181.010851
 21
125.002339
 31
0.0
  0
LINE
  5
7CE
100
AcDbEntity
  8
0
100
AcDbLine
 10
184.051413
 20
128.042897
 30
0.0
 11
184.051413
 21
121.950003
 31
0.0
  0
LINE
  5
7D2
100
AcDbEntity
  8
0
100
AcDbLine
 10
180.657298
 20
125.355893
 30
0.0
 11
181.010851
 21
125.002339
 31
0.0
  0
LINE
  5
7D5
100
AcDbEntity
  8
0
100
AcDbLine
 10
184.051413
 20
121.950003
 30
0.0
 11
180.657298
 21
118.555893
 31
0.0
  0
LINE
  5
7D6
100
AcDbEntity
  8
0
100
AcDbLine
 10
184.404966
 20
121.596449
 30
0.0
 11
181.010851
 21
118.202339
 31
0.0
  0
LINE
  5
7DA
100
AcDbEntity
  8
0
100
AcDbLine
 10
180.657298
 20
118.555893
 30
0.0
 11
181.010851
 21
118.202339
 31
0.0
  0
LINE
  5
7DB
100
AcDbEntity
  8
0
100
AcDbLine
 10
184.051413
 20
121.242897
 30
0.0
 11
184.051413
 21
115.150003
 31
0.0
  0
LINE
  5
7DE
100
AcDbEntity
  8
0
100
AcDbLine
 10
184.051413
 20
115.150003
 30
0.0
 11
180.657298
 21
111.755893
 31
0.0
  0
LINE
  5
7DF
100
AcDbEntity
  8
0
100
AcDbLine
 10
184.404966
 20
114.796449
 30
0.0
 11
181.010851
 21
111.402339
 31
0.0
  0
LINE
  5
7E3
100
AcDbEntity
  8
0
100
AcDbLine
 10
180.657298
 20
111.755893
 30
0.0
 11
181.010851
 21
111.402339
 31
0.0
  0
LINE
  5
7E4
100
AcDbEntity
  8
0
100
AcDbLine
 10
184.051413
 20
114.442897
 30
0.0
 11
184.051413
 21
108.350003
 31
0.0
  0
LINE
  5
7E7
100
AcDbEntity
  8
0
100
AcDbLine
 10
184.051413
 20
108.350003
 30
0.0
 11
180.657298
 21
104.955893
 31
0.0
  0
LINE
  5
7E8
100
AcDbEntity
  8
0
100
AcDbLine
 10
184.404966
 20
107.996449
 30
0.0
 11
181.010851
 21
104.602339
 31
0.0
  0
LINE
  5
7EC
100
AcDbEntity
  8
0
100
AcDbLine
 10
180.657298
 20
104.955893
 30
0.0
 11
181.010851
 21
104.602339
 31
0.0
  0
LINE
  5
7ED
100
AcDbEntity
  8
0
100
AcDbLine
 10
184.051413
 20
107.642897
 30
0.0
 11
184.051413
 21
98.050003
 31
0.0
  0
LINE
  5
7EE
100
AcDbEntity
  8
0
100
AcDbLine
 10
76.649558
 20
102.550003
 30
0.0
 11
55.749558
 21
102.550003
 31
0.0
  0
ARC
  5
7F0
100
AcDbEntity
  8
0
100
AcDbCircle
 10
184.051413
 20
169.550003
 30
0.0
 40
0.5
100
AcDbArc
 50
314.999953
 51
0.0
  0
ARC
  5
7F1
100
AcDbEntity
  8
0
100
AcDbCircle
 10
184.051413
 20
162.750003
 30
0.0
 40
0.5
100
AcDbArc
 50
314.999953
 51
0.0
  0
ARC
  5
7F2
100
AcDbEntity
  8
0
100
AcDbCircle
 10
184.051413
 20
155.950003
 30
0.0
 40
0.5
100
AcDbArc
 50
314.999953
 51
360.0
  0
ARC
  5
7F3
100
AcDbEntity
  8
0
100
AcDbCircle
 10
184.051413
 20
149.150003
 30
0.0
 40
0.5
100
AcDbArc
 50
314.999953
 51
360.0
  0
ARC
  5
7F4
100
AcDbEntity
  8
0
100
AcDbCircle
 10
184.051413
 20
142.350003
 30
0.0
 40
0.5
100
AcDbArc
 50
314.999953
 51
360.0
  0
ARC
  5
7F5
100
AcDbEntity
  8
0
100
AcDbCircle
 10
184.051413
 20
135.550003
 30
0.0
 40
0.5
100
AcDbArc
 50
314.999953
 51
360.0
  0
ARC
  5
7F6
100
AcDbEntity
  8
0
100
AcDbCircle
 10
184.051413
 20
128.750003
 30
0.0
 40
0.5
100
AcDbArc
 50
314.999953
 51
360.0
  0
ARC
  5
7F7
100
AcDbEntity
  8
0
100
AcDbCircle
 10
184.051413
 20
121.950003
 30
0.0
 40
0.5
100
AcDbArc
 50
314.999953
 51
360.0
  0
ARC
  5
7F8
100
AcDbEntity
  8
0
100
AcDbCircle
 10
184.051413
 20
115.150003
 30
0.0
 40
0.5
100
AcDbArc
 50
314.999953
 51
360.0
  0
ARC
  5
7F9
100
AcDbEntity
  8
0
100
AcDbCircle
 10
184.051413
 20
108.350003
 30
0.0
 40
0.5
100
AcDbArc
 50
314.999953
 51
360.0
  0
LINE
  5
7FA
100
AcDbEntity
  8
0
100
AcDbLine
 10
76.649558
 20
166.155893
 30
0.0
 11
49.77631
 21
166.155893
 31
0.0
  0
LINE
  5
7FB
100
AcDbEntity
  8
0
100
AcDbLine
 10
76.649558
 20
165.802339
 30
0.0
 11
49.77631
 21
165.802339
 31
0.0
  0
LINE
  5
7FC
100
AcDbEntity
  8
0
100
AcDbLine
 10
76.649558
 20
163.750003
 30
0.0
 11
46.099687
 21
163.750003
 31
0.0
  0
LINE
  5
7FD
100
AcDbEntity
  8
0
100
AcDbLine
 10
76.649558
 20
159.355893
 30
0.0
 11
44.085054
 21
159.355893
 31
0.0
  0
LINE
  5
7FE
100
AcDbEntity
  8
0
100
AcDbLine
 10
76.649558
 20
159.002339
 30
0.0
 11
44.085054
 21
159.002339
 31
0.0
  0
LINE
  5
7FF
100
AcDbEntity
  8
0
100
AcDbLine
 10
76.649558
 20
156.950003
 30
0.0
 11
43.659893
 21
156.950003
 31
0.0
  0
ARC
  5
801
100
AcDbEntity
  8
0
100
AcDbCircle
 10
55.749558
 20
156.950003
 30
0.0
 40
12.6
100
AcDbArc
 50
90.0
 51
142.892974
  0
LINE
  5
802
100
AcDbEntity
  8
0
100
AcDbLine
 10
55.749558
 20
169.550003
 30
0.0
 11
49.592812
 21
167.121004
 31
0.0
  0
ARC
  5
804
100
AcDbEntity
  8
0
100
AcDbCircle
 10
49.77631
 20
166.655893
 30
0.0
 40
0.5
100
AcDbArc
 50
111.530541
 51
270.0
  0
LINE
  5
808
100
AcDbEntity
  8
0
100
AcDbLine
 10
49.27631
 20
166.655893
 30
0.0
 11
49.27631
 21
166.302339
 31
0.0
  0
ARC
  5
809
100
AcDbEntity
  8
0
100
AcDbCircle
 10
49.77631
 20
166.302339
 30
0.0
 40
0.5
100
AcDbArc
 50
180.0
 51
270.0
  0
LINE
  5
80D
100
AcDbEntity
  8
0
 62
     4
100
AcDbLine
 10
76.649558
 20
162.750003
 30
0.0
 11
45.563853
 21
162.750003
 31
0.0
  0
ARC
  5
80E
100
AcDbEntity
  8
0
100
AcDbCircle
 10
55.749558
 20
156.950003
 30
0.0
 40
12.6
100
AcDbArc
 50
152.592405
 51
177.631731
  0
LINE
  5
80F
100
AcDbEntity
  8
0
100
AcDbLine
 10
44.563853
 20
162.750003
 30
0.0
 11
43.612888
 21
160.02039
 31
0.0
  0
ARC
  5
810
100
AcDbEntity
  8
0
100
AcDbCircle
 10
44.085054
 20
159.855893
 30
0.0
 40
0.5
100
AcDbArc
 50
160.792272
 51
270.0
  0
LINE
  5
812
100
AcDbEntity
  8
0
100
AcDbLine
 10
43.585054
 20
159.855893
 30
0.0
 11
43.585054
 21
159.502339
 31
0.0
  0
ARC
  5
813
100
AcDbEntity
  8
0
100
AcDbCircle
 10
44.085054
 20
159.502339
 30
0.0
 40
0.5
100
AcDbArc
 50
180.0
 51
270.0
  0
LINE
  5
814
100
AcDbEntity
  8
0
 62
     4
100
AcDbLine
 10
76.649558
 20
155.950003
 30
0.0
 11
44.149558
 21
155.950003
 31
0.0
  0
LINE
  5
815
100
AcDbEntity
  8
0
100
AcDbLine
 10
76.649558
 20
152.555893
 30
0.0
 11
43.649558
 21
152.555893
 31
0.0
  0
LINE
  5
816
100
AcDbEntity
  8
0
100
AcDbLine
 10
76.649558
 20
152.202339
 30
0.0
 11
43.649558
 21
152.202339
 31
0.0
  0
LINE
  5
817
100
AcDbEntity
  8
0
100
AcDbLine
 10
76.649558
 20
150.150003
 30
0.0
 11
43.649558
 21
150.150003
 31
0.0
  0
LINE
  5
818
100
AcDbEntity
  8
0
 62
     4
100
AcDbLine
 10
76.649558
 20
149.150003
 30
0.0
 11
44.149558
 21
149.150003
 31
0.0
  0
LINE
  5
819
100
AcDbEntity
  8
0
100
AcDbLine
 10
76.649558
 20
145.755893
 30
0.0
 11
43.649558
 21
145.755893
 31
0.0
  0
LINE
  5
81A
100
AcDbEntity
  8
0
100
AcDbLine
 10
76.649558
 20
145.402339
 30
0.0
 11
43.649558
 21
145.402339
 31
0.0
  0
ARC
  5
81E
100
AcDbEntity
  8
0
100
AcDbCircle
 10
46.099687
 20
164.250003
 30
0.0
 40
0.5
100
AcDbArc
 50
142.892974
 51
270.0
  0
ARC
  5
81F
100
AcDbEntity
  8
0
100
AcDbCircle
 10
43.659893
 20
157.450003
 30
0.0
 40
0.5
100
AcDbArc
 50
177.631731
 51
270.0
  0
LINE
  5
822
100
AcDbEntity
  8
0
100
AcDbLine
 10
43.149558
 20
149.150003
 30
0.0
 11
43.149558
 21
143.850003
 31
0.0
  0
ARC
  5
823
100
AcDbEntity
  8
0
100
AcDbCircle
 10
43.649558
 20
153.055893
 30
0.0
 40
0.5
100
AcDbArc
 50
180.0
 51
270.0
  0
ARC
  5
824
100
AcDbEntity
  8
0
100
AcDbCircle
 10
43.649558
 20
152.702339
 30
0.0
 40
0.5
100
AcDbArc
 50
180.0
 51
270.0
  0
ARC
  5
825
100
AcDbEntity
  8
0
100
AcDbCircle
 10
43.649558
 20
150.650003
 30
0.0
 40
0.5
100
AcDbArc
 50
180.0
 51
270.0
  0
LINE
  5
828
100
AcDbEntity
  8
0
100
AcDbLine
 10
76.649558
 20
143.350003
 30
0.0
 11
43.649558
 21
143.350003
 31
0.0
  0
ARC
  5
82A
100
AcDbEntity
  8
0
100
AcDbCircle
 10
43.649558
 20
146.255893
 30
0.0
 40
0.5
100
AcDbArc
 50
180.0
 51
270.0
  0
ARC
  5
82B
100
AcDbEntity
  8
0
100
AcDbCircle
 10
43.649558
 20
145.902339
 30
0.0
 40
0.5
100
AcDbArc
 50
180.0
 51
270.0
  0
ARC
  5
82C
100
AcDbEntity
  8
0
100
AcDbCircle
 10
43.649558
 20
143.850003
 30
0.0
 40
0.5
100
AcDbArc
 50
180.0
 51
270.0
  0
LINE
  5
82D
100
AcDbEntity
  8
0
100
AcDbLine
 10
76.649558
 20
136.550003
 30
0.0
 11
43.649558
 21
136.550003
 31
0.0
  0
LINE
  5
82E
100
AcDbEntity
  8
0
100
AcDbLine
 10
76.649558
 20
138.602339
 30
0.0
 11
43.649558
 21
138.602339
 31
0.0
  0
LINE
  5
82F
100
AcDbEntity
  8
0
100
AcDbLine
 10
76.649558
 20
138.955893
 30
0.0
 11
43.649558
 21
138.955893
 31
0.0
  0
LINE
  5
830
100
AcDbEntity
  8
0
 62
     4
100
AcDbLine
 10
76.649558
 20
142.350003
 30
0.0
 11
44.149558
 21
142.350003
 31
0.0
  0
LINE
  5
831
100
AcDbEntity
  8
0
100
AcDbLine
 10
43.149558
 20
142.350003
 30
0.0
 11
43.149558
 21
137.050003
 31
0.0
  0
ARC
  5
832
100
AcDbEntity
  8
0
100
AcDbCircle
 10
43.649558
 20
137.050003
 30
0.0
 40
0.5
100
AcDbArc
 50
180.0
 51
270.0
  0
ARC
  5
833
100
AcDbEntity
  8
0
100
AcDbCircle
 10
43.649558
 20
139.102339
 30
0.0
 40
0.5
100
AcDbArc
 50
180.0
 51
270.0
  0
ARC
  5
834
100
AcDbEntity
  8
0
100
AcDbCircle
 10
43.649558
 20
139.455893
 30
0.0
 40
0.5
100
AcDbArc
 50
180.0
 51
270.0
  0
LINE
  5
835
100
AcDbEntity
  8
0
 62
     4
100
AcDbLine
 10
76.649558
 20
128.750003
 30
0.0
 11
44.149558
 21
128.750003
 31
0.0
  0
LINE
  5
836
100
AcDbEntity
  8
0
100
AcDbLine
 10
76.649558
 20
125.355893
 30
0.0
 11
43.649558
 21
125.355893
 31
0.0
  0
LINE
  5
837
100
AcDbEntity
  8
0
100
AcDbLine
 10
76.649558
 20
125.002339
 30
0.0
 11
43.649558
 21
125.002339
 31
0.0
  0
LINE
  5
838
100
AcDbEntity
  8
0
100
AcDbLine
 10
76.649558
 20
122.950003
 30
0.0
 11
43.649558
 21
122.950003
 31
0.0
  0
LINE
  5
839
100
AcDbEntity
  8
0
100
AcDbLine
 10
76.649558
 20
129.750003
 30
0.0
 11
43.649558
 21
129.750003
 31
0.0
  0
LINE
  5
83A
100
AcDbEntity
  8
0
100
AcDbLine
 10
76.649558
 20
131.802339
 30
0.0
 11
43.649558
 21
131.802339
 31
0.0
  0
LINE
  5
83B
100
AcDbEntity
  8
0
100
AcDbLine
 10
76.649558
 20
132.155893
 30
0.0
 11
43.649558
 21
132.155893
 31
0.0
  0
LINE
  5
83C
100
AcDbEntity
  8
0
 62
     4
100
AcDbLine
 10
76.649558
 20
135.550003
 30
0.0
 11
44.149558
 21
135.550003
 31
0.0
  0
LINE
  5
83D
100
AcDbEntity
  8
0
100
AcDbLine
 10
43.149558
 20
135.550003
 30
0.0
 11
43.149558
 21
130.250003
 31
0.0
  0
LINE
  5
83E
100
AcDbEntity
  8
0
100
AcDbLine
 10
43.149558
 20
128.750003
 30
0.0
 11
43.149558
 21
123.450003
 31
0.0
  0
ARC
  5
83F
100
AcDbEntity
  8
0
100
AcDbCircle
 10
43.649558
 20
125.855893
 30
0.0
 40
0.5
100
AcDbArc
 50
180.0
 51
270.0
  0
ARC
  5
840
100
AcDbEntity
  8
0
100
AcDbCircle
 10
43.649558
 20
125.502339
 30
0.0
 40
0.5
100
AcDbArc
 50
180.0
 51
270.0
  0
ARC
  5
841
100
AcDbEntity
  8
0
100
AcDbCircle
 10
43.649558
 20
123.450003
 30
0.0
 40
0.5
100
AcDbArc
 50
180.0
 51
270.0
  0
ARC
  5
842
100
AcDbEntity
  8
0
100
AcDbCircle
 10
43.649558
 20
130.250003
 30
0.0
 40
0.5
100
AcDbArc
 50
180.0
 51
270.0
  0
ARC
  5
843
100
AcDbEntity
  8
0
100
AcDbCircle
 10
43.649558
 20
132.302339
 30
0.0
 40
0.5
100
AcDbArc
 50
180.0
 51
270.0
  0
ARC
  5
844
100
AcDbEntity
  8
0
100
AcDbCircle
 10
43.649558
 20
132.655893
 30
0.0
 40
0.5
100
AcDbArc
 50
180.0
 51
270.0
  0
LINE
  5
845
100
AcDbEntity
  8
0
 62
     4
100
AcDbLine
 10
76.649558
 20
121.950003
 30
0.0
 11
44.149558
 21
121.950003
 31
0.0
  0
LINE
  5
846
100
AcDbEntity
  8
0
100
AcDbLine
 10
76.649558
 20
118.555893
 30
0.0
 11
43.649558
 21
118.555893
 31
0.0
  0
LINE
  5
847
100
AcDbEntity
  8
0
100
AcDbLine
 10
76.649558
 20
118.202339
 30
0.0
 11
43.649558
 21
118.202339
 31
0.0
  0
LINE
  5
848
100
AcDbEntity
  8
0
100
AcDbLine
 10
76.649558
 20
116.150003
 30
0.0
 11
43.649558
 21
116.150003
 31
0.0
  0
LINE
  5
849
100
AcDbEntity
  8
0
100
AcDbLine
 10
76.649558
 20
109.350003
 30
0.0
 11
44.872058
 21
109.350003
 31
0.0
  0
LINE
  5
84A
100
AcDbEntity
  8
0
100
AcDbLine
 10
76.649558
 20
111.402339
 30
0.0
 11
44.533563
 21
111.402339
 31
0.0
  0
LINE
  5
84B
100
AcDbEntity
  8
0
100
AcDbLine
 10
76.649558
 20
111.755893
 30
0.0
 11
44.439231
 21
111.755893
 31
0.0
  0
LINE
  5
84C
100
AcDbEntity
  8
0
 62
     4
100
AcDbLine
 10
76.649558
 20
115.150003
 30
0.0
 11
44.149558
 21
115.150003
 31
0.0
  0
ARC
  5
84D
100
AcDbEntity
  8
0
100
AcDbCircle
 10
43.649558
 20
119.055893
 30
0.0
 40
0.5
100
AcDbArc
 50
180.0
 51
270.0
  0
ARC
  5
84E
100
AcDbEntity
  8
0
100
AcDbCircle
 10
43.649558
 20
118.702339
 30
0.0
 40
0.5
100
AcDbArc
 50
180.0
 51
270.0
  0
LINE
  5
84F
100
AcDbEntity
  8
0
100
AcDbLine
 10
43.149558
 20
121.950003
 30
0.0
 11
43.149558
 21
116.650003
 31
0.0
  0
LINE
  5
850
100
AcDbEntity
  8
0
100
AcDbLine
 10
43.149558
 20
115.150003
 30
0.0
 11
43.149558
 21
115.150003
 31
0.0
  0
ARC
  5
854
100
AcDbEntity
  8
0
100
AcDbCircle
 10
43.649558
 20
116.650003
 30
0.0
 40
0.5
100
AcDbArc
 50
180.0
 51
270.0
  0
LINE
  5
856
100
AcDbEntity
  8
0
100
AcDbLine
 10
76.649558
 20
104.955893
 30
0.0
 11
49.288631
 21
104.955893
 31
0.0
  0
LINE
  5
857
100
AcDbEntity
  8
0
100
AcDbLine
 10
76.649558
 20
104.602339
 30
0.0
 11
50.006514
 21
104.602339
 31
0.0
  0
LINE
  5
858
100
AcDbEntity
  8
0
 62
     4
100
AcDbLine
 10
76.649558
 20
108.350003
 30
0.0
 11
46.142013
 21
108.350003
 31
0.0
  0
ARC
  5
85B
100
AcDbEntity
  8
0
100
AcDbCircle
 10
55.749558
 20
115.150003
 30
0.0
 40
12.6
100
AcDbArc
 50
180.0
 51
205.977396
  0
LINE
  5
85E
100
AcDbEntity
  8
0
100
AcDbLine
 10
43.149558
 20
115.150003
 30
0.0
 11
44.050463
 21
111.773443
 31
0.0
  0
ARC
  5
85F
100
AcDbEntity
  8
0
100
AcDbCircle
 10
44.439231
 20
112.255893
 30
0.0
 40
0.5
100
AcDbArc
 50
194.939161
 51
270.0
  0
ARC
  5
860
100
AcDbEntity
  8
0
100
AcDbCircle
 10
44.533563
 20
111.902339
 30
0.0
 40
0.5
100
AcDbArc
 50
194.939161
 51
270.0
  0
ARC
  5
861
100
AcDbEntity
  8
0
100
AcDbCircle
 10
55.749558
 20
115.150003
 30
0.0
 40
12.6
100
AcDbArc
 50
212.662031
 51
270.0
  0
ARC
  5
862
100
AcDbEntity
  8
0
100
AcDbCircle
 10
44.872058
 20
109.850003
 30
0.0
 40
0.5
100
AcDbArc
 50
205.977396
 51
270.0
  0
ARC
  5
869
100
AcDbEntity
  8
0
100
AcDbCircle
 10
54.769627
 20
115.679331
 30
0.0
 40
12.1
100
AcDbArc
 50
217.281362
 51
245.756641
  0
ARC
  5
86A
100
AcDbEntity
  8
0
100
AcDbCircle
 10
49.288631
 20
105.455893
 30
0.0
 40
0.5
100
AcDbArc
 50
241.803324
 51
270.0
  0
ARC
  5
86B
100
AcDbEntity
  8
0
100
AcDbCircle
 10
50.006514
 20
105.102339
 30
0.0
 40
0.5
100
AcDbArc
 50
245.756641
 51
270.0
  0
LINE
  5
86F
100
AcDbEntity
  8
0
100
AcDbLine
 10
76.649558
 20
104.602339
 30
0.0
 11
103.292601
 21
104.602339
 31
0.0
  0
LINE
  5
870
100
AcDbEntity
  8
0
100
AcDbLine
 10
76.649558
 20
104.955893
 30
0.0
 11
104.010484
 21
104.955893
 31
0.0
  0
LINE
  5
871
100
AcDbEntity
  8
0
 62
     4
100
AcDbLine
 10
76.649558
 20
108.350003
 30
0.0
 11
107.157102
 21
108.350003
 31
0.0
  0
LINE
  5
872
100
AcDbEntity
  8
0
100
AcDbLine
 10
76.649558
 20
109.350003
 30
0.0
 11
108.427058
 21
109.350003
 31
0.0
  0
ARC
  5
873
100
AcDbEntity
  8
0
100
AcDbCircle
 10
97.549558
 20
115.150003
 30
0.0
 40
12.6
100
AcDbArc
 50
270.0
 51
327.337969
  0
LINE
  5
874
100
AcDbEntity
  8
0
100
AcDbLine
 10
76.649558
 20
111.402339
 30
0.0
 11
108.765553
 21
111.402339
 31
0.0
  0
LINE
  5
875
100
AcDbEntity
  8
0
100
AcDbLine
 10
76.649558
 20
111.755893
 30
0.0
 11
108.859885
 21
111.755893
 31
0.0
  0
LINE
  5
876
100
AcDbEntity
  8
0
 62
     4
100
AcDbLine
 10
76.649558
 20
115.150003
 30
0.0
 11
109.149558
 21
115.150003
 31
0.0
  0
LINE
  5
877
100
AcDbEntity
  8
0
100
AcDbLine
 10
76.649558
 20
116.150003
 30
0.0
 11
109.649558
 21
116.150003
 31
0.0
  0
LINE
  5
878
100
AcDbEntity
  8
0
100
AcDbLine
 10
76.649558
 20
118.202339
 30
0.0
 11
109.649558
 21
118.202339
 31
0.0
  0
LINE
  5
879
100
AcDbEntity
  8
0
100
AcDbLine
 10
76.649558
 20
118.555893
 30
0.0
 11
109.649558
 21
118.555893
 31
0.0
  0
LINE
  5
87A
100
AcDbEntity
  8
0
 62
     4
100
AcDbLine
 10
76.649558
 20
121.950003
 30
0.0
 11
109.149558
 21
121.950003
 31
0.0
  0
LINE
  5
87B
100
AcDbEntity
  8
0
 62
     4
100
AcDbLine
 10
76.649558
 20
135.550003
 30
0.0
 11
109.149558
 21
135.550003
 31
0.0
  0
LINE
  5
87C
100
AcDbEntity
  8
0
100
AcDbLine
 10
76.649558
 20
132.155893
 30
0.0
 11
109.649558
 21
132.155893
 31
0.0
  0
LINE
  5
87D
100
AcDbEntity
  8
0
100
AcDbLine
 10
76.649558
 20
131.802339
 30
0.0
 11
109.649558
 21
131.802339
 31
0.0
  0
LINE
  5
87E
100
AcDbEntity
  8
0
100
AcDbLine
 10
76.649558
 20
129.750003
 30
0.0
 11
109.649558
 21
129.750003
 31
0.0
  0
LINE
  5
87F
100
AcDbEntity
  8
0
100
AcDbLine
 10
76.649558
 20
122.950003
 30
0.0
 11
109.649558
 21
122.950003
 31
0.0
  0
LINE
  5
880
100
AcDbEntity
  8
0
100
AcDbLine
 10
76.649558
 20
125.002339
 30
0.0
 11
109.649558
 21
125.002339
 31
0.0
  0
LINE
  5
881
100
AcDbEntity
  8
0
100
AcDbLine
 10
76.649558
 20
125.355893
 30
0.0
 11
109.649558
 21
125.355893
 31
0.0
  0
LINE
  5
882
100
AcDbEntity
  8
0
 62
     4
100
AcDbLine
 10
76.649558
 20
128.750003
 30
0.0
 11
109.149558
 21
128.750003
 31
0.0
  0
LINE
  5
883
100
AcDbEntity
  8
0
 62
     4
100
AcDbLine
 10
76.649558
 20
142.350003
 30
0.0
 11
109.149558
 21
142.350003
 31
0.0
  0
LINE
  5
884
100
AcDbEntity
  8
0
100
AcDbLine
 10
76.649558
 20
138.955893
 30
0.0
 11
109.649558
 21
138.955893
 31
0.0
  0
LINE
  5
885
100
AcDbEntity
  8
0
100
AcDbLine
 10
76.649558
 20
138.602339
 30
0.0
 11
109.649558
 21
138.602339
 31
0.0
  0
LINE
  5
886
100
AcDbEntity
  8
0
100
AcDbLine
 10
76.649558
 20
136.550003
 30
0.0
 11
109.649558
 21
136.550003
 31
0.0
  0
LINE
  5
887
100
AcDbEntity
  8
0
100
AcDbLine
 10
76.649558
 20
143.350003
 30
0.0
 11
109.649558
 21
143.350003
 31
0.0
  0
LINE
  5
888
100
AcDbEntity
  8
0
100
AcDbLine
 10
76.649558
 20
145.402339
 30
0.0
 11
109.649558
 21
145.402339
 31
0.0
  0
LINE
  5
889
100
AcDbEntity
  8
0
100
AcDbLine
 10
76.649558
 20
145.755893
 30
0.0
 11
109.649558
 21
145.755893
 31
0.0
  0
LINE
  5
88A
100
AcDbEntity
  8
0
 62
     4
100
AcDbLine
 10
76.649558
 20
149.150003
 30
0.0
 11
109.149558
 21
149.150003
 31
0.0
  0
LINE
  5
88B
100
AcDbEntity
  8
0
100
AcDbLine
 10
76.649558
 20
150.150003
 30
0.0
 11
109.649558
 21
150.150003
 31
0.0
  0
LINE
  5
88C
100
AcDbEntity
  8
0
100
AcDbLine
 10
76.649558
 20
152.202339
 30
0.0
 11
109.649558
 21
152.202339
 31
0.0
  0
LINE
  5
88D
100
AcDbEntity
  8
0
100
AcDbLine
 10
76.649558
 20
152.555893
 30
0.0
 11
109.649558
 21
152.555893
 31
0.0
  0
LINE
  5
88E
100
AcDbEntity
  8
0
 62
     4
100
AcDbLine
 10
76.649558
 20
155.950003
 30
0.0
 11
109.149558
 21
155.950003
 31
0.0
  0
LINE
  5
88F
100
AcDbEntity
  8
0
100
AcDbLine
 10
76.649558
 20
156.950003
 30
0.0
 11
109.639223
 21
156.950003
 31
0.0
  0
LINE
  5
890
100
AcDbEntity
  8
0
100
AcDbLine
 10
76.649558
 20
159.355893
 30
0.0
 11
109.214062
 21
159.355893
 31
0.0
  0
LINE
  5
891
100
AcDbEntity
  8
0
100
AcDbLine
 10
76.649558
 20
159.002339
 30
0.0
 11
109.214062
 21
159.002339
 31
0.0
  0
LINE
  5
892
100
AcDbEntity
  8
0
 62
     4
100
AcDbLine
 10
76.649558
 20
162.750003
 30
0.0
 11
107.735263
 21
162.750003
 31
0.0
  0
LINE
  5
893
100
AcDbEntity
  8
0
100
AcDbLine
 10
76.649558
 20
163.750003
 30
0.0
 11
107.199428
 21
163.750003
 31
0.0
  0
LINE
  5
894
100
AcDbEntity
  8
0
100
AcDbLine
 10
76.649558
 20
165.802339
 30
0.0
 11
103.522806
 21
165.802339
 31
0.0
  0
LINE
  5
895
100
AcDbEntity
  8
0
100
AcDbLine
 10
76.649558
 20
166.155893
 30
0.0
 11
103.522806
 21
166.155893
 31
0.0
  0
ARC
  5
896
100
AcDbEntity
  8
0
100
AcDbCircle
 10
97.549558
 20
156.950003
 30
0.0
 40
12.6
100
AcDbArc
 50
37.107026
 51
90.0
  0
LINE
  5
897
100
AcDbEntity
  8
0
100
AcDbLine
 10
97.549558
 20
169.550003
 30
0.0
 11
103.706304
 21
167.121004
 31
0.0
  0
ARC
  5
898
100
AcDbEntity
  8
0
100
AcDbCircle
 10
107.199428
 20
164.250003
 30
0.0
 40
0.5
100
AcDbArc
 50
270.0
 51
37.107026
  0
ARC
  5
899
100
AcDbEntity
  8
0
100
AcDbCircle
 10
109.649558
 20
132.655893
 30
0.0
 40
0.5
100
AcDbArc
 50
270.0
 51
360.0
  0
ARC
  5
89A
100
AcDbEntity
  8
0
100
AcDbCircle
 10
109.649558
 20
132.302339
 30
0.0
 40
0.5
100
AcDbArc
 50
270.0
 51
360.0
  0
LINE
  5
89B
100
AcDbEntity
  8
0
100
AcDbLine
 10
110.149558
 20
135.550003
 30
0.0
 11
110.149558
 21
130.250003
 31
0.0
  0
ARC
  5
89C
100
AcDbEntity
  8
0
100
AcDbCircle
 10
109.649558
 20
116.650003
 30
0.0
 40
0.5
100
AcDbArc
 50
270.0
 51
360.0
  0
ARC
  5
89D
100
AcDbEntity
  8
0
100
AcDbCircle
 10
98.529489
 20
115.679331
 30
0.0
 40
12.1
100
AcDbArc
 50
294.243359
 51
322.718638
  0
ARC
  5
89E
100
AcDbEntity
  8
0
100
AcDbCircle
 10
103.292601
 20
105.102339
 30
0.0
 40
0.5
100
AcDbArc
 50
270.0
 51
294.243359
  0
ARC
  5
89F
100
AcDbEntity
  8
0
100
AcDbCircle
 10
104.010484
 20
105.455893
 30
0.0
 40
0.5
100
AcDbArc
 50
270.0
 51
298.196676
  0
ARC
  5
8A0
100
AcDbEntity
  8
0
100
AcDbCircle
 10
97.549558
 20
115.150003
 30
0.0
 40
12.6
100
AcDbArc
 50
334.022604
 51
360.0
  0
LINE
  5
8A1
100
AcDbEntity
  8
0
100
AcDbLine
 10
110.149558
 20
115.150003
 30
0.0
 11
109.248653
 21
111.773443
 31
0.0
  0
ARC
  5
8A2
100
AcDbEntity
  8
0
100
AcDbCircle
 10
108.427058
 20
109.850003
 30
0.0
 40
0.5
100
AcDbArc
 50
270.0
 51
334.022604
  0
ARC
  5
8A3
100
AcDbEntity
  8
0
100
AcDbCircle
 10
108.765553
 20
111.902339
 30
0.0
 40
0.5
100
AcDbArc
 50
270.0
 51
345.060839
  0
ARC
  5
8A4
100
AcDbEntity
  8
0
100
AcDbCircle
 10
108.859885
 20
112.255893
 30
0.0
 40
0.5
100
AcDbArc
 50
270.0
 51
345.060839
  0
LINE
  5
8A5
100
AcDbEntity
  8
0
100
AcDbLine
 10
110.149558
 20
115.150003
 30
0.0
 11
110.149558
 21
115.150003
 31
0.0
  0
LINE
  5
8A6
100
AcDbEntity
  8
0
100
AcDbLine
 10
110.149558
 20
128.750003
 30
0.0
 11
110.149558
 21
123.450003
 31
0.0
  0
LINE
  5
8A7
100
AcDbEntity
  8
0
100
AcDbLine
 10
110.149558
 20
121.950003
 30
0.0
 11
110.149558
 21
116.650003
 31
0.0
  0
ARC
  5
8A8
100
AcDbEntity
  8
0
100
AcDbCircle
 10
109.649558
 20
118.702339
 30
0.0
 40
0.5
100
AcDbArc
 50
270.0
 51
360.0
  0
ARC
  5
8A9
100
AcDbEntity
  8
0
100
AcDbCircle
 10
109.649558
 20
119.055893
 30
0.0
 40
0.5
100
AcDbArc
 50
270.0
 51
360.0
  0
ARC
  5
8AA
100
AcDbEntity
  8
0
100
AcDbCircle
 10
109.649558
 20
123.450003
 30
0.0
 40
0.5
100
AcDbArc
 50
270.0
 51
360.0
  0
ARC
  5
8AB
100
AcDbEntity
  8
0
100
AcDbCircle
 10
109.649558
 20
125.502339
 30
0.0
 40
0.5
100
AcDbArc
 50
270.0
 51
360.0
  0
ARC
  5
8AC
100
AcDbEntity
  8
0
100
AcDbCircle
 10
109.649558
 20
125.855893
 30
0.0
 40
0.5
100
AcDbArc
 50
270.0
 51
360.0
  0
ARC
  5
8AD
100
AcDbEntity
  8
0
100
AcDbCircle
 10
109.649558
 20
130.250003
 30
0.0
 40
0.5
100
AcDbArc
 50
270.0
 51
360.0
  0
LINE
  5
8AE
100
AcDbEntity
  8
0
100
AcDbLine
 10
110.149558
 20
149.150003
 30
0.0
 11
110.149558
 21
143.850003
 31
0.0
  0
LINE
  5
8AF
100
AcDbEntity
  8
0
100
AcDbLine
 10
110.149558
 20
142.350003
 30
0.0
 11
110.149558
 21
137.050003
 31
0.0
  0
ARC
  5
8B0
100
AcDbEntity
  8
0
100
AcDbCircle
 10
109.649558
 20
139.455893
 30
0.0
 40
0.5
100
AcDbArc
 50
270.0
 51
360.0
  0
ARC
  5
8B1
100
AcDbEntity
  8
0
100
AcDbCircle
 10
109.649558
 20
139.102339
 30
0.0
 40
0.5
100
AcDbArc
 50
270.0
 51
360.0
  0
ARC
  5
8B2
100
AcDbEntity
  8
0
100
AcDbCircle
 10
109.649558
 20
137.050003
 30
0.0
 40
0.5
100
AcDbArc
 50
270.0
 51
360.0
  0
ARC
  5
8B3
100
AcDbEntity
  8
0
100
AcDbCircle
 10
109.649558
 20
143.850003
 30
0.0
 40
0.5
100
AcDbArc
 50
270.0
 51
360.0
  0
ARC
  5
8B4
100
AcDbEntity
  8
0
100
AcDbCircle
 10
109.649558
 20
145.902339
 30
0.0
 40
0.5
100
AcDbArc
 50
270.0
 51
360.0
  0
ARC
  5
8B5
100
AcDbEntity
  8
0
100
AcDbCircle
 10
109.649558
 20
146.255893
 30
0.0
 40
0.5
100
AcDbArc
 50
270.0
 51
360.0
  0
LINE
  5
8B6
100
AcDbEntity
  8
0
100
AcDbLine
 10
110.149558
 20
155.950003
 30
0.0
 11
110.149558
 21
150.650003
 31
0.0
  0
ARC
  5
8B7
100
AcDbEntity
  8
0
100
AcDbCircle
 10
109.649558
 20
150.650003
 30
0.0
 40
0.5
100
AcDbArc
 50
270.0
 51
0.0
  0
ARC
  5
8B8
100
AcDbEntity
  8
0
100
AcDbCircle
 10
109.649558
 20
152.702339
 30
0.0
 40
0.5
100
AcDbArc
 50
270.0
 51
0.0
  0
ARC
  5
8B9
100
AcDbEntity
  8
0
100
AcDbCircle
 10
109.649558
 20
153.055893
 30
0.0
 40
0.5
100
AcDbArc
 50
270.0
 51
0.0
  0
ARC
  5
8BA
100
AcDbEntity
  8
0
100
AcDbCircle
 10
97.549558
 20
156.950003
 30
0.0
 40
12.6
100
AcDbArc
 50
2.368269
 51
27.407595
  0
LINE
  5
8BB
100
AcDbEntity
  8
0
100
AcDbLine
 10
109.714062
 20
159.855893
 30
0.0
 11
109.714062
 21
159.502339
 31
0.0
  0
ARC
  5
8BC
100
AcDbEntity
  8
0
100
AcDbCircle
 10
109.214062
 20
159.855893
 30
0.0
 40
0.5
100
AcDbArc
 50
270.0
 51
19.207728
  0
ARC
  5
8BD
100
AcDbEntity
  8
0
100
AcDbCircle
 10
109.639223
 20
157.450003
 30
0.0
 40
0.5
100
AcDbArc
 50
270.0
 51
2.368269
  0
ARC
  5
8BE
100
AcDbEntity
  8
0
100
AcDbCircle
 10
109.214062
 20
159.502339
 30
0.0
 40
0.5
100
AcDbArc
 50
270.0
 51
0.0
  0
LINE
  5
8BF
100
AcDbEntity
  8
0
100
AcDbLine
 10
108.735263
 20
162.750003
 30
0.0
 11
109.686228
 21
160.02039
 31
0.0
  0
ARC
  5
8C0
100
AcDbEntity
  8
0
100
AcDbCircle
 10
103.522806
 20
166.302339
 30
0.0
 40
0.5
100
AcDbArc
 50
270.0
 51
0.0
  0
LINE
  5
8C1
100
AcDbEntity
  8
0
100
AcDbLine
 10
104.022806
 20
166.655893
 30
0.0
 11
104.022806
 21
166.302339
 31
0.0
  0
ARC
  5
8C2
100
AcDbEntity
  8
0
100
AcDbCircle
 10
103.522806
 20
166.655893
 30
0.0
 40
0.5
100
AcDbArc
 50
270.0
 51
68.469459
  0
LINE
  5
8C3
100
AcDbEntity
  8
0
100
AcDbLine
 10
76.649558
 20
102.550003
 30
0.0
 11
97.549558
 21
102.550003
 31
0.0
  0
LINE
  5
8C4
100
AcDbEntity
  8
0
 62
     4
100
AcDbLine
 10
76.649558
 20
169.550003
 30
0.0
 11
96.549558
 21
169.550003
 31
0.0
  0
LINE
  5
8C7
100
AcDbEntity
  8
0
100
AcDbLine
 10
72.649558
 20
99.050003
 30
0.0
 11
72.649558
 21
97.550003
 31
0.0
  0
LINE
  5
8C8
100
AcDbEntity
  8
0
100
AcDbLine
 10
80.649558
 20
99.050003
 30
0.0
 11
80.649558
 21
97.550003
 31
0.0
  0
LINE
  5
8C9
100
AcDbEntity
  8
0
100
AcDbLine
 10
80.149558
 20
99.550003
 30
0.0
 11
73.149558
 21
99.550003
 31
0.0
  0
ARC
  5
8CA
100
AcDbEntity
  8
0
100
AcDbCircle
 10
73.149558
 20
99.050003
 30
0.0
 40
0.5
100
AcDbArc
 50
90.0
 51
180.0
  0
ARC
  5
8CB
100
AcDbEntity
  8
0
100
AcDbCircle
 10
80.149558
 20
99.050003
 30
0.0
 40
0.5
100
AcDbArc
 50
0.0
 51
90.0
  0
LINE
  5
8CC
100
AcDbEntity
  8
0
100
AcDbLine
 10
80.649558
 20
98.050003
 30
0.0
 11
72.649558
 21
98.050003
 31
0.0
  0
INSERT
  5
8F1
100
AcDbEntity
  8
0
100
AcDbBlockReference
  2
A$C0978713F
 10
36.950972
 20
159.450002
 30
0.0
  0
INSERT
  5
8F4
100
AcDbEntity
  8
0
100
AcDbBlockReference
  2
A$C0978713F
 10
36.950972
 20
109.450002
 30
0.0
  0
INSERT
  5
8F5
100
AcDbEntity
  8
0
100
AcDbBlockReference
  2
A$C0978713F
 10
116.348143
 20
159.450002
 30
0.0
 41
-1.0
  0
INSERT
  5
8F6
100
AcDbEntity
  8
0
100
AcDbBlockReference
  2
A$C0978713F
 10
116.348143
 20
109.450002
 30
0.0
 41
-1.0
  0
INSERT
  5
911
100
AcDbEntity
  8
0
100
AcDbBlockReference
  2
A$C6DE4426D
 10
209.627362
 20
160.300003
 30
0.0
  0
LEADER
  5
916
100
AcDbEntity
  8
DIMENSION
100
AcDbLeader
  3
STANDARD_WS
 73
     0
 40
2.16
 41
8.345455
 76
     3
 10
78.673039
 20
97.550003
 30
0.0
 10
89.223864
 20
79.27511
 30
0.0
 10
92.474131
 20
79.27511
 30
0.0
 77
   256
340
917
1001
ACAD
1000
DSTYLE
1002
{
1070
    40
1040
12.0
1070
   271
1070
     0
1002
}
  0
MTEXT
  5
917
102
{ACAD_REACTORS
330
916
102
}
100
AcDbEntity
  8
DIMENSION
100
AcDbMText
 10
93.554131
 20
79.27511
 30
0.0
 40
2.16
 41
0.0
 71
     4
 72
     1
  1
\A1;\fÇlÇr ÇoÉSÉVÉbÉN|b0|i0|c128|p50;DRAIN
  0
LEADER
  5
918
100
AcDbEntity
  8
DIMENSION
100
AcDbLeader
  3
STANDARD_WS
 73
     0
 40
2.16
 41
9.842727
 76
     3
 10
116.228279
 20
161.950002
 30
0.0
 10
124.807283
 20
176.80922
 30
0.0
 10
127.752111
 20
176.80922
 30
0.0
 77
   256
340
919
1001
ACAD
1000
DSTYLE
1002
{
1070
    40
1040
12.0
1070
   271
1070
     0
1002
}
  0
MTEXT
  5
919
102
{ACAD_REACTORS
330
918
102
}
100
AcDbEntity
  8
DIMENSION
100
AcDbMText
 10
128.832111
 20
176.80922
 30
0.0
 40
2.16
 41
0.0
 71
     4
 72
     1
  1
\A1;\fÇlÇr ÇoÉSÉVÉbÉN|b0|i0|c128|p50;SCREW
  0
DIMENSION
  5
92C
100
AcDbEntity
  8
DIMENSION
100
AcDbDimension
  2
*D3
 10
233.551413
 20
111.800003
 30
0.0
 11
233.551413
 21
136.050003
 31
0.0
 70
    32
  1
\fÇlÇr ÇoÉSÉVÉbÉN|b0|i0|c128|p50;É”Ç`
  3
STANDARD_WS
100
AcDbAlignedDimension
 13
221.051413
 23
160.300003
 33
0.0
 14
221.051413
 24
111.800003
 34
0.0
 50
90.0
100
AcDbRotatedDimension
1001
ACAD
1000
DSTYLE
1002
{
1070
    74
1070
     0
1070
    73
1070
     0
1070
    40
1040
12.0
1070
   271
1070
     0
1002
}
  0
DIMENSION
  5
93A
100
AcDbEntity
  8
DIMENSION
100
AcDbDimension
  2
*D4
 10
243.551413
 20
97.550003
 30
0.0
 11
243.551413
 21
136.050003
 31
0.0
 70
    32
  1
\fÇlÇr ÇoÉSÉVÉbÉN|b0|i0|c128|p50;Å†Ça
  3
STANDARD_WS
100
AcDbAlignedDimension
 13
189.051413
 23
174.550003
 33
0.0
 14
189.051413
 24
97.550003
 34
0.0
 50
90.0
100
AcDbRotatedDimension
1001
ACAD
1000
DSTYLE
1002
{
1070
    74
1070
     0
1070
    73
1070
     0
1070
    40
1040
12.0
1070
   271
1070
     0
1002
}
  0
DIMENSION
  5
948
100
AcDbEntity
  8
DIMENSION
100
AcDbDimension
  2
*D5
 10
189.051413
 20
85.550003
 30
0.0
 11
186.551413
 21
85.550003
 31
0.0
 12
-5.0
 22
0.0
 32
0.0
 70
    32
  1
\fÇlÇr ÇoÉSÉVÉbÉN|b0|i0|c128|p50;Çd
  3
STANDARD_WS
100
AcDbAlignedDimension
 13
184.051413
 23
98.050003
 33
0.0
 14
189.051413
 24
97.550003
 34
0.0
100
AcDbRotatedDimension
1001
ACAD
1000
DSTYLE
1002
{
1070
    74
1070
     0
1070
    73
1070
     0
1070
    40
1040
12.0
1070
   271
1070
     0
1002
}
  0
DIMENSION
  5
956
100
AcDbEntity
  8
DIMENSION
100
AcDbDimension
  2
*D6
 10
194.051413
 20
75.550003
 30
0.0
 11
189.211801
 21
75.550003
 31
0.0
 70
   160
  1
\fÇlÇr ÇoÉSÉVÉbÉN|b0|i0|c128|p50;Çb
  3
STANDARD_WS
100
AcDbAlignedDimension
 13
184.051413
 23
98.050003
 33
0.0
 14
194.051413
 24
100.050003
 34
0.0
100
AcDbRotatedDimension
1001
ACAD
1000
DSTYLE
1002
{
1070
    74
1070
     0
1070
    73
1070
     0
1070
    40
1040
12.0
1070
   271
1070
     0
1002
}
  0
DIMENSION
  5
964
100
AcDbEntity
  8
DIMENSION
100
AcDbDimension
  2
*D7
 10
221.551413
 20
75.550003
 30
0.0
 11
207.801413
 21
75.550003
 31
0.0
 70
    32
  1
\fÇlÇr ÇoÉSÉVÉbÉN|b0|i0|c128|p50;Çc
  3
STANDARD_WS
100
AcDbAlignedDimension
 13
194.051413
 23
100.050003
 33
0.0
 14
221.551413
 24
112.300003
 34
0.0
100
AcDbRotatedDimension
1001
ACAD
1000
DSTYLE
1002
{
1070
    74
1070
     0
1070
    73
1070
     0
1070
    40
1040
12.0
1070
   271
1070
     0
1002
}
  0
LINE
  5
A31
100
AcDbEntity
  8
TABLE
100
AcDbLine
 10
9.0
 20
36.0
 30
0.0
 11
130.0
 21
36.0
 31
0.0
  0
LINE
  5
A32
100
AcDbEntity
  8
TABLE
100
AcDbLine
 10
9.0
 20
17.0
 30
0.0
 11
130.0
 21
17.0
 31
0.0
  0
LINE
  5
A33
100
AcDbEntity
  8
TABLE
100
AcDbLine
 10
9.0
 20
23.0
 30
0.0
 11
130.0
 21
23.0
 31
0.0
  0
LINE
  5
A35
100
AcDbEntity
  8
TABLE
100
AcDbLine
 10
83.0
 20
36.0
 30
0.0
 11
83.0
 21
11.0
 31
0.0
  0
MTEXT
  5
A36
100
AcDbEntity
  8
TABLE
100
AcDbMText
 10
89.0
 20
33.0
 30
0.0
 40
2.5
 41
12.0
 71
     5
 72
     5
  1
\fÇlÇr ÇoÉSÉVÉbÉN|b0|i0|c128|p50;Çd
  0
MTEXT
  5
A38
100
AcDbEntity
  8
TABLE
100
AcDbMText
 10
53.0
 20
26.0
 30
0.0
 40
2.5
 41
12.0
 71
     5
 72
     5
  1
\fÇlÇr ÇoÉSÉVÉbÉN|b0|i0|c128|p50;ÇPÇTÇS
  0
MTEXT
  5
A39
100
AcDbEntity
  8
TABLE
100
AcDbMText
 10
22.0
 20
26.0
 30
0.0
 40
2.5
 41
26.0
 71
     5
 72
     5
  1
\fÇlÇr ÇoÉSÉVÉbÉN|b0|i0|c128|p50;ÇjÇwÅ@ÇPÇOÇOÇrÇaÇk
  0
MTEXT
  5
A3A
100
AcDbEntity
  8
TABLE
100
AcDbMText
 10
41.0
 20
26.0
 30
0.0
 40
2.5
 41
12.0
 71
     5
 72
     5
  1
\fÇlÇr ÇoÉSÉVÉbÉN|b0|i0|c128|p50;Å@ÇXÇV
  0
MTEXT
  5
A3B
100
AcDbEntity
  8
TABLE
100
AcDbMText
 10
77.0
 20
26.0
 30
0.0
 40
2.5
 41
12.0
 71
     5
 72
     5
  1
\fÇlÇr ÇoÉSÉVÉbÉN|b0|i0|c128|p50;ÇTÇT
  0
MTEXT
  5
A3C
100
AcDbEntity
  8
TABLE
100
AcDbMText
 10
65.0
 20
26.0
 30
0.0
 40
2.5
 41
12.0
 71
     5
 72
     5
  1
\fÇlÇr ÇoÉSÉVÉbÉN|b0|i0|c128|p50;ÇQÇO
  0
MTEXT
  5
A3D
100
AcDbEntity
  8
TABLE
100
AcDbMText
 10
89.0
 20
26.0
 30
0.0
 40
2.5
 41
12.0
 71
     5
 72
     5
  1
\fÇlÇr ÇoÉSÉVÉbÉN|b0|i0|c128|p50;ÇPÇO
  0
MTEXT
  5
A3E
100
AcDbEntity
  8
TABLE
100
AcDbMText
 10
22.0
 20
20.0
 30
0.0
 40
2.5
 41
26.0
 71
     5
 72
     5
  1
\fÇlÇr ÇoÉSÉVÉbÉN|b0|i0|c128|p50;ÇjÇwÅ@ÇPÇQÇTÇrÇaÇk
  0
MTEXT
  5
A3F
100
AcDbEntity
  8
TABLE
100
AcDbMText
 10
41.0
 20
20.0
 30
0.0
 40
2.5
 41
12.0
 71
     5
 72
     5
  1
\fÇlÇr ÇoÉSÉVÉbÉN|b0|i0|c128|p50;ÇPÇQÇQ
  0
MTEXT
  5
A40
100
AcDbEntity
  8
TABLE
100
AcDbMText
 10
53.0
 20
20.0
 30
0.0
 40
2.5
 41
12.0
 71
     5
 72
     5
  1
\fÇlÇr ÇoÉSÉVÉbÉN|b0|i0|c128|p50;ÇQÇOÇS
  0
MTEXT
  5
A41
100
AcDbEntity
  8
TABLE
100
AcDbMText
 10
65.0
 20
20.0
 30
0.0
 40
2.5
 41
12.0
 71
     5
 72
     5
  1
\fÇlÇr ÇoÉSÉVÉbÉN|b0|i0|c128|p50;ÇQÇO
  0
MTEXT
  5
A42
100
AcDbEntity
  8
TABLE
100
AcDbMText
 10
77.0
 20
20.0
 30
0.0
 40
2.5
 41
12.0
 71
     5
 72
     5
  1
\fÇlÇr ÇoÉSÉVÉbÉN|b0|i0|c128|p50;ÇTÇT
  0
MTEXT
  5
A43
100
AcDbEntity
  8
TABLE
100
AcDbMText
 10
89.0
 20
20.0
 30
0.0
 40
2.5
 41
12.0
 71
     5
 72
     5
  1
\fÇlÇr ÇoÉSÉVÉbÉN|b0|i0|c128|p50;ÇPÇO
  0
MTEXT
  5
A44
100
AcDbEntity
  8
TABLE
100
AcDbMText
 10
22.0
 20
14.0
 30
0.0
 40
2.5
 41
26.0
 71
     5
 72
     5
  1
\fÇlÇr ÇoÉSÉVÉbÉN|b0|i0|c128|p50;ÇjÇwÅ@ÇPÇTÇOÇrÇaÇk
  0
MTEXT
  5
A49
100
AcDbEntity
  8
TABLE
100
AcDbMText
 10
53.0
 20
14.0
 30
0.0
 40
2.5
 41
12.0
 71
     5
 72
     5
  1
\fÇlÇr ÇoÉSÉVÉbÉN|b0|i0|c128|p50;ÇQÇOÇS
  0
MTEXT
  5
A4C
100
AcDbEntity
  8
TABLE
100
AcDbMText
 10
41.0
 20
14.0
 30
0.0
 40
2.5
 41
12.0
 71
     5
 72
     5
  1
\fÇlÇr ÇoÉSÉVÉbÉN|b0|i0|c128|p50;ÇPÇSÇV
  0
MTEXT
  5
A4F
100
AcDbEntity
  8
TABLE
100
AcDbMText
 10
77.0
 20
14.0
 30
0.0
 40
2.5
 41
12.0
 71
     5
 72
     5
  1
\fÇlÇr ÇoÉSÉVÉbÉN|b0|i0|c128|p50;ÇUÇO
  0
MTEXT
  5
A52
100
AcDbEntity
  8
TABLE
100
AcDbMText
 10
65.0
 20
14.0
 30
0.0
 40
2.5
 41
12.0
 71
     5
 72
     5
  1
\fÇlÇr ÇoÉSÉVÉbÉN|b0|i0|c128|p50;ÇQÇO
  0
MTEXT
  5
A55
100
AcDbEntity
  8
TABLE
100
AcDbMText
 10
89.0
 20
14.0
 30
0.0
 40
2.5
 41
12.0
 71
     5
 72
     5
  1
\fÇlÇr ÇoÉSÉVÉbÉN|b0|i0|c128|p50;ÇPÇO
  0
LEADER
  5
ABE
100
AcDbEntity
  8
DIMENSION
100
AcDbLeader
  3
STANDARD_WS
 73
     0
 40
2.16
 41
10.345909
 76
     3
 10
212.7037
 20
161.666836
 30
0.0
 10
214.586508
 20
168.693517
 30
0.0
 10
216.136656
 20
168.693502
 30
0.0
 77
   256
340
ABF
1001
ACAD
1000
DSTYLE
1002
{
1070
    74
1070
     0
1070
    73
1070
     0
1070
    40
1040
12.0
1070
   271
1070
     0
1002
}
  0
MTEXT
  5
ABF
102
{ACAD_REACTORS
330
ABE
102
}
100
AcDbEntity
  8
DIMENSION
100
AcDbMText
 10
217.216656
 20
168.693502
 30
0.0
 40
2.16
 41
0.0
 71
     4
 72
     1
  1
\A1;\fÇlÇr ÇoÉSÉVÉbÉN|b0|i0|c128|p50;SPRING
  0
LINE
  5
AE3
100
AcDbEntity
  8
0
100
AcDbLine
 10
193.551413
 20
111.800003
 30
0.0
 11
193.551413
 21
100.050003
 31
0.0
  0
LINE
  5
AE4
100
AcDbEntity
  8
0
 62
     3
100
AcDbLine
 10
193.551413
 20
160.300003
 30
0.0
 11
193.551413
 21
111.800003
 31
0.0
  0
ENDSEC
  0
SECTION
  2
OBJECTS
  0
DICTIONARY
  5
C
100
AcDbDictionary
  3
ACAD_GROUP
350
D
  3
ACAD_MLINESTYLE
350
1B
  3
ACDBVARIABLEDICTIONARY
350
2B
  3
CONTENTDICTIONARY
350
23
  3
DRAWINGVARIABLESDICT
350
145
  0
DICTIONARY
  5
D
102
{ACAD_REACTORS
330
C
102
}
100
AcDbDictionary
  0
DICTIONARY
  5
1B
102
{ACAD_REACTORS
330
C
102
}
100
AcDbDictionary
  3
STANDARD
350
1C
  0
DICTIONARY
  5
2B
102
{ACAD_REACTORS
330
C
102
}
100
AcDbDictionary
  3
DIMADEC
350
2C
  3
SORTENTS
350
104
  0
DICTIONARY
  5
23
102
{ACAD_REACTORS
330
C
102
}
100
AcDbDictionary
  0
DICTIONARY
  5
145
102
{ACAD_REACTORS
330
C
102
}
100
AcDbDictionary
1001
DRAWINGVARIABLESXDATA
1000
POLARMODE
1000
1
1000
POLARANG
1000
0.261799
  0
MLINESTYLE
  5
1C
102
{ACAD_REACTORS
330
1B
102
}
100
AcDbMlineStyle
  2
STANDARD
 70
     0
  3

 62
   256
 51
90.0
 52
90.0
 71
     2
 49
0.5
 62
   256
  6
BYLAYER
 49
-0.5
 62
   256
  6
BYLAYER
  0
DICTIONARYVAR
  5
2C
102
{ACAD_REACTORS
330
2B
102
}
100
DictionaryVariables
280
     0
  1
0
  0
DICTIONARYVAR
  5
104
102
{ACAD_REACTORS
330
2B
102
}
100
DictionaryVariables
280
     0
  1
96
  0
ENDSEC
  0
EOF
