  0
SECTION
  2
HEADER
  9
$ACADVER
  1
AC1009
  9
$INSBASE
 10
0.0
 20
0.0
 30
0.0
  9
$EXTMIN
 10
-0.0003661829982491
 20
-0.0002746372486868
 30
-0.0015258207003583
  9
$EXTMAX
 10
12.0003662388776
 20
12.00022890628342
 30
0.0000000349246037
  9
$LIMMIN
 10
0.0
 20
0.0
  9
$LIMMAX
 10
12.0
 20
9.0
  9
$ORTHOMODE
 70
     1
  9
$REGENMODE
 70
     1
  9
$FILLMODE
 70
     1
  9
$QTEXTMODE
 70
     0
  9
$MIRRTEXT
 70
     0
  9
$DRAGMODE
 70
     2
  9
$LTSCALE
 40
1.0
  9
$OSMODE
 70
    23
  9
$ATTMODE
 70
     1
  9
$TEXTSIZE
 40
0.2
  9
$TRACEWID
 40
0.05
  9
$TEXTSTYLE
  7
STANDARD
  9
$CLAYER
  8
0
  9
$CELTYPE
  6
BYLAYER
  9
$CECOLOR
 62
   256
  9
$DIMSCALE
 40
1.0
  9
$DIMASZ
 40
0.18
  9
$DIMEXO
 40
0.0625
  9
$DIMDLI
 40
0.38
  9
$DIMRND
 40
0.0
  9
$DIMDLE
 40
0.0
  9
$DIMEXE
 40
0.18
  9
$DIMTP
 40
0.0
  9
$DIMTM
 40
0.0
  9
$DIMTXT
 40
0.18
  9
$DIMCEN
 40
0.09
  9
$DIMTSZ
 40
0.0
  9
$DIMTOL
 70
     0
  9
$DIMLIM
 70
     0
  9
$DIMTIH
 70
     1
  9
$DIMTOH
 70
     1
  9
$DIMSE1
 70
     0
  9
$DIMSE2
 70
     0
  9
$DIMTAD
 70
     0
  9
$DIMZIN
 70
     0
  9
$DIMBLK
  1

  9
$DIMASO
 70
     1
  9
$DIMSHO
 70
     1
  9
$DIMPOST
  1

  9
$DIMAPOST
  1

  9
$DIMALT
 70
     0
  9
$DIMALTD
 70
     2
  9
$DIMALTF
 40
25.399999999999999
  9
$DIMLFAC
 40
1.0
  9
$DIMTOFL
 70
     0
  9
$DIMTVP
 40
0.0
  9
$DIMTIX
 70
     0
  9
$DIMSOXD
 70
     0
  9
$DIMSAH
 70
     0
  9
$DIMBLK1
  1

  9
$DIMBLK2
  1

  9
$DIMSTYLE
  2
STANDARD
  9
$DIMCLRD
 70
     0
  9
$DIMCLRE
 70
     0
  9
$DIMCLRT
 70
     0
  9
$DIMTFAC
 40
1.0
  9
$DIMGAP
 40
0.09
  9
$LUNITS
 70
     2
  9
$LUPREC
 70
     4
  9
$SKETCHINC
 40
0.1
  9
$FILLETRAD
 40
0.0
  9
$AUNITS
 70
     0
  9
$AUPREC
 70
     0
  9
$MENU
  1
.
  9
$ELEVATION
 40
0.0
  9
$PELEVATION
 40
0.0
  9
$THICKNESS
 40
0.0
  9
$LIMCHECK
 70
     0
  9
$BLIPMODE
 70
     0
  9
$CHAMFERA
 40
0.0
  9
$CHAMFERB
 40
0.0
  9
$SKPOLY
 70
     0
  9
$TDCREATE
 40
2454287.802030127
  9
$TDUPDATE
 40
2454287.8023136579
  9
$TDINDWG
 40
0.0002837153
  9
$TDUSRTIMER
 40
0.0002837153
  9
$USRTIMER
 70
     1
  9
$ANGBASE
 50
0.0
  9
$ANGDIR
 70
     0
  9
$PDMODE
 70
     0
  9
$PDSIZE
 40
0.0
  9
$PLINEWID
 40
0.0
  9
$COORDS
 70
     1
  9
$SPLFRAME
 70
     0
  9
$SPLINETYPE
 70
     6
  9
$SPLINESEGS
 70
     8
  9
$ATTDIA
 70
     0
  9
$ATTREQ
 70
     1
  9
$HANDLING
 70
     1
  9
$HANDSEED
  5
7C0
  9
$SURFTAB1
 70
     6
  9
$SURFTAB2
 70
     6
  9
$SURFTYPE
 70
     6
  9
$SURFU
 70
     6
  9
$SURFV
 70
     6
  9
$UCSNAME
  2

  9
$UCSORG
 10
0.0
 20
0.0
 30
0.0
  9
$UCSXDIR
 10
1.0
 20
0.0
 30
0.0
  9
$UCSYDIR
 10
0.0
 20
1.0
 30
0.0
  9
$PUCSNAME
  2

  9
$PUCSORG
 10
0.0
 20
0.0
 30
0.0
  9
$PUCSXDIR
 10
1.0
 20
0.0
 30
0.0
  9
$PUCSYDIR
 10
0.0
 20
1.0
 30
0.0
  9
$USERI1
 70
     0
  9
$USERI2
 70
     0
  9
$USERI3
 70
     0
  9
$USERI4
 70
     0
  9
$USERI5
 70
     0
  9
$USERR1
 40
0.0
  9
$USERR2
 40
0.0
  9
$USERR3
 40
0.0
  9
$USERR4
 40
0.0
  9
$USERR5
 40
0.0
  9
$WORLDVIEW
 70
     1
  9
$SHADEDGE
 70
     3
  9
$SHADEDIF
 70
    70
  9
$TILEMODE
 70
     1
  9
$MAXACTVP
 70
    64
  9
$PLIMCHECK
 70
     0
  9
$PEXTMIN
 10
0.0
 20
0.0
 30
0.0
  9
$PEXTMAX
 10
0.0
 20
0.0
 30
0.0
  9
$PLIMMIN
 10
0.0
 20
0.0
  9
$PLIMMAX
 10
12.0
 20
9.0
  9
$UNITMODE
 70
     0
  9
$VISRETAIN
 70
     1
  9
$PLINEGEN
 70
     0
  9
$PSLTSCALE
 70
     1
  0
ENDSEC
  0
SECTION
  2
TABLES
  0
TABLE
  2
VPORT
 70
     3
  0
VPORT
  2
*ACTIVE
 70
     0
 10
0.0
 20
0.0
 11
1.0
 21
1.0
 12
6.0000000279396772
 22
5.9999771345173674
 13
0.0
 23
0.0
 14
0.5
 24
0.5
 15
0.5
 25
0.5
 16
0.0
 26
0.0
 36
1.0
 17
0.0
 27
0.0
 37
0.0
 40
12.105159097690819
 41
2.0262008733624448
 42
50.0
 43
0.0
 44
0.0
 50
0.0
 51
0.0
 71
     0
 72
 20000
 73
     1
 74
     1
 75
     0
 76
     0
 77
     0
 78
     0
  0
ENDTAB
  0
TABLE
  2
LTYPE
 70
     1
  0
LTYPE
  2
CONTINUOUS
 70
     0
  3
Solid line
 72
    65
 73
     0
 40
0.0
  0
ENDTAB
  0
TABLE
  2
LAYER
 70
     1
  0
LAYER
  2
0
 70
     0
 62
     7
  6
CONTINUOUS
  0
ENDTAB
  0
TABLE
  2
STYLE
 70
     2
  0
STYLE
  2
STANDARD
 70
     0
 40
0.0
 41
1.0
 50
0.0
 71
     0
 42
0.2
  3
txt
  4

  0
STYLE
  2
ROMANS
 70
     0
 40
0.0
 41
1.0
 50
0.0
 71
     0
 42
6.0
  3
ROMANS.SHX
  4

  0
ENDTAB
  0
TABLE
  2
VIEW
 70
     0
  0
ENDTAB
  0
TABLE
  2
UCS
 70
     0
  0
ENDTAB
  0
TABLE
  2
APPID
 70
     1
  0
APPID
  2
ACAD
 70
     0
  0
ENDTAB
  0
TABLE
  2
DIMSTYLE
 70
     1
  0
DIMSTYLE
  2
STANDARD
 70
     0
  3

  4

  5

  6

  7

 40
1.0
 41
0.18
 42
0.0625
 43
0.38
 44
0.18
 45
0.0
 46
0.0
 47
0.0
 48
0.0
140
0.18
141
0.09
142
0.0
143
25.399999999999999
144
1.0
145
0.0
146
1.0
147
0.09
 71
     0
 72
     0
 73
     1
 74
     1
 75
     0
 76
     0
 77
     0
 78
     0
170
     0
171
     2
172
     0
173
     0
174
     0
175
     0
176
     0
177
     0
178
     0
  0
ENDTAB
  0
ENDSEC
  0
SECTION
  2
BLOCKS
  0
BLOCK
  8
0
  2
$MODEL_SPACE
 70
     0
 10
0.0
 20
0.0
 30
0.0
  3
$MODEL_SPACE
  1

  0
ENDBLK
  5
399
  8
0
  0
BLOCK
 67
     1
  8
0
  2
$PAPER_SPACE
 70
     0
 10
0.0
 20
0.0
 30
0.0
  3
$PAPER_SPACE
  1

  0
ENDBLK
  5
395
 67
     1
  8
0
  0
ENDSEC
  0
SECTION
  2
ENTITIES
  0
POLYLINE
  5
42E
  8
0
  6
CONTINUOUS
 62
     7
 66
     1
 10
0.0
 20
0.0
 30
0.0
 70
     1
  0
VERTEX
  5
6EB
  8
0
  6
CONTINUOUS
 62
     7
 10
10.06350834799621
 20
11.50000000617873
 30
0.0
 42
0.2728421326631454
  0
VERTEX
  5
6EC
  8
0
  6
CONTINUOUS
 62
     7
 10
11.50000002109981
 20
10.06350833307504
 30
0.0
  0
VERTEX
  5
6ED
  8
0
  6
CONTINUOUS
 62
     7
 10
11.50000002109978
 20
9.5000000061787588
 30
0.0
  0
VERTEX
  5
6EE
  8
0
  6
CONTINUOUS
 62
     7
 10
9.5000000210999502
 20
9.5000000061787588
 30
0.0
  0
VERTEX
  5
6EF
  8
0
  6
CONTINUOUS
 62
     7
 10
9.5000000210998934
 20
11.500000006178761
 30
0.0
  0
SEQEND
  5
6F0
  8
0
  6
CONTINUOUS
 62
     7
  0
POLYLINE
  5
42F
  8
0
  6
CONTINUOUS
 62
     7
 66
     1
 10
0.0
 20
0.0
 30
0.0
 70
     1
  0
VERTEX
  5
6F1
  8
0
  6
CONTINUOUS
 62
     7
 10
6.4009805075070423
 20
6.0000000061787579
 30
0.0
 42
-0.0408564690525733
  0
VERTEX
  5
6F2
  8
0
  6
CONTINUOUS
 62
     7
 10
7.363199731079999
 20
6.7559478448753136
 30
0.0
 42
0.0457615033073524
  0
VERTEX
  5
6F3
  8
0
  6
CONTINUOUS
 62
     7
 10
8.3944487456358985
 20
6.0000000061787579
 30
0.0
 42
0.0457615033073518
  0
VERTEX
  5
6F4
  8
0
  6
CONTINUOUS
 62
     7
 10
7.363199731079999
 20
5.2440521674822023
 30
0.0
 42
-0.0408564690525737
  0
SEQEND
  5
6F5
  8
0
  6
CONTINUOUS
 62
     7
  0
POLYLINE
  5
430
  8
0
  6
CONTINUOUS
 62
     7
 66
     1
 10
0.0
 20
0.0
 30
0.0
 70
     1
  0
VERTEX
  5
6F6
  8
0
  6
CONTINUOUS
 62
     7
 10
9.5000000210998934
 20
6.0000000061787579
 30
0.0
 42
-0.079615576035425
  0
VERTEX
  5
6F7
  8
0
  6
CONTINUOUS
 62
     7
 10
11.500000021099829
 20
6.4807407045865286
 30
0.0
  0
VERTEX
  5
6F8
  8
0
  6
CONTINUOUS
 62
     7
 10
11.500000021099829
 20
5.5192593077708718
 30
0.0
 42
-0.0796155760354254
  0
SEQEND
  5
6F9
  8
0
  6
CONTINUOUS
 62
     7
  0
POLYLINE
  5
431
  8
0
  6
CONTINUOUS
 62
     7
 66
     1
 10
0.0
 20
0.0
 30
0.0
 70
     1
  0
VERTEX
  5
6FA
  8
0
  6
CONTINUOUS
 62
     7
 10
6.0000000210999502
 20
5.5990195197715522
 30
0.0
 42
-0.0408564690525733
  0
VERTEX
  5
6FB
  8
0
  6
CONTINUOUS
 62
     7
 10
6.7559478597964784
 20
4.6368002961985919
 30
0.0
 42
0.0457615033073524
  0
VERTEX
  5
6FC
  8
0
  6
CONTINUOUS
 62
     7
 10
6.00000002109992
 20
3.605551281642696
 30
0.0
 42
0.0457615033073518
  0
VERTEX
  5
6FD
  8
0
  6
CONTINUOUS
 62
     7
 10
5.2440521824033928
 20
4.6368002961985919
 30
0.0
 42
-0.0408564690525737
  0
SEQEND
  5
6FE
  8
0
  6
CONTINUOUS
 62
     7
  0
POLYLINE
  5
432
  8
0
  6
CONTINUOUS
 62
     7
 66
     1
 10
0.0
 20
0.0
 30
0.0
 70
     1
  0
VERTEX
  5
6FF
  8
0
  6
CONTINUOUS
 62
     7
 10
6.00000002109992
 20
2.5000000061787011
 30
0.0
 42
-0.079615576035425
  0
VERTEX
  5
700
  8
0
  6
CONTINUOUS
 62
     7
 10
6.4807407195077493
 20
0.500000006178759
 30
0.0
  0
VERTEX
  5
701
  8
0
  6
CONTINUOUS
 62
     7
 10
5.5192593226920641
 20
0.500000006178759
 30
0.0
 42
-0.0796155760354254
  0
SEQEND
  5
702
  8
0
  6
CONTINUOUS
 62
     7
  0
POLYLINE
  5
433
  8
0
  6
CONTINUOUS
 62
     7
 66
     1
 10
0.0
 20
0.0
 30
0.0
 70
     1
  0
VERTEX
  5
703
  8
0
  6
CONTINUOUS
 62
     7
 10
5.5990195346927987
 20
6.0000000061787579
 30
0.0
 42
-0.0408564690525733
  0
VERTEX
  5
704
  8
0
  6
CONTINUOUS
 62
     7
 10
4.636800311119841
 20
5.2440521674822023
 30
0.0
 42
0.0457615033073524
  0
VERTEX
  5
705
  8
0
  6
CONTINUOUS
 62
     7
 10
3.6055512965639429
 20
6.0000000061787579
 30
0.0
 42
0.0457615033073518
  0
VERTEX
  5
706
  8
0
  6
CONTINUOUS
 62
     7
 10
4.636800311119841
 20
6.7559478448753136
 30
0.0
 42
-0.0408564690525737
  0
SEQEND
  5
707
  8
0
  6
CONTINUOUS
 62
     7
  0
POLYLINE
  5
434
  8
0
  6
CONTINUOUS
 62
     7
 66
     1
 10
0.0
 20
0.0
 30
0.0
 70
     1
  0
VERTEX
  5
708
  8
0
  6
CONTINUOUS
 62
     7
 10
2.5000000210999498
 20
6.0000000061787579
 30
0.0
 42
-0.079615576035425
  0
VERTEX
  5
709
  8
0
  6
CONTINUOUS
 62
     7
 10
0.5000000211000072
 20
5.5192593077709287
 30
0.0
  0
VERTEX
  5
70A
  8
0
  6
CONTINUOUS
 62
     7
 10
0.5000000211000072
 20
6.4807407045866432
 30
0.0
 42
-0.0796155760354254
  0
SEQEND
  5
70B
  8
0
  6
CONTINUOUS
 62
     7
  0
POLYLINE
  5
435
  8
0
  6
CONTINUOUS
 62
     7
 66
     1
 10
0.0
 20
0.0
 30
0.0
 70
     1
  0
VERTEX
  5
70C
  8
0
  6
CONTINUOUS
 62
     7
 10
6.00000002109992
 20
6.4009804925859068
 30
0.0
 42
-0.0408564690525733
  0
VERTEX
  5
70D
  8
0
  6
CONTINUOUS
 62
     7
 10
5.2440521824033928
 20
7.363199716158868
 30
0.0
 42
0.0457615033073524
  0
VERTEX
  5
70E
  8
0
  6
CONTINUOUS
 62
     7
 10
6.0000000210999502
 20
8.3944487307147622
 30
0.0
 42
0.0457615033073518
  0
VERTEX
  5
70F
  8
0
  6
CONTINUOUS
 62
     7
 10
6.7559478597964784
 20
7.363199716158868
 30
0.0
 42
-0.0408564690525737
  0
SEQEND
  5
710
  8
0
  6
CONTINUOUS
 62
     7
  0
POLYLINE
  5
436
  8
0
  6
CONTINUOUS
 62
     7
 66
     1
 10
0.0
 20
0.0
 30
0.0
 70
     1
  0
VERTEX
  5
711
  8
0
  6
CONTINUOUS
 62
     7
 10
6.0000000210999502
 20
9.5000000061787588
 30
0.0
 42
-0.079615576035425
  0
VERTEX
  5
712
  8
0
  6
CONTINUOUS
 62
     7
 10
5.5192593226921201
 20
11.5000000061787
 30
0.0
  0
VERTEX
  5
713
  8
0
  6
CONTINUOUS
 62
     7
 10
6.4807407195078062
 20
11.5000000061787
 30
0.0
 42
-0.0796155760354254
  0
SEQEND
  5
714
  8
0
  6
CONTINUOUS
 62
     7
  0
POLYLINE
  5
437
  8
0
  6
CONTINUOUS
 62
     7
 66
     1
 10
0.0
 20
0.0
 30
0.0
 70
     1
  0
VERTEX
  5
715
  8
0
  6
CONTINUOUS
 62
     7
 10
7.8108808628888502
 20
7.0299617087097124
 30
0.0
 42
-0.043631089255728
  0
VERTEX
  5
716
  8
0
  6
CONTINUOUS
 62
     7
 10
9.0000000210999502
 20
7.5710678180442921
 30
0.0
  0
VERTEX
  5
717
  8
0
  6
CONTINUOUS
 62
     7
 10
9.0000000210998934
 20
6.324555326515501
 30
0.0
 42
0.0035556080706634
  0
VERTEX
  5
718
  8
0
  6
CONTINUOUS
 62
     7
 10
8.9103562815240736
 20
6.2812500061787579
 30
0.0
 42
-0.0512959172822181
  0
SEQEND
  5
719
  8
0
  6
CONTINUOUS
 62
     7
  0
POLYLINE
  5
438
  8
0
  6
CONTINUOUS
 62
     7
 66
     1
 10
0.0
 20
0.0
 30
0.0
 70
     1
  0
VERTEX
  5
71A
  8
0
  6
CONTINUOUS
 62
     7
 10
11.500000021099829
 20
8.0000000061787588
 30
0.0
  0
VERTEX
  5
71B
  8
0
  6
CONTINUOUS
 62
     7
 10
11.500000021099829
 20
6.982120028063143
 30
0.0
 42
0.073561702433248
  0
VERTEX
  5
71C
  8
0
  6
CONTINUOUS
 62
     7
 10
9.5000000210998934
 20
6.5383484214897214
 30
0.0
  0
VERTEX
  5
71D
  8
0
  6
CONTINUOUS
 62
     7
 10
9.5000000210998365
 20
7.7284161535792393
 30
0.0
 42
-0.0675858249995755
  0
SEQEND
  5
71E
  8
0
  6
CONTINUOUS
 62
     7
  0
POLYLINE
  5
439
  8
0
  6
CONTINUOUS
 62
     7
 66
     1
 10
0.0
 20
0.0
 30
0.0
 70
     1
  0
VERTEX
  5
71F
  8
0
  6
CONTINUOUS
 62
     7
 10
6.9821200429843913
 20
11.50000000617864
 30
0.0
 42
-0.0735617024332477
  0
VERTEX
  5
720
  8
0
  6
CONTINUOUS
 62
     7
 10
6.5383484364109696
 20
9.5000000061787588
 30
0.0
  0
VERTEX
  5
721
  8
0
  6
CONTINUOUS
 62
     7
 10
7.7284161685003721
 20
9.5000000061787588
 30
0.0
 42
0.0675858249995752
  0
VERTEX
  5
722
  8
0
  6
CONTINUOUS
 62
     7
 10
8.0000000210998934
 20
11.500000006178761
 30
0.0
  0
SEQEND
  5
723
  8
0
  6
CONTINUOUS
 62
     7
  0
POLYLINE
  5
43A
  8
0
  6
CONTINUOUS
 62
     7
 66
     1
 10
0.0
 20
0.0
 30
0.0
 70
     1
  0
VERTEX
  5
724
  8
0
  6
CONTINUOUS
 62
     7
 10
9.0000000210998934
 20
11.500000006178761
 30
0.0
  0
VERTEX
  5
725
  8
0
  6
CONTINUOUS
 62
     7
 10
9.0000000210998934
 20
9.5000000061787588
 30
0.0
  0
VERTEX
  5
726
  8
0
  6
CONTINUOUS
 62
     7
 10
8.2459667135147043
 20
9.5000000061787588
 30
0.0
 42
0.0632542239299173
  0
VERTEX
  5
727
  8
0
  6
CONTINUOUS
 62
     7
 10
8.5000000210998934
 20
11.500000006178761
 30
0.0
  0
SEQEND
  5
728
  8
0
  6
CONTINUOUS
 62
     7
  0
POLYLINE
  5
43B
  8
0
  6
CONTINUOUS
 62
     7
 66
     1
 10
0.0
 20
0.0
 30
0.0
 70
     1
  0
VERTEX
  5
729
  8
0
  6
CONTINUOUS
 62
     7
 10
8.0993420978852129
 20
9.0000000061787588
 30
0.0
  0
VERTEX
  5
72A
  8
0
  6
CONTINUOUS
 62
     7
 10
9.0000000210998934
 20
9.0000000061787588
 30
0.0
  0
VERTEX
  5
72B
  8
0
  6
CONTINUOUS
 62
     7
 10
9.0000000210999502
 20
8.0993420829641352
 30
0.0
 42
0.0542495950228324
  0
VERTEX
  5
72C
  8
0
  6
CONTINUOUS
 62
     7
 10
7.4239589287171412
 20
7.383740923238852
 30
0.0
 42
-0.0021875807646894
  0
VERTEX
  5
72D
  8
0
  6
CONTINUOUS
 62
     7
 10
7.3837409381599883
 20
7.4239589137960049
 30
0.0
 42
0.054249595022829
  0
SEQEND
  5
72E
  8
0
  6
CONTINUOUS
 62
     7
  0
POLYLINE
  5
43C
  8
0
  6
CONTINUOUS
 62
     7
 66
     1
 10
0.0
 20
0.0
 30
0.0
 70
     1
  0
VERTEX
  5
72F
  8
0
  6
CONTINUOUS
 62
     7
 10
6.2812500210999502
 20
8.9103562666028822
 30
0.0
 42
0.051295917282213
  0
VERTEX
  5
730
  8
0
  6
CONTINUOUS
 62
     7
 10
7.0299617236307901
 20
7.8108808479677148
 30
0.0
 42
0.0436310892557249
  0
VERTEX
  5
731
  8
0
  6
CONTINUOUS
 62
     7
 10
7.571067832965368
 20
9.0000000061787588
 30
0.0
  0
VERTEX
  5
732
  8
0
  6
CONTINUOUS
 62
     7
 10
6.3245553414366924
 20
9.0000000061787588
 30
0.0
 42
-0.0035556080706648
  0
SEQEND
  5
733
  8
0
  6
CONTINUOUS
 62
     7
  0
POLYLINE
  5
43D
  8
0
  6
CONTINUOUS
 62
     7
 66
     1
 10
0.0
 20
0.0
 30
0.0
 70
     1
  0
VERTEX
  5
734
  8
0
  6
CONTINUOUS
 62
     7
 10
11.500000021099829
 20
9.0000000061787588
 30
0.0
  0
VERTEX
  5
735
  8
0
  6
CONTINUOUS
 62
     7
 10
11.500000021099829
 20
8.5000000061787588
 30
0.0
 42
0.0632542239299156
  0
VERTEX
  5
736
  8
0
  6
CONTINUOUS
 62
     7
 10
9.5000000210998934
 20
8.2459666985936266
 30
0.0
  0
VERTEX
  5
737
  8
0
  6
CONTINUOUS
 62
     7
 10
9.5000000210998934
 20
9.0000000061787588
 30
0.0
  0
SEQEND
  5
738
  8
0
  6
CONTINUOUS
 62
     7
  0
POLYLINE
  5
43E
  8
0
  6
CONTINUOUS
 62
     7
 66
     1
 10
0.0
 20
0.0
 30
0.0
 70
     1
  0
VERTEX
  5
739
  8
0
  6
CONTINUOUS
 62
     7
 10
7.0299617236308753
 20
4.1891191643897434
 30
0.0
 42
-0.043631089255728
  0
VERTEX
  5
73A
  8
0
  6
CONTINUOUS
 62
     7
 10
7.5710678329654826
 20
3.0000000061786438
 30
0.0
  0
VERTEX
  5
73B
  8
0
  6
CONTINUOUS
 62
     7
 10
6.3245553414366924
 20
3.0000000061787011
 30
0.0
 42
0.0035556080706634
  0
VERTEX
  5
73C
  8
0
  6
CONTINUOUS
 62
     7
 10
6.28125002109992
 20
3.0896437457545201
 30
0.0
 42
-0.0512959172822181
  0
SEQEND
  5
73D
  8
0
  6
CONTINUOUS
 62
     7
  0
POLYLINE
  5
43F
  8
0
  6
CONTINUOUS
 62
     7
 66
     1
 10
0.0
 20
0.0
 30
0.0
 70
     1
  0
VERTEX
  5
73E
  8
0
  6
CONTINUOUS
 62
     7
 10
8.0000000210999502
 20
0.500000006178759
 30
0.0
  0
VERTEX
  5
73F
  8
0
  6
CONTINUOUS
 62
     7
 10
6.9821200429843611
 20
0.500000006178759
 30
0.0
 42
0.073561702433248
  0
VERTEX
  5
740
  8
0
  6
CONTINUOUS
 62
     7
 10
6.5383484364109119
 20
2.5000000061787011
 30
0.0
  0
VERTEX
  5
741
  8
0
  6
CONTINUOUS
 62
     7
 10
7.7284161685004298
 20
2.5000000061787579
 30
0.0
 42
-0.0675858249995755
  0
SEQEND
  5
742
  8
0
  6
CONTINUOUS
 62
     7
  0
POLYLINE
  5
440
  8
0
  6
CONTINUOUS
 62
     7
 66
     1
 10
0.0
 20
0.0
 30
0.0
 70
     1
  0
VERTEX
  5
743
  8
0
  6
CONTINUOUS
 62
     7
 10
10.063508347996169
 20
0.5000000061787269
 30
0.0
  0
VERTEX
  5
744
  8
0
  6
CONTINUOUS
 62
     7
 10
9.5000000210999218
 20
0.500000006178759
 30
0.0
  0
VERTEX
  5
745
  8
0
  6
CONTINUOUS
 62
     7
 10
9.5000000210999218
 20
2.500000006178587
 30
0.0
  0
VERTEX
  5
746
  8
0
  6
CONTINUOUS
 62
     7
 10
11.50000002109992
 20
2.5000000061786438
 30
0.0
  0
VERTEX
  5
747
  8
0
  6
CONTINUOUS
 62
     7
 10
11.50000002109992
 20
1.936491679282472
 30
0.0
 42
0.2728421326631454
  0
SEQEND
  5
748
  8
0
  6
CONTINUOUS
 62
     7
  0
POLYLINE
  5
441
  8
0
  6
CONTINUOUS
 62
     7
 66
     1
 10
0.0
 20
0.0
 30
0.0
 70
     1
  0
VERTEX
  5
749
  8
0
  6
CONTINUOUS
 62
     7
 10
11.50000002109986
 20
5.0178799842941473
 30
0.0
 42
-0.0735617024332477
  0
VERTEX
  5
74A
  8
0
  6
CONTINUOUS
 62
     7
 10
9.5000000210999218
 20
5.461651590867568
 30
0.0
  0
VERTEX
  5
74B
  8
0
  6
CONTINUOUS
 62
     7
 10
9.5000000210999218
 20
4.2715838587781629
 30
0.0
 42
0.0675858249995752
  0
VERTEX
  5
74C
  8
0
  6
CONTINUOUS
 62
     7
 10
11.50000002109992
 20
4.0000000061786443
 30
0.0
  0
SEQEND
  5
74D
  8
0
  6
CONTINUOUS
 62
     7
  0
POLYLINE
  5
442
  8
0
  6
CONTINUOUS
 62
     7
 66
     1
 10
0.0
 20
0.0
 30
0.0
 70
     1
  0
VERTEX
  5
74E
  8
0
  6
CONTINUOUS
 62
     7
 10
11.50000002109992
 20
3.0000000061786438
 30
0.0
  0
VERTEX
  5
74F
  8
0
  6
CONTINUOUS
 62
     7
 10
9.5000000210999218
 20
3.0000000061786438
 30
0.0
  0
VERTEX
  5
750
  8
0
  6
CONTINUOUS
 62
     7
 10
9.5000000210999218
 20
3.7540333137638329
 30
0.0
 42
0.0632542239299173
  0
VERTEX
  5
751
  8
0
  6
CONTINUOUS
 62
     7
 10
11.50000002109992
 20
3.5000000061786438
 30
0.0
  0
SEQEND
  5
752
  8
0
  6
CONTINUOUS
 62
     7
  0
POLYLINE
  5
443
  8
0
  6
CONTINUOUS
 62
     7
 66
     1
 10
0.0
 20
0.0
 30
0.0
 70
     1
  0
VERTEX
  5
753
  8
0
  6
CONTINUOUS
 62
     7
 10
9.0000000210999218
 20
3.9006579293933239
 30
0.0
  0
VERTEX
  5
754
  8
0
  6
CONTINUOUS
 62
     7
 10
9.0000000210999218
 20
3.0000000061786438
 30
0.0
  0
VERTEX
  5
755
  8
0
  6
CONTINUOUS
 62
     7
 10
8.0993420978853266
 20
3.0000000061786438
 30
0.0
 42
0.0542495950228324
  0
VERTEX
  5
756
  8
0
  6
CONTINUOUS
 62
     7
 10
7.3837409381600727
 20
4.5760410985614541
 30
0.0
 42
-0.0021875807646894
  0
VERTEX
  5
757
  8
0
  6
CONTINUOUS
 62
     7
 10
7.4239589287172274
 20
4.6162590891186071
 30
0.0
 42
0.054249595022829
  0
SEQEND
  5
758
  8
0
  6
CONTINUOUS
 62
     7
  0
POLYLINE
  5
444
  8
0
  6
CONTINUOUS
 62
     7
 66
     1
 10
0.0
 20
0.0
 30
0.0
 70
     1
  0
VERTEX
  5
759
  8
0
  6
CONTINUOUS
 62
     7
 10
8.9103562815240434
 20
5.7187500061785874
 30
0.0
 42
0.051295917282213
  0
VERTEX
  5
75A
  8
0
  6
CONTINUOUS
 62
     7
 10
7.810880862888907
 20
4.9700383036478026
 30
0.0
 42
0.0436310892557249
  0
VERTEX
  5
75B
  8
0
  6
CONTINUOUS
 62
     7
 10
9.0000000210999218
 20
4.4289321943131679
 30
0.0
  0
VERTEX
  5
75C
  8
0
  6
CONTINUOUS
 62
     7
 10
9.0000000210999218
 20
5.6754446858418461
 30
0.0
 42
-0.0035556080706648
  0
SEQEND
  5
75D
  8
0
  6
CONTINUOUS
 62
     7
  0
POLYLINE
  5
445
  8
0
  6
CONTINUOUS
 62
     7
 66
     1
 10
0.0
 20
0.0
 30
0.0
 70
     1
  0
VERTEX
  5
75E
  8
0
  6
CONTINUOUS
 62
     7
 10
9.0000000210999218
 20
0.500000006178702
 30
0.0
  0
VERTEX
  5
75F
  8
0
  6
CONTINUOUS
 62
     7
 10
8.5000000210999502
 20
0.500000006178702
 30
0.0
 42
0.0632542239299156
  0
VERTEX
  5
760
  8
0
  6
CONTINUOUS
 62
     7
 10
8.2459667135147878
 20
2.5000000061787011
 30
0.0
  0
VERTEX
  5
761
  8
0
  6
CONTINUOUS
 62
     7
 10
9.0000000210999218
 20
2.5000000061786438
 30
0.0
  0
SEQEND
  5
762
  8
0
  6
CONTINUOUS
 62
     7
  0
POLYLINE
  5
446
  8
0
  6
CONTINUOUS
 62
     7
 66
     1
 10
0.0
 20
0.0
 30
0.0
 70
     1
  0
VERTEX
  5
763
  8
0
  6
CONTINUOUS
 62
     7
 10
4.1891191793109908
 20
4.9700383036478026
 30
0.0
 42
-0.043631089255728
  0
VERTEX
  5
764
  8
0
  6
CONTINUOUS
 62
     7
 10
3.0000000210998929
 20
4.4289321943132247
 30
0.0
  0
VERTEX
  5
765
  8
0
  6
CONTINUOUS
 62
     7
 10
3.0000000210999498
 20
5.675444685841958
 30
0.0
 42
0.0035556080706634
  0
VERTEX
  5
766
  8
0
  6
CONTINUOUS
 62
     7
 10
3.0896437606757692
 20
5.7187500061787579
 30
0.0
 42
-0.0512959172822181
  0
SEQEND
  5
767
  8
0
  6
CONTINUOUS
 62
     7
  0
POLYLINE
  5
447
  8
0
  6
CONTINUOUS
 62
     7
 66
     1
 10
0.0
 20
0.0
 30
0.0
 70
     1
  0
VERTEX
  5
768
  8
0
  6
CONTINUOUS
 62
     7
 10
0.5000000211000072
 20
4.0000000061787579
 30
0.0
  0
VERTEX
  5
769
  8
0
  6
CONTINUOUS
 62
     7
 10
0.5000000211000072
 20
5.017879984294316
 30
0.0
 42
0.073561702433248
  0
VERTEX
  5
76A
  8
0
  6
CONTINUOUS
 62
     7
 10
2.5000000210999498
 20
5.4616515908677368
 30
0.0
  0
VERTEX
  5
76B
  8
0
  6
CONTINUOUS
 62
     7
 10
2.5000000211000062
 20
4.2715838587782784
 30
0.0
 42
-0.0675858249995755
  0
SEQEND
  5
76C
  8
0
  6
CONTINUOUS
 62
     7
  0
POLYLINE
  5
448
  8
0
  6
CONTINUOUS
 62
     7
 66
     1
 10
0.0
 20
0.0
 30
0.0
 70
     1
  0
VERTEX
  5
76D
  8
0
  6
CONTINUOUS
 62
     7
 10
0.5000000211000321
 20
1.9364916792824669
 30
0.0
  0
VERTEX
  5
76E
  8
0
  6
CONTINUOUS
 62
     7
 10
0.500000021100064
 20
2.5000000061787579
 30
0.0
  0
VERTEX
  5
76F
  8
0
  6
CONTINUOUS
 62
     7
 10
2.5000000210998929
 20
2.5000000061787579
 30
0.0
  0
VERTEX
  5
770
  8
0
  6
CONTINUOUS
 62
     7
 10
2.5000000210999498
 20
0.500000006178759
 30
0.0
  0
VERTEX
  5
771
  8
0
  6
CONTINUOUS
 62
     7
 10
1.936491694203635
 20
0.500000006178759
 30
0.0
 42
0.2728421326631454
  0
SEQEND
  5
772
  8
0
  6
CONTINUOUS
 62
     7
  0
POLYLINE
  5
449
  8
0
  6
CONTINUOUS
 62
     7
 66
     1
 10
0.0
 20
0.0
 30
0.0
 70
     1
  0
VERTEX
  5
773
  8
0
  6
CONTINUOUS
 62
     7
 10
5.0178799992154524
 20
0.5000000061788158
 30
0.0
 42
-0.0735617024332477
  0
VERTEX
  5
774
  8
0
  6
CONTINUOUS
 62
     7
 10
5.4616516057888722
 20
2.5000000061787579
 30
0.0
  0
VERTEX
  5
775
  8
0
  6
CONTINUOUS
 62
     7
 10
4.2715838736994689
 20
2.5000000061787579
 30
0.0
 42
0.0675858249995752
  0
VERTEX
  5
776
  8
0
  6
CONTINUOUS
 62
     7
 10
4.0000000210999502
 20
0.500000006178759
 30
0.0
  0
SEQEND
  5
777
  8
0
  6
CONTINUOUS
 62
     7
  0
POLYLINE
  5
44A
  8
0
  6
CONTINUOUS
 62
     7
 66
     1
 10
0.0
 20
0.0
 30
0.0
 70
     1
  0
VERTEX
  5
778
  8
0
  6
CONTINUOUS
 62
     7
 10
3.0000000210999498
 20
0.500000006178759
 30
0.0
  0
VERTEX
  5
779
  8
0
  6
CONTINUOUS
 62
     7
 10
3.0000000210999498
 20
2.5000000061787579
 30
0.0
  0
VERTEX
  5
77A
  8
0
  6
CONTINUOUS
 62
     7
 10
3.7540333286851379
 20
2.5000000061787579
 30
0.0
 42
0.0632542239299173
  0
VERTEX
  5
77B
  8
0
  6
CONTINUOUS
 62
     7
 10
3.5000000210999498
 20
0.500000006178759
 30
0.0
  0
SEQEND
  5
77C
  8
0
  6
CONTINUOUS
 62
     7
  0
POLYLINE
  5
44B
  8
0
  6
CONTINUOUS
 62
     7
 66
     1
 10
0.0
 20
0.0
 30
0.0
 70
     1
  0
VERTEX
  5
77D
  8
0
  6
CONTINUOUS
 62
     7
 10
3.9006579443146299
 20
3.0000000061787579
 30
0.0
  0
VERTEX
  5
77E
  8
0
  6
CONTINUOUS
 62
     7
 10
3.0000000210999498
 20
3.0000000061787579
 30
0.0
  0
VERTEX
  5
77F
  8
0
  6
CONTINUOUS
 62
     7
 10
3.0000000210998929
 20
3.9006579293933239
 30
0.0
 42
0.0542495950228324
  0
VERTEX
  5
780
  8
0
  6
CONTINUOUS
 62
     7
 10
4.5760411134827024
 20
4.6162590891186071
 30
0.0
 42
-0.0021875807646894
  0
VERTEX
  5
781
  8
0
  6
CONTINUOUS
 62
     7
 10
4.6162591040398553
 20
4.5760410985614541
 30
0.0
 42
0.054249595022829
  0
SEQEND
  5
782
  8
0
  6
CONTINUOUS
 62
     7
  0
POLYLINE
  5
44C
  8
0
  6
CONTINUOUS
 62
     7
 66
     1
 10
0.0
 20
0.0
 30
0.0
 70
     1
  0
VERTEX
  5
783
  8
0
  6
CONTINUOUS
 62
     7
 10
5.7187500210998934
 20
3.0896437457546342
 30
0.0
 42
0.051295917282213
  0
VERTEX
  5
784
  8
0
  6
CONTINUOUS
 62
     7
 10
4.9700383185690518
 20
4.1891191643898003
 30
0.0
 42
0.0436310892557249
  0
VERTEX
  5
785
  8
0
  6
CONTINUOUS
 62
     7
 10
4.4289322092344729
 20
3.0000000061787579
 30
0.0
  0
VERTEX
  5
786
  8
0
  6
CONTINUOUS
 62
     7
 10
5.6754447007631503
 20
3.0000000061787579
 30
0.0
 42
-0.0035556080706648
  0
SEQEND
  5
787
  8
0
  6
CONTINUOUS
 62
     7
  0
POLYLINE
  5
44D
  8
0
  6
CONTINUOUS
 62
     7
 66
     1
 10
0.0
 20
0.0
 30
0.0
 70
     1
  0
VERTEX
  5
788
  8
0
  6
CONTINUOUS
 62
     7
 10
0.5000000211000072
 20
3.0000000061787579
 30
0.0
  0
VERTEX
  5
789
  8
0
  6
CONTINUOUS
 62
     7
 10
0.5000000211000072
 20
3.5000000061787579
 30
0.0
 42
0.0632542239299156
  0
VERTEX
  5
78A
  8
0
  6
CONTINUOUS
 62
     7
 10
2.5000000210999498
 20
3.754033313763891
 30
0.0
  0
VERTEX
  5
78B
  8
0
  6
CONTINUOUS
 62
     7
 10
2.5000000210999498
 20
3.0000000061787579
 30
0.0
  0
SEQEND
  5
78C
  8
0
  6
CONTINUOUS
 62
     7
  0
POLYLINE
  5
44E
  8
0
  6
CONTINUOUS
 62
     7
 66
     1
 10
0.0
 20
0.0
 30
0.0
 70
     1
  0
VERTEX
  5
78D
  8
0
  6
CONTINUOUS
 62
     7
 10
0.5000000211000072
 20
6.9821200280632549
 30
0.0
 42
-0.0735617024332477
  0
VERTEX
  5
78E
  8
0
  6
CONTINUOUS
 62
     7
 10
2.5000000210999498
 20
6.5383484214898351
 30
0.0
  0
VERTEX
  5
78F
  8
0
  6
CONTINUOUS
 62
     7
 10
2.5000000210999498
 20
7.7284161535792393
 30
0.0
 42
0.0675858249995752
  0
VERTEX
  5
790
  8
0
  6
CONTINUOUS
 62
     7
 10
0.5000000210999503
 20
8.0000000061787588
 30
0.0
  0
SEQEND
  5
791
  8
0
  6
CONTINUOUS
 62
     7
  0
POLYLINE
  5
44F
  8
0
  6
CONTINUOUS
 62
     7
 66
     1
 10
0.0
 20
0.0
 30
0.0
 70
     1
  0
VERTEX
  5
792
  8
0
  6
CONTINUOUS
 62
     7
 10
0.5000000210999503
 20
9.0000000061787588
 30
0.0
  0
VERTEX
  5
793
  8
0
  6
CONTINUOUS
 62
     7
 10
2.5000000210999498
 20
9.0000000061787588
 30
0.0
  0
VERTEX
  5
794
  8
0
  6
CONTINUOUS
 62
     7
 10
2.5000000210999498
 20
8.245966698593568
 30
0.0
 42
0.0632542239299173
  0
VERTEX
  5
795
  8
0
  6
CONTINUOUS
 62
     7
 10
0.5000000210999503
 20
8.5000000061787588
 30
0.0
  0
SEQEND
  5
796
  8
0
  6
CONTINUOUS
 62
     7
  0
POLYLINE
  5
450
  8
0
  6
CONTINUOUS
 62
     7
 66
     1
 10
0.0
 20
0.0
 30
0.0
 70
     1
  0
VERTEX
  5
797
  8
0
  6
CONTINUOUS
 62
     7
 10
3.089643760675826
 20
6.2812500061788148
 30
0.0
 42
0.051295917282213
  0
VERTEX
  5
798
  8
0
  6
CONTINUOUS
 62
     7
 10
4.1891191793109632
 20
7.0299617087096546
 30
0.0
 42
0.0436310892557249
  0
VERTEX
  5
799
  8
0
  6
CONTINUOUS
 62
     7
 10
3.0000000210999498
 20
7.5710678180442317
 30
0.0
  0
VERTEX
  5
79A
  8
0
  6
CONTINUOUS
 62
     7
 10
3.0000000210999498
 20
6.3245553265155561
 30
0.0
 42
-0.0035556080706648
  0
SEQEND
  5
79B
  8
0
  6
CONTINUOUS
 62
     7
  0
POLYLINE
  5
451
  8
0
  6
CONTINUOUS
 62
     7
 66
     1
 10
0.0
 20
0.0
 30
0.0
 70
     1
  0
VERTEX
  5
79C
  8
0
  6
CONTINUOUS
 62
     7
 10
3.0000000210999498
 20
8.0993420829640765
 30
0.0
  0
VERTEX
  5
79D
  8
0
  6
CONTINUOUS
 62
     7
 10
3.0000000210999498
 20
9.0000000061787588
 30
0.0
  0
VERTEX
  5
79E
  8
0
  6
CONTINUOUS
 62
     7
 10
3.9006579443145442
 20
9.0000000061788157
 30
0.0
 42
0.0542495950228324
  0
VERTEX
  5
79F
  8
0
  6
CONTINUOUS
 62
     7
 10
4.6162591040397976
 20
7.4239589137960049
 30
0.0
 42
-0.0021875807646894
  0
VERTEX
  5
7A0
  8
0
  6
CONTINUOUS
 62
     7
 10
4.5760411134826446
 20
7.383740923238852
 30
0.0
 42
0.054249595022829
  0
SEQEND
  5
7A1
  8
0
  6
CONTINUOUS
 62
     7
  0
POLYLINE
  5
452
  8
0
  6
CONTINUOUS
 62
     7
 66
     1
 10
0.0
 20
0.0
 30
0.0
 70
     1
  0
VERTEX
  5
7A2
  8
0
  6
CONTINUOUS
 62
     7
 10
4.970038318568994
 20
7.8108808479677148
 30
0.0
 42
-0.043631089255728
  0
VERTEX
  5
7A3
  8
0
  6
CONTINUOUS
 62
     7
 10
4.4289322092343886
 20
9.0000000061788157
 30
0.0
  0
VERTEX
  5
7A4
  8
0
  6
CONTINUOUS
 62
     7
 10
5.6754447007631779
 20
9.0000000061787588
 30
0.0
 42
0.0035556080706634
  0
VERTEX
  5
7A5
  8
0
  6
CONTINUOUS
 62
     7
 10
5.7187500210999502
 20
8.9103562666029372
 30
0.0
 42
-0.0512959172822181
  0
SEQEND
  5
7A6
  8
0
  6
CONTINUOUS
 62
     7
  0
POLYLINE
  5
453
  8
0
  6
CONTINUOUS
 62
     7
 66
     1
 10
0.0
 20
0.0
 30
0.0
 70
     1
  0
VERTEX
  5
7A7
  8
0
  6
CONTINUOUS
 62
     7
 10
4.0000000210999209
 20
11.5000000061787
 30
0.0
  0
VERTEX
  5
7A8
  8
0
  6
CONTINUOUS
 62
     7
 10
5.0178799992155083
 20
11.5000000061787
 30
0.0
 42
0.073561702433248
  0
VERTEX
  5
7A9
  8
0
  6
CONTINUOUS
 62
     7
 10
5.4616516057889584
 20
9.5000000061787588
 30
0.0
  0
VERTEX
  5
7AA
  8
0
  6
CONTINUOUS
 62
     7
 10
4.2715838736994414
 20
9.5000000061787002
 30
0.0
 42
-0.0675858249995755
  0
SEQEND
  5
7AB
  8
0
  6
CONTINUOUS
 62
     7
  0
POLYLINE
  5
454
  8
0
  6
CONTINUOUS
 62
     7
 66
     1
 10
0.0
 20
0.0
 30
0.0
 70
     1
  0
VERTEX
  5
7AC
  8
0
  6
CONTINUOUS
 62
     7
 10
3.0000000210999498
 20
11.5000000061787
 30
0.0
  0
VERTEX
  5
7AD
  8
0
  6
CONTINUOUS
 62
     7
 10
3.5000000210999209
 20
11.5000000061787
 30
0.0
 42
0.0632542239299156
  0
VERTEX
  5
7AE
  8
0
  6
CONTINUOUS
 62
     7
 10
3.754033328685082
 20
9.5000000061787588
 30
0.0
  0
VERTEX
  5
7AF
  8
0
  6
CONTINUOUS
 62
     7
 10
3.0000000210999498
 20
9.5000000061787588
 30
0.0
  0
SEQEND
  5
7B0
  8
0
  6
CONTINUOUS
 62
     7
  0
POLYLINE
  5
455
  8
0
  6
CONTINUOUS
 62
     7
 66
     1
 10
0.0
 20
0.0
 30
0.0
 70
     1
  0
VERTEX
  5
7B1
  8
0
  6
CONTINUOUS
 62
     7
 10
1.936491694203637
 20
11.50000000617867
 30
0.0
  0
VERTEX
  5
7B2
  8
0
  6
CONTINUOUS
 62
     7
 10
2.5000000210999498
 20
11.50000000617864
 30
0.0
  0
VERTEX
  5
7B3
  8
0
  6
CONTINUOUS
 62
     7
 10
2.5000000210999498
 20
9.5000000061788157
 30
0.0
  0
VERTEX
  5
7B4
  8
0
  6
CONTINUOUS
 62
     7
 10
0.5000000210999503
 20
9.5000000061787588
 30
0.0
  0
VERTEX
  5
7B5
  8
0
  6
CONTINUOUS
 62
     7
 10
0.5000000210999503
 20
10.063508333075051
 30
0.0
 42
0.2728421326631454
  0
SEQEND
  5
7B6
  8
0
  6
CONTINUOUS
 62
     7
  0
POLYLINE
  5
456
  8
0
  6
CONTINUOUS
 62
     7
 66
     1
 10
0.0
 20
0.0
 30
0.0
 70
     1
  0
VERTEX
  5
7B7
  8
0
  6
CONTINUOUS
 62
     7
 10
12.00000002109995
 20
10.50000000617872
 30
0.0
  0
VERTEX
  5
7B8
  8
0
  6
CONTINUOUS
 62
     7
 10
12.00000002109989
 20
1.500000006178754
 30
0.0
 42
0.4142135623730953
  0
VERTEX
  5
7B9
  8
0
  6
CONTINUOUS
 62
     7
 10
10.50000002109989
 20
0.0000000061787588
 30
0.0
  0
VERTEX
  5
7BA
  8
0
  6
CONTINUOUS
 62
     7
 10
1.500000021099918
 20
0.0000000061787877
 30
0.0
 42
0.4142135623730957
  0
VERTEX
  5
7BB
  8
0
  6
CONTINUOUS
 62
     7
 10
0.0000000210999502
 20
1.5000000061787879
 30
0.0
  0
VERTEX
  5
7BC
  8
0
  6
CONTINUOUS
 62
     7
 10
0.0000000210999493
 20
10.500000006178761
 30
0.0
 42
0.4142135623730957
  0
VERTEX
  5
7BD
  8
0
  6
CONTINUOUS
 62
     7
 10
1.5000000210999489
 20
12.000000006178761
 30
0.0
  0
VERTEX
  5
7BE
  8
0
  6
CONTINUOUS
 62
     7
 10
10.500000021099931
 20
12.000000006178761
 30
0.0
 42
0.4142135623730957
  0
SEQEND
  5
7BF
  8
0
  6
CONTINUOUS
 62
     7
  0
ENDSEC
  0
EOF
