  0
SECTION
  2
ENTITIES
  0
POINT
  8
0
 38
0.5
 10
0.6
 20
0
  0
POINT
  8
0
 38
0.5
 10
0.2931
 20
-0.0729
  0
ARC
  8
0
 38
0.5
 10
-5.72779989
 20
2.91020012
 40
6.71938419
 50
331.18142700
 51
333.64355469
  0
ARC
  8
0
 38
0.5
 10
0.10500000
 20
-0.29890001
 40
0.06207552
 50
273.04067993
 51
331.20538330
  0
ARC
  8
0
 38
0.5
 10
0.00000000
 20
1.67349994
 40
2.03717542
 50
266.95544434
 51
273.04458618
  0
ARC
  8
0
 38
0.5
 10
-0.10490000
 20
-0.29879999
 40
0.06208776
 50
208.38391113
 51
266.95324707
  0
ARC
  8
0
 38
0.5
 10
5.72779989
 20
2.91020012
 40
6.71939325
 50
203.89520264
 51
208.81857300
  0
ARC
  8
0
 38
0.5
 10
-0.35890001
 20
0.21380000
 40
0.06213920
 50
109.07768250
 51
203.92509460
  0
ARC
  8
0
 38
0.5
 10
0.00000000
 20
-0.81459999
 40
1.15127647
 50
70.76396942
 51
109.23603058
  0
ARC
  8
0
 38
0.5
 10
0.35879999
 20
0.21370000
 40
0.06217668
 50
336.19390869
 51
70.74909973
  0
ARC
  8
0
 38
0.5
 10
-5.72779989
 20
2.91030002
 40
6.71939325
 50
333.64270020
 51
336.10565186
  0
POINT
  8
0
 38
0.5
 10
0.2931
 20
-0.0729
  0
POINT
  8
0
 38
0.5
 10
0
 20
0
  0
POINT
  8
0
 38
0.5
 10
0.149
 20
0.2035
  0
POINT
  8
0
 38
0.5
 10
0.1988
 20
0
  0
POINT
  8
0
 38
0.5
 10
0.1025
 20
-0.1805
  0
POINT
  8
0
 38
0.5
 10
-0.1025
 20
-0.1805
  0
POINT
  8
0
 38
0.5
 10
-0.1988
 20
0
  0
POINT
  8
0
 38
0.5
 10
-0.149
 20
0.2035
  0
POINT
  8
0
 38
0.5
 10
0.149
 20
0.2035
  0
POINT
  8
0
 38
0.5
 10
0.1955
 20
0.1337
  0
LINE
  8
0
 38
0.5
 10
0.1955
 20
0.1337
 11
0.3739
 21
0.2371
  0
ARC
  8
0
 38
0.5
 10
0.00000000
 20
-0.81470001
 40
1.11628151
 50
70.43041992
 51
86.57993317
  0
LINE
  8
0
 38
0.5
 10
0.0666
 20
0.2996
 11
0.0666
 21
0.232
  0
ARC
  8
0
 38
0.5
 10
0.00000000
 20
0.23199999
 40
0.06660000
 50
285.19940186
 51
0.00000610
  0
LINE
  8
0
 38
0.5
 10
0.0175
 20
0.1677
 11
0.0175
 21
0.1088
  0
ARC
  8
0
 38
0.5
 10
0.00000000
 20
0.00000000
 40
0.11019841
 50
39.29680634
 51
80.86248779
  0
LINE
  8
0
 38
0.5
 10
0.0853
 20
0.0698
 11
0.1955
 21
0.1337
  0
POINT
  8
0
 38
0.5
 10
0.1955
 20
0.1337
  0
POINT
  8
0
 38
0.5
 10
0.1988
 20
0
  0
POINT
  8
0
 38
0.5
 10
0.1732
 20
0.0802
  0
LINE
  8
0
 38
0.5
 10
0.1732
 20
0.0802
 11
0.1029
 21
0.0394
  0
ARC
  8
0
 38
0.5
 10
0.00000000
 20
0.00000000
 40
0.11018516
 50
339.04837036
 51
20.95164490
  0
LINE
  8
0
 38
0.5
 10
0.1029
 20
-0.0394
 11
0.2328
 21
-0.1148
  0
ARC
  8
0
 38
0.5
 10
-5.72790003
 20
2.91020012
 40
6.68435240
 50
333.09262085
 51
336.09924316
  0
LINE
  8
0
 38
0.5
 10
0.3833
 20
0.202
 11
0.1732
 21
0.0802
  0
POINT
  8
0
 38
0.5
 10
0.1732
 20
0.0802
  0
POINT
  8
0
 38
0.5
 10
0.1025
 20
-0.1805
  0
POINT
  8
0
 38
0.5
 10
0.0175
 20
-0.2187
  0
LINE
  8
0
 38
0.5
 10
0.0175
 20
-0.2187
 11
0.0175
 21
-0.3286
  0
ARC
  8
0
 38
0.5
 10
0.00000000
 20
1.67340004
 40
2.00207639
 50
270.50082397
 51
273.47616577
  0
ARC
  8
0
 38
0.5
 10
-5.72779989
 20
2.91020012
 40
6.68428469
 50
331.05294800
 51
332.79205322
  0
LINE
  8
0
 38
0.5
 10
0.2169
 20
-0.146
 11
0.0853
 21
-0.0698
  0
ARC
  8
0
 38
0.5
 10
0.00000000
 20
0.00000000
 40
0.11021855
 50
279.14642334
 51
320.70693970
  0
LINE
  8
0
 38
0.5
 10
0.0175
 20
-0.1088
 11
0.0175
 21
-0.2187
  0
POINT
  8
0
 38
0.5
 10
0.0175
 20
-0.2187
  0
POINT
  8
0
 38
0.5
 10
-0.1025
 20
-0.1805
  0
POINT
  8
0
 38
0.5
 10
-0.0175
 20
-0.2187
  0
LINE
  8
0
 38
0.5
 10
-0.0175
 20
-0.2187
 11
-0.0175
 21
-0.1088
  0
ARC
  8
0
 38
0.5
 10
0.00000000
 20
0.00000000
 40
0.11019841
 50
219.26371765
 51
260.86248779
  0
LINE
  8
0
 38
0.5
 10
-0.0853
 20
-0.0698
 11
-0.2169
 21
-0.146
  0
ARC
  8
0
 38
0.5
 10
5.72779989
 20
2.91030002
 40
6.68434191
 50
207.20869446
 51
208.94808960
  0
ARC
  8
0
 38
0.5
 10
0.00000000
 20
1.67340004
 40
2.00208402
 50
266.52365112
 51
269.49938965
  0
LINE
  8
0
 38
0.5
 10
-0.0175
 20
-0.3286
 11
-0.0175
 21
-0.2187
  0
POINT
  8
0
 38
0.5
 10
-0.0175
 20
-0.2187
  0
POINT
  8
0
 38
0.5
 10
-0.1988
 20
0
  0
POINT
  8
0
 38
0.5
 10
-0.1732
 20
0.0802
  0
LINE
  8
0
 38
0.5
 10
-0.1732
 20
0.0802
 11
-0.3833
 21
0.202
  0
ARC
  8
0
 38
0.5
 10
5.72779989
 20
2.91020012
 40
6.68430185
 50
203.90104675
 51
206.90914917
  0
LINE
  8
0
 38
0.5
 10
-0.2328
 20
-0.1148
 11
-0.1029
 21
-0.0394
  0
ARC
  8
0
 38
0.5
 10
0.00000000
 20
0.00000000
 40
0.11018516
 50
159.04835510
 51
200.95164490
  0
LINE
  8
0
 38
0.5
 10
-0.1029
 20
0.0394
 11
-0.1732
 21
0.0802
  0
POINT
  8
0
 38
0.5
 10
-0.1732
 20
0.0802
  0
POINT
  8
0
 38
0.5
 10
-0.149
 20
0.2035
  0
POINT
  8
0
 38
0.5
 10
-0.1955
 20
0.1337
  0
LINE
  8
0
 38
0.5
 10
-0.1955
 20
0.1337
 11
-0.0853
 21
0.0698
  0
ARC
  8
0
 38
0.5
 10
0.00000000
 20
0.00000000
 40
0.11021855
 50
99.12522125
 51
140.70693970
  0
LINE
  8
0
 38
0.5
 10
-0.0175
 20
0.1088
 11
-0.0175
 21
0.1677
  0
ARC
  8
0
 38
0.5
 10
0.00000000
 20
0.23199999
 40
0.06663888
 50
177.23204041
 51
254.77505493
  0
LINE
  8
0
 38
0.5
 10
-0.0666
 20
0.232
 11
-0.0666
 21
0.2996
  0
ARC
  8
0
 38
0.5
 10
0.00000000
 20
-0.81459999
 40
1.11618865
 50
93.42072296
 51
109.57119751
  0
LINE
  8
0
 38
0.5
 10
-0.3739
 20
0.2371
 11
-0.1955
 21
0.1337
  0
POINT
  8
0
 38
0.5
 10
-0.1955
 20
0.1337
  0
POINT
  8
0
 38
0.5
 10
0
 20
0.2505
  0
POINT
  8
0
 38
0.5
 10
0.0316
 20
0.2505
  0
LINE
  8
0
 38
0.5
 10
0.0316
 20
0.2505
 11
0.0316
 21
0.269
  0
ARC
  8
0
 38
0.5
 10
0.00000000
 20
0.26899999
 40
0.03160000
 50
0.00001158
 51
179.91926575
  0
LINE
  8
0
 38
0.5
 10
-0.0316
 20
0.269
 11
-0.0316
 21
0.232
  0
ARC
  8
0
 38
0.5
 10
0.00000000
 20
0.23199999
 40
0.03160000
 50
179.91926575
 51
0.00001240
  0
LINE
  8
0
 38
0.5
 10
0.0316
 20
0.232
 11
0.0316
 21
0.2505
  0
POINT
  8
0
 38
0.5
 10
0.0316
 20
0.2505
  0
POINT
  8
0
 38
0.5
 10
0
 20
0
  0
POINT
  8
0
 38
0.5
 10
0.0626
 20
0
  0
CIRCLE
  8
0
 38
0.5
 10
0.00000000
 20
0.00000000
 40
0.06260000
  0
POINT
  8
0
 38
0.5
 10
0.0626
 20
0
  0
POINT
  8
0
 38
0.5
 10
0
 20
0.4
  0
POINT
  8
0
 38
0.5
 10
-0.0486
 20
0.3642
  0
LINE
  8
0
 38
0.5
 10
-0.0486
 20
0.3642
 11
-0.0486
 21
0.232
  0
ARC
  8
0
 38
0.5
 10
0.00000000
 20
0.23199999
 40
0.04860000
 50
179.92198181
 51
0.00000792
  0
LINE
  8
0
 38
0.5
 10
0.0486
 20
0.232
 11
0.0486
 21
0.3642
  0
POINT
  8
0
 38
0.5
 10
0.0486
 20
0.3642
  0
ENDSEC
  0
EOF
